<svg width="32" height="32" viewBox="0 0 32 32" fill="none" xmlns="http://www.w3.org/2000/svg">
<g clip-path="url(#clip0_329_119)">
<path d="M16.9556 1.66186C16.8673 1.48379 16.7311 1.33392 16.5622 1.22914C16.3933 1.12437 16.1986 1.06885 15.9998 1.06885C15.8011 1.06885 15.6063 1.12437 15.4374 1.22914C15.2686 1.33392 15.1323 1.48379 15.0441 1.66186L10.6772 10.5088L0.912888 11.9275C0.715874 11.9561 0.530799 12.0392 0.3786 12.1676C0.2264 12.2959 0.113151 12.4643 0.0516635 12.6536C-0.00982407 12.8429 -0.0170956 13.0457 0.0306714 13.239C0.0784384 13.4323 0.179338 13.6083 0.321954 13.7472L7.38755 20.6336L5.71929 30.3595C5.68582 30.5555 5.70781 30.7569 5.78278 30.9411C5.85775 31.1253 5.98272 31.2849 6.14357 31.4018C6.30442 31.5187 6.49475 31.5883 6.69308 31.6028C6.8914 31.6173 7.08983 31.576 7.26595 31.4837L15.9998 26.8907L24.7337 31.4837C24.9098 31.576 25.1082 31.6173 25.3066 31.6028C25.5049 31.5883 25.6952 31.5187 25.8561 31.4018C26.0169 31.2849 26.1419 31.1253 26.2169 30.9411C26.2918 30.7569 26.3138 30.5555 26.2804 30.3595L24.6121 20.6315L31.6777 13.7472C31.8203 13.6083 31.9212 13.4323 31.969 13.239C32.0167 13.0457 32.0095 12.8429 31.948 12.6536C31.8865 12.4643 31.7732 12.2959 31.621 12.1676C31.4688 12.0392 31.2838 11.9561 31.0868 11.9275L21.3225 10.5088L16.9556 1.66186Z" fill="#8A92A6"/>
</g>
<defs>
<clipPath id="clip0_329_119">
<rect width="32" height="32" fill="white"/>
</clipPath>
</defs>
</svg>
