<svg width="18" height="19" viewBox="0 0 18 19" fill="none" xmlns="http://www.w3.org/2000/svg">
<g clip-path="url(#clip0_49_692)">
<path fill-rule="evenodd" clip-rule="evenodd" d="M8.35714 0.731934C7.84565 0.731934 7.35512 0.935122 6.99344 1.2968C6.63176 1.65848 6.42857 2.14902 6.42857 2.66051V3.94622C6.42827 4.4022 6.58955 4.84353 6.88377 5.19189C7.17798 5.54024 7.58612 5.77308 8.03572 5.84908V8.12479H3.85714C3.26041 8.12479 2.68811 8.36184 2.26615 8.7838C1.8442 9.20576 1.60714 9.77805 1.60714 10.3748V12.3291C1.15754 12.4051 0.749413 12.6379 0.455194 12.9863C0.160976 13.3346 -0.000297493 13.776 4.11981e-07 14.2319V15.5176C4.11981e-07 16.0291 0.203189 16.5197 0.564866 16.8814C0.926543 17.243 1.41708 17.4462 1.92857 17.4462H3.21429C3.72578 17.4462 4.21631 17.243 4.57799 16.8814C4.93967 16.5197 5.14286 16.0291 5.14286 15.5176V14.2319C5.14316 13.776 4.98188 13.3346 4.68766 12.9863C4.39345 12.6379 3.98531 12.4051 3.53571 12.3291V10.3748C3.53571 10.2895 3.56958 10.2078 3.62986 10.1475C3.69014 10.0872 3.7719 10.0534 3.85714 10.0534H8.03572V12.3291C7.58612 12.4051 7.17798 12.6379 6.88377 12.9863C6.58955 13.3346 6.42827 13.776 6.42857 14.2319V15.5176C6.42857 16.0291 6.63176 16.5197 6.99344 16.8814C7.35512 17.243 7.84565 17.4462 8.35714 17.4462H9.64286C10.1543 17.4462 10.6449 17.243 11.0066 16.8814C11.3682 16.5197 11.5714 16.0291 11.5714 15.5176V14.2319C11.5717 13.776 11.4105 13.3346 11.1162 12.9863C10.822 12.6379 10.4139 12.4051 9.96429 12.3291V10.0534H14.1429C14.2281 10.0534 14.3099 10.0872 14.3701 10.1475C14.4304 10.2078 14.4643 10.2895 14.4643 10.3748V12.3291C14.0147 12.4051 13.6066 12.6379 13.3123 12.9863C13.0181 13.3346 12.8568 13.776 12.8571 14.2319V15.5176C12.8571 16.0291 13.0603 16.5197 13.422 16.8814C13.7837 17.243 14.2742 17.4462 14.7857 17.4462H16.0714C16.5829 17.4462 17.0735 17.243 17.4351 16.8814C17.7968 16.5197 18 16.0291 18 15.5176V14.2319C18.0003 13.776 17.839 13.3346 17.5448 12.9863C17.2506 12.6379 16.8425 12.4051 16.3929 12.3291V10.3748C16.3929 9.77805 16.1558 9.20576 15.7338 8.7838C15.3119 8.36184 14.7396 8.12479 14.1429 8.12479H9.96429V5.84908C10.4139 5.77308 10.822 5.54024 11.1162 5.19189C11.4105 4.84353 11.5717 4.4022 11.5714 3.94622V2.66051C11.5714 2.14902 11.3682 1.65848 11.0066 1.2968C10.6449 0.935122 10.1543 0.731934 9.64286 0.731934H8.35714Z" fill="#605DAA"/>
</g>
<defs>
<clipPath id="clip0_49_692">
<rect width="18" height="18" fill="white" transform="translate(0 0.0888672)"/>
</clipPath>
</defs>
</svg>
