<svg width="309" height="200" viewBox="0 0 309 200" fill="none" xmlns="http://www.w3.org/2000/svg">
<rect x="0.5" y="0.5" width="308" height="199" rx="15.5" fill="#F8F9FF"/>
<rect x="0.5" y="0.5" width="308" height="199" rx="15.5" stroke="#EDF0FF"/>
<path d="M16.4972 17.593V15.8182H24.8594V17.593H21.7422V26H19.6143V17.593H16.4972ZM25.4038 26V18.3636H27.457V19.696H27.5366C27.6758 19.2221 27.9094 18.8641 28.2376 18.6222C28.5657 18.3769 28.9435 18.2543 29.3711 18.2543C29.4772 18.2543 29.5915 18.2609 29.7141 18.2741C29.8368 18.2874 29.9445 18.3056 30.0373 18.3288V20.2081C29.9379 20.1783 29.8003 20.1518 29.6246 20.1286C29.449 20.1054 29.2882 20.0938 29.1424 20.0938C28.8308 20.0938 28.5524 20.1617 28.3072 20.2976C28.0652 20.4302 27.873 20.6158 27.7305 20.8544C27.5913 21.093 27.5217 21.3681 27.5217 21.6797V26H25.4038ZM33.0911 26.1442C32.6039 26.1442 32.1697 26.0597 31.7885 25.8906C31.4074 25.7183 31.1058 25.4647 30.8837 25.13C30.665 24.7919 30.5556 24.371 30.5556 23.8672C30.5556 23.4429 30.6335 23.0866 30.7892 22.7983C30.945 22.5099 31.1571 22.2779 31.4256 22.1023C31.6941 21.9266 31.999 21.794 32.3404 21.7045C32.6851 21.6151 33.0463 21.5521 33.4242 21.5156C33.8683 21.4692 34.2263 21.4261 34.498 21.3864C34.7698 21.3433 34.967 21.2803 35.0897 21.1974C35.2123 21.1146 35.2736 20.992 35.2736 20.8295V20.7997C35.2736 20.4848 35.1742 20.2412 34.9753 20.0689C34.7798 19.8965 34.5014 19.8104 34.1401 19.8104C33.7589 19.8104 33.4557 19.8949 33.2303 20.0639C33.0049 20.2296 32.8558 20.4384 32.7828 20.6903L30.824 20.5312C30.9235 20.0672 31.119 19.6662 31.4107 19.3281C31.7024 18.9867 32.0785 18.7249 32.5392 18.5426C33.0033 18.357 33.5402 18.2642 34.15 18.2642C34.5743 18.2642 34.9803 18.3139 35.3681 18.4134C35.7592 18.5128 36.1055 18.6669 36.4071 18.8757C36.7121 19.0845 36.9524 19.353 37.128 19.6811C37.3037 20.0059 37.3915 20.3954 37.3915 20.8494V26H35.383V24.9411H35.3233C35.2007 25.1797 35.0366 25.3902 34.8311 25.5724C34.6257 25.7514 34.3787 25.8923 34.0904 25.995C33.802 26.0945 33.4689 26.1442 33.0911 26.1442ZM33.6976 24.6825C34.0092 24.6825 34.2843 24.6212 34.5229 24.4986C34.7615 24.3726 34.9488 24.2036 35.0847 23.9915C35.2206 23.7794 35.2885 23.5391 35.2885 23.2706V22.4602C35.2222 22.5033 35.1311 22.5431 35.0151 22.5795C34.9024 22.6127 34.7748 22.6442 34.6323 22.674C34.4898 22.7005 34.3472 22.7254 34.2047 22.7486C34.0622 22.7685 33.9329 22.7867 33.8169 22.8033C33.5684 22.8397 33.3513 22.8977 33.1657 22.9773C32.9801 23.0568 32.8359 23.1645 32.7331 23.3004C32.6304 23.433 32.579 23.5987 32.579 23.7976C32.579 24.0859 32.6834 24.3063 32.8922 24.4588C33.1043 24.608 33.3728 24.6825 33.6976 24.6825ZM41.1525 21.5852V26H39.0346V18.3636H41.0531V19.7109H41.1426C41.3116 19.2668 41.595 18.9155 41.9927 18.657C42.3904 18.3951 42.8727 18.2642 43.4395 18.2642C43.9698 18.2642 44.4321 18.3802 44.8265 18.6122C45.2209 18.8442 45.5275 19.1757 45.7463 19.6065C45.965 20.0341 46.0744 20.5445 46.0744 21.1378V26H43.9565V21.5156C43.9598 21.0483 43.8405 20.6837 43.5985 20.4219C43.3566 20.1567 43.0235 20.0241 42.5993 20.0241C42.3142 20.0241 42.0623 20.0855 41.8436 20.2081C41.6281 20.3307 41.4591 20.5097 41.3365 20.745C41.2172 20.977 41.1558 21.2571 41.1525 21.5852ZM54.0973 20.5412L52.1584 20.6605C52.1252 20.4948 52.054 20.3456 51.9446 20.2131C51.8352 20.0772 51.6911 19.9695 51.5121 19.8899C51.3364 19.8071 51.1259 19.7656 50.8807 19.7656C50.5526 19.7656 50.2758 19.8352 50.0504 19.9744C49.825 20.1103 49.7124 20.2926 49.7124 20.5213C49.7124 20.7036 49.7853 20.8577 49.9311 20.9837C50.0769 21.1096 50.3272 21.2107 50.6818 21.2869L52.0639 21.5653C52.8063 21.7178 53.3598 21.9631 53.7244 22.3011C54.089 22.6392 54.2713 23.0833 54.2713 23.6335C54.2713 24.134 54.1238 24.5732 53.8288 24.951C53.5372 25.3288 53.1361 25.6238 52.6257 25.8359C52.1186 26.0447 51.5336 26.1491 50.8707 26.1491C49.8598 26.1491 49.0545 25.9387 48.4545 25.5178C47.858 25.0935 47.5083 24.5168 47.4055 23.7876L49.4886 23.6783C49.5516 23.9865 49.7041 24.2218 49.946 24.3842C50.188 24.5433 50.4979 24.6229 50.8757 24.6229C51.2469 24.6229 51.5452 24.5516 51.7706 24.4091C51.9993 24.2633 52.1153 24.076 52.1186 23.8473C52.1153 23.6551 52.0341 23.4976 51.875 23.375C51.7159 23.2491 51.4706 23.1529 51.1392 23.0866L49.8168 22.8232C49.071 22.674 48.5159 22.4155 48.1513 22.0476C47.79 21.6797 47.6094 21.2107 47.6094 20.6406C47.6094 20.1501 47.742 19.7275 48.0071 19.3729C48.2756 19.0182 48.6518 18.7448 49.1357 18.5526C49.6229 18.3603 50.1929 18.2642 50.8459 18.2642C51.8104 18.2642 52.5694 18.468 53.1229 18.8757C53.6797 19.2834 54.0045 19.8385 54.0973 20.5412ZM57.7825 26.1442C57.2953 26.1442 56.8611 26.0597 56.4799 25.8906C56.0988 25.7183 55.7972 25.4647 55.5751 25.13C55.3564 24.7919 55.247 24.371 55.247 23.8672C55.247 23.4429 55.3249 23.0866 55.4806 22.7983C55.6364 22.5099 55.8485 22.2779 56.117 22.1023C56.3855 21.9266 56.6904 21.794 57.0318 21.7045C57.3765 21.6151 57.7377 21.5521 58.1156 21.5156C58.5597 21.4692 58.9177 21.4261 59.1895 21.3864C59.4612 21.3433 59.6584 21.2803 59.7811 21.1974C59.9037 21.1146 59.965 20.992 59.965 20.8295V20.7997C59.965 20.4848 59.8656 20.2412 59.6667 20.0689C59.4712 19.8965 59.1928 19.8104 58.8315 19.8104C58.4503 19.8104 58.1471 19.8949 57.9217 20.0639C57.6963 20.2296 57.5472 20.4384 57.4743 20.6903L55.5154 20.5312C55.6149 20.0672 55.8104 19.6662 56.1021 19.3281C56.3938 18.9867 56.7699 18.7249 57.2306 18.5426C57.6947 18.357 58.2316 18.2642 58.8414 18.2642C59.2657 18.2642 59.6717 18.3139 60.0595 18.4134C60.4506 18.5128 60.7969 18.6669 61.0985 18.8757C61.4035 19.0845 61.6438 19.353 61.8194 19.6811C61.9951 20.0059 62.0829 20.3954 62.0829 20.8494V26H60.0744V24.9411H60.0147C59.8921 25.1797 59.728 25.3902 59.5225 25.5724C59.3171 25.7514 59.0701 25.8923 58.7818 25.995C58.4934 26.0945 58.1603 26.1442 57.7825 26.1442ZM58.389 24.6825C58.7006 24.6825 58.9757 24.6212 59.2143 24.4986C59.4529 24.3726 59.6402 24.2036 59.7761 23.9915C59.912 23.7794 59.9799 23.5391 59.9799 23.2706V22.4602C59.9136 22.5033 59.8225 22.5431 59.7065 22.5795C59.5938 22.6127 59.4662 22.6442 59.3237 22.674C59.1812 22.7005 59.0386 22.7254 58.8961 22.7486C58.7536 22.7685 58.6243 22.7867 58.5083 22.8033C58.2598 22.8397 58.0427 22.8977 57.8571 22.9773C57.6715 23.0568 57.5273 23.1645 57.4245 23.3004C57.3218 23.433 57.2704 23.5987 57.2704 23.7976C57.2704 24.0859 57.3748 24.3063 57.5836 24.4588C57.7958 24.608 58.0642 24.6825 58.389 24.6825ZM67.1763 26.1491C66.3941 26.1491 65.7213 25.9834 65.1578 25.652C64.5977 25.3172 64.1668 24.8532 63.8652 24.2599C63.5669 23.6667 63.4178 22.9839 63.4178 22.2116C63.4178 21.4295 63.5686 20.7434 63.8702 20.1534C64.1751 19.5601 64.6077 19.0978 65.1678 18.7663C65.7279 18.4316 66.3941 18.2642 67.1664 18.2642C67.8326 18.2642 68.4159 18.3852 68.9164 18.6271C69.4168 18.8691 69.8129 19.2088 70.1046 19.6463C70.3962 20.0838 70.557 20.5975 70.5868 21.1875H68.5882C68.5319 20.8063 68.3828 20.4998 68.1408 20.2678C67.9022 20.0324 67.589 19.9148 67.2012 19.9148C66.873 19.9148 66.5864 20.0043 66.3411 20.1832C66.0991 20.3589 65.9102 20.6158 65.7743 20.9538C65.6384 21.2919 65.5705 21.7012 65.5705 22.1818C65.5705 22.669 65.6368 23.0833 65.7694 23.4247C65.9052 23.7661 66.0958 24.0263 66.3411 24.2053C66.5864 24.3842 66.873 24.4737 67.2012 24.4737C67.4431 24.4737 67.6602 24.424 67.8525 24.3246C68.048 24.2251 68.2087 24.081 68.3347 23.892C68.464 23.6998 68.5485 23.4695 68.5882 23.201H70.5868C70.5537 23.7843 70.3946 24.2981 70.1096 24.7422C69.8278 25.183 69.4384 25.5277 68.9412 25.7763C68.4441 26.0249 67.8558 26.1491 67.1763 26.1491ZM76.0046 18.3636V19.9545H71.4059V18.3636H76.0046ZM72.4499 16.5341H74.5678V23.6534C74.5678 23.849 74.5977 24.0014 74.6573 24.1108C74.717 24.2169 74.7998 24.2914 74.9059 24.3345C75.0153 24.3776 75.1412 24.3991 75.2837 24.3991C75.3832 24.3991 75.4826 24.3909 75.582 24.3743C75.6815 24.3544 75.7577 24.3395 75.8107 24.3295L76.1438 25.9055C76.0378 25.9387 75.8886 25.9768 75.6964 26.0199C75.5041 26.0663 75.2705 26.0945 74.9954 26.1044C74.485 26.1243 74.0375 26.0563 73.6531 25.9006C73.2719 25.7448 72.9753 25.5028 72.7631 25.1747C72.551 24.8466 72.4466 24.4323 72.4499 23.9318V16.5341ZM77.3842 26V18.3636H79.5021V26H77.3842ZM78.4482 17.3793C78.1333 17.3793 77.8632 17.2749 77.6378 17.0661C77.4157 16.8539 77.3047 16.6004 77.3047 16.3054C77.3047 16.0137 77.4157 15.7635 77.6378 15.5547C77.8632 15.3426 78.1333 15.2365 78.4482 15.2365C78.763 15.2365 79.0315 15.3426 79.2536 15.5547C79.4789 15.7635 79.5916 16.0137 79.5916 16.3054C79.5916 16.6004 79.4789 16.8539 79.2536 17.0661C79.0315 17.2749 78.763 17.3793 78.4482 17.3793ZM84.649 26.1491C83.8767 26.1491 83.2089 25.9851 82.6454 25.657C82.0853 25.3255 81.6528 24.8648 81.3478 24.2749C81.0429 23.6816 80.8904 22.9938 80.8904 22.2116C80.8904 21.4228 81.0429 20.7334 81.3478 20.1435C81.6528 19.5502 82.0853 19.0895 82.6454 18.7614C83.2089 18.4299 83.8767 18.2642 84.649 18.2642C85.4212 18.2642 86.0874 18.4299 86.6475 18.7614C87.211 19.0895 87.6452 19.5502 87.9501 20.1435C88.255 20.7334 88.4075 21.4228 88.4075 22.2116C88.4075 22.9938 88.255 23.6816 87.9501 24.2749C87.6452 24.8648 87.211 25.3255 86.6475 25.657C86.0874 25.9851 85.4212 26.1491 84.649 26.1491ZM84.6589 24.5085C85.0102 24.5085 85.3036 24.4091 85.5389 24.2102C85.7742 24.008 85.9515 23.733 86.0708 23.3849C86.1935 23.0369 86.2548 22.6409 86.2548 22.1967C86.2548 21.7526 86.1935 21.3565 86.0708 21.0085C85.9515 20.6605 85.7742 20.3854 85.5389 20.1832C85.3036 19.9811 85.0102 19.88 84.6589 19.88C84.3043 19.88 84.006 19.9811 83.764 20.1832C83.5254 20.3854 83.3448 20.6605 83.2221 21.0085C83.1028 21.3565 83.0431 21.7526 83.0431 22.1967C83.0431 22.6409 83.1028 23.0369 83.2221 23.3849C83.3448 23.733 83.5254 24.008 83.764 24.2102C84.006 24.4091 84.3043 24.5085 84.6589 24.5085ZM91.9025 21.5852V26H89.7846V18.3636H91.8031V19.7109H91.8926C92.0616 19.2668 92.345 18.9155 92.7427 18.657C93.1404 18.3951 93.6227 18.2642 94.1895 18.2642C94.7198 18.2642 95.1821 18.3802 95.5765 18.6122C95.9709 18.8442 96.2775 19.1757 96.4963 19.6065C96.715 20.0341 96.8244 20.5445 96.8244 21.1378V26H94.7065V21.5156C94.7098 21.0483 94.5905 20.6837 94.3485 20.4219C94.1066 20.1567 93.7735 20.0241 93.3493 20.0241C93.0642 20.0241 92.8123 20.0855 92.5936 20.2081C92.3781 20.3307 92.2091 20.5097 92.0865 20.745C91.9672 20.977 91.9058 21.2571 91.9025 21.5852ZM104.847 20.5412L102.908 20.6605C102.875 20.4948 102.804 20.3456 102.695 20.2131C102.585 20.0772 102.441 19.9695 102.262 19.8899C102.086 19.8071 101.876 19.7656 101.631 19.7656C101.303 19.7656 101.026 19.8352 100.8 19.9744C100.575 20.1103 100.462 20.2926 100.462 20.5213C100.462 20.7036 100.535 20.8577 100.681 20.9837C100.827 21.1096 101.077 21.2107 101.432 21.2869L102.814 21.5653C103.556 21.7178 104.11 21.9631 104.474 22.3011C104.839 22.6392 105.021 23.0833 105.021 23.6335C105.021 24.134 104.874 24.5732 104.579 24.951C104.287 25.3288 103.886 25.6238 103.376 25.8359C102.869 26.0447 102.284 26.1491 101.621 26.1491C100.61 26.1491 99.8045 25.9387 99.2045 25.5178C98.608 25.0935 98.2583 24.5168 98.1555 23.7876L100.239 23.6783C100.302 23.9865 100.454 24.2218 100.696 24.3842C100.938 24.5433 101.248 24.6229 101.626 24.6229C101.997 24.6229 102.295 24.5516 102.521 24.4091C102.749 24.2633 102.865 24.076 102.869 23.8473C102.865 23.6551 102.784 23.4976 102.625 23.375C102.466 23.2491 102.221 23.1529 101.889 23.0866L100.567 22.8232C99.821 22.674 99.2659 22.4155 98.9013 22.0476C98.54 21.6797 98.3594 21.2107 98.3594 20.6406C98.3594 20.1501 98.492 19.7275 98.7571 19.3729C99.0256 19.0182 99.4018 18.7448 99.8857 18.5526C100.373 18.3603 100.943 18.2642 101.596 18.2642C102.56 18.2642 103.319 18.468 103.873 18.8757C104.43 19.2834 104.754 19.8385 104.847 20.5412ZM109.247 17.593V15.8182H117.609V17.593H114.492V26H112.364V17.593H109.247ZM119.379 28.8636C119.111 28.8636 118.859 28.8421 118.624 28.799C118.392 28.7592 118.199 28.7079 118.047 28.6449L118.524 27.0639C118.773 27.1402 118.996 27.1816 119.195 27.1882C119.397 27.1948 119.571 27.1484 119.717 27.049C119.866 26.9496 119.987 26.7805 120.08 26.5419L120.205 26.2188L117.465 18.3636H119.692L121.273 23.9716H121.353L122.949 18.3636H125.191L122.223 26.8253C122.08 27.2363 121.887 27.5942 121.641 27.8991C121.399 28.2074 121.093 28.4444 120.722 28.6101C120.35 28.7791 119.903 28.8636 119.379 28.8636ZM126.275 28.8636V18.3636H128.363V19.6463H128.457C128.55 19.4408 128.684 19.232 128.86 19.0199C129.039 18.8045 129.271 18.6255 129.556 18.483C129.844 18.3371 130.202 18.2642 130.63 18.2642C131.187 18.2642 131.701 18.41 132.171 18.7017C132.642 18.9901 133.018 19.4259 133.3 20.0092C133.581 20.5893 133.722 21.3168 133.722 22.1918C133.722 23.0436 133.585 23.7628 133.31 24.3494C133.038 24.9328 132.667 25.3752 132.196 25.6768C131.729 25.9751 131.205 26.1243 130.625 26.1243C130.214 26.1243 129.864 26.0563 129.576 25.9205C129.291 25.7846 129.057 25.6139 128.875 25.4084C128.693 25.1996 128.554 24.9891 128.457 24.777H128.393V28.8636H126.275ZM128.348 22.1818C128.348 22.6359 128.411 23.032 128.537 23.37C128.663 23.7081 128.845 23.9716 129.084 24.1605C129.322 24.3461 129.612 24.4389 129.954 24.4389C130.299 24.4389 130.59 24.3445 130.829 24.1555C131.067 23.9633 131.248 23.6982 131.371 23.3601C131.497 23.0187 131.56 22.6259 131.56 22.1818C131.56 21.741 131.498 21.3532 131.376 21.0185C131.253 20.6837 131.072 20.4219 130.834 20.233C130.595 20.044 130.302 19.9496 129.954 19.9496C129.609 19.9496 129.317 20.0407 129.079 20.223C128.844 20.4053 128.663 20.6638 128.537 20.9986C128.411 21.3333 128.348 21.7277 128.348 22.1818ZM138.614 26.1491C137.829 26.1491 137.153 25.9901 136.586 25.6719C136.022 25.3504 135.588 24.8963 135.283 24.3097C134.978 23.7197 134.826 23.022 134.826 22.2166C134.826 21.4311 134.978 20.7417 135.283 20.1484C135.588 19.5552 136.018 19.0928 136.571 18.7614C137.128 18.4299 137.781 18.2642 138.53 18.2642C139.034 18.2642 139.503 18.3454 139.937 18.5078C140.374 18.6669 140.755 18.9072 141.08 19.2287C141.408 19.5502 141.664 19.9545 141.846 20.4418C142.028 20.9257 142.119 21.4924 142.119 22.142V22.7237H135.671V21.4112H140.126C140.126 21.1063 140.059 20.8362 139.927 20.6009C139.794 20.3655 139.61 20.1816 139.375 20.049C139.143 19.9131 138.873 19.8452 138.565 19.8452C138.243 19.8452 137.958 19.9197 137.71 20.0689C137.464 20.2147 137.272 20.4119 137.133 20.6605C136.994 20.9058 136.922 21.1792 136.919 21.4808V22.7287C136.919 23.1065 136.989 23.433 137.128 23.7081C137.27 23.9832 137.471 24.1953 137.729 24.3445C137.988 24.4936 138.295 24.5682 138.649 24.5682C138.884 24.5682 139.1 24.535 139.295 24.4688C139.491 24.4025 139.658 24.303 139.798 24.1705C139.937 24.0379 140.043 23.8755 140.116 23.6832L142.075 23.8125C141.975 24.2831 141.771 24.6941 141.463 25.0455C141.158 25.3935 140.764 25.6652 140.28 25.8608C139.799 26.053 139.244 26.1491 138.614 26.1491Z" fill="black"/>
<mask id="mask0_9_22458" style="mask-type:alpha" maskUnits="userSpaceOnUse" x="292" y="17" width="8" height="9">
<rect x="292.186" y="17.7095" width="7.53488" height="7.53488" fill="#D9D9D9"/>
</mask>
<g mask="url(#mask0_9_22458)">
<path d="M295.954 23.9883C295.781 23.9883 295.633 23.9269 295.51 23.8039C295.387 23.6809 295.326 23.5331 295.326 23.3604C295.326 23.1878 295.387 23.0399 295.51 22.917C295.633 22.794 295.781 22.7325 295.954 22.7325C296.126 22.7325 296.274 22.794 296.397 22.917C296.52 23.0399 296.581 23.1878 296.581 23.3604C296.581 23.5331 296.52 23.6809 296.397 23.8039C296.274 23.9269 296.126 23.9883 295.954 23.9883ZM295.954 22.1046C295.781 22.1046 295.633 22.0431 295.51 21.9202C295.387 21.7972 295.326 21.6494 295.326 21.4767C295.326 21.304 295.387 21.1562 295.51 21.0333C295.633 20.9103 295.781 20.8488 295.954 20.8488C296.126 20.8488 296.274 20.9103 296.397 21.0333C296.52 21.1562 296.581 21.304 296.581 21.4767C296.581 21.6494 296.52 21.7972 296.397 21.9202C296.274 22.0431 296.126 22.1046 295.954 22.1046ZM295.954 20.2209C295.781 20.2209 295.633 20.1594 295.51 20.0365C295.387 19.9135 295.326 19.7657 295.326 19.593C295.326 19.4203 295.387 19.2725 295.51 19.1495C295.633 19.0266 295.781 18.9651 295.954 18.9651C296.126 18.9651 296.274 19.0266 296.397 19.1495C296.52 19.2725 296.581 19.4203 296.581 19.593C296.581 19.7657 296.52 19.9135 296.397 20.0365C296.274 20.1594 296.126 20.2209 295.954 20.2209Z" fill="black"/>
</g>
<path d="M227.445 41C264.154 41 293.913 70.7587 293.913 107.468C293.913 144.177 264.154 173.936 227.445 173.936C190.736 173.936 160.977 144.177 160.977 107.468C160.977 70.7587 190.736 41 227.445 41ZM227.445 147.349C249.47 147.349 267.326 129.494 267.326 107.468C267.326 85.4424 249.47 67.5872 227.445 67.5872C205.419 67.5872 187.564 85.4425 187.564 107.468C187.564 129.494 205.419 147.349 227.445 147.349Z" fill="#B9C3FD"/>
<path d="M227.445 41C241.481 41 255.158 45.4437 266.514 53.6943C277.87 61.9448 286.322 73.5786 290.66 86.9283C294.997 100.278 294.997 114.658 290.66 128.008C286.322 141.357 277.87 152.991 266.514 161.242L250.886 139.732C257.7 134.782 262.771 127.802 265.374 119.792C267.976 111.782 267.976 103.154 265.374 95.1442C262.771 87.1344 257.7 80.1541 250.886 75.2038C244.073 70.2534 235.867 67.5872 227.445 67.5872L227.445 41Z" fill="#6562AF"/>
<rect x="12" y="88.5662" width="8.48806" height="8.48806" rx="2.12202" fill="#B9C3FD"/>
<path d="M33.6663 92.1804C33.6663 93.1571 33.49 94.001 33.1374 94.7124C32.7847 95.4238 32.3009 95.9723 31.686 96.3582C31.0711 96.744 30.3688 96.9369 29.5791 96.9369C28.7893 96.9369 28.087 96.744 27.4721 96.3582C26.8572 95.9723 26.3734 95.4238 26.0208 94.7124C25.6681 94.001 25.4918 93.1571 25.4918 92.1804C25.4918 91.2038 25.6681 90.3599 26.0208 89.6485C26.3734 88.9371 26.8572 88.3886 27.4721 88.0027C28.087 87.6169 28.7893 87.424 29.5791 87.424C30.3688 87.424 31.0711 87.6169 31.686 88.0027C32.3009 88.3886 32.7847 88.9371 33.1374 89.6485C33.49 90.3599 33.6663 91.2038 33.6663 92.1804ZM32.5812 92.1804C32.5812 91.3787 32.4471 90.702 32.1788 90.1504C31.9136 89.5988 31.5534 89.1813 31.0982 88.898C30.6461 88.6146 30.1397 88.4729 29.5791 88.4729C29.0184 88.4729 28.5105 88.6146 28.0554 88.898C27.6032 89.1813 27.243 89.5988 26.9748 90.1504C26.7095 90.702 26.5769 91.3787 26.5769 92.1804C26.5769 92.9822 26.7095 93.6589 26.9748 94.2105C27.243 94.7621 27.6032 95.1796 28.0554 95.4629C28.5105 95.7463 29.0184 95.8879 29.5791 95.8879C30.1397 95.8879 30.6461 95.7463 31.0982 95.4629C31.5534 95.1796 31.9136 94.7621 32.1788 94.2105C32.4471 93.6589 32.5812 92.9822 32.5812 92.1804ZM36.4741 92.6326V96.8103H35.4071V89.8655H36.4379V90.9506H36.5284C36.6911 90.598 36.9383 90.3146 37.2699 90.1006C37.6014 89.8836 38.0294 89.7751 38.5539 89.7751C39.0241 89.7751 39.4356 89.8716 39.7882 90.0645C40.1409 90.2544 40.4152 90.5437 40.6111 90.9326C40.8071 91.3184 40.905 91.8067 40.905 92.3975V96.8103H39.838V92.4698C39.838 91.9242 39.6963 91.4992 39.413 91.1948C39.1296 90.8873 38.7408 90.7336 38.2465 90.7336C37.9059 90.7336 37.6014 90.8075 37.3332 90.9552C37.0679 91.1029 36.8584 91.3184 36.7047 91.6017C36.551 91.8851 36.4741 92.2287 36.4741 92.6326ZM43.9219 87.5506V96.8103H42.8548V87.5506H43.9219ZM45.8762 96.8103V89.8655H46.9433V96.8103H45.8762ZM46.4188 88.7081C46.2108 88.7081 46.0315 88.6372 45.8808 88.4956C45.7331 88.3539 45.6592 88.1836 45.6592 87.9846C45.6592 87.7857 45.7331 87.6154 45.8808 87.4737C46.0315 87.3321 46.2108 87.2612 46.4188 87.2612C46.6268 87.2612 46.8046 87.3321 46.9523 87.4737C47.103 87.6154 47.1784 87.7857 47.1784 87.9846C47.1784 88.1836 47.103 88.3539 46.9523 88.4956C46.8046 88.6372 46.6268 88.7081 46.4188 88.7081ZM49.9647 92.6326V96.8103H48.8976V89.8655H49.9285V90.9506H50.0189C50.1817 90.598 50.4288 90.3146 50.7604 90.1006C51.092 89.8836 51.52 89.7751 52.0445 89.7751C52.5147 89.7751 52.9261 89.8716 53.2788 90.0645C53.6315 90.2544 53.9058 90.5437 54.1017 90.9326C54.2976 91.3184 54.3956 91.8067 54.3956 92.3975V96.8103H53.3285V92.4698C53.3285 91.9242 53.1869 91.4992 52.9035 91.1948C52.6202 90.8873 52.2314 90.7336 51.737 90.7336C51.3964 90.7336 51.092 90.8075 50.8237 90.9552C50.5585 91.1029 50.349 91.3184 50.1952 91.6017C50.0415 91.8851 49.9647 92.2287 49.9647 92.6326ZM59.2571 96.955C58.588 96.955 58.0108 96.8073 57.5255 96.5119C57.0432 96.2135 56.6709 95.7975 56.4087 95.264C56.1495 94.7275 56.0199 94.1035 56.0199 93.3922C56.0199 92.6808 56.1495 92.0539 56.4087 91.5113C56.6709 90.9657 57.0357 90.5407 57.5029 90.2363C57.9731 89.9288 58.5217 89.7751 59.1486 89.7751C59.5103 89.7751 59.8675 89.8354 60.2202 89.9559C60.5729 90.0765 60.8939 90.2724 61.1832 90.5437C61.4726 90.812 61.7032 91.1677 61.875 91.6108C62.0468 92.0539 62.1327 92.5994 62.1327 93.2475V93.6996H56.7794V92.7773H61.0476C61.0476 92.3854 60.9692 92.0358 60.8125 91.7283C60.6588 91.4209 60.4387 91.1782 60.1524 91.0004C59.869 90.8225 59.5345 90.7336 59.1486 90.7336C58.7236 90.7336 58.3559 90.8391 58.0454 91.0501C57.738 91.2581 57.5014 91.5294 57.3356 91.864C57.1698 92.1985 57.0869 92.5572 57.0869 92.94V93.5549C57.0869 94.0794 57.1773 94.524 57.3582 94.8887C57.542 95.2504 57.7967 95.5262 58.1223 95.7161C58.4478 95.903 58.8261 95.9965 59.2571 95.9965C59.5375 95.9965 59.7907 95.9573 60.0167 95.8789C60.2458 95.7975 60.4432 95.677 60.609 95.5172C60.7748 95.3544 60.9029 95.1525 60.9933 94.9113L62.0242 95.2007C61.9157 95.5504 61.7333 95.8578 61.4771 96.1231C61.2209 96.3853 60.9044 96.5903 60.5276 96.738C60.1509 96.8826 59.7274 96.955 59.2571 96.955ZM67.4815 96.8103V87.5506H70.6102C71.3367 87.5506 71.9305 87.6817 72.3916 87.944C72.8558 88.2032 73.1995 88.5543 73.4225 88.9974C73.6456 89.4405 73.7571 89.9348 73.7571 90.4804C73.7571 91.026 73.6456 91.5218 73.4225 91.9679C73.2025 92.4141 72.8619 92.7697 72.4007 93.035C71.9395 93.2972 71.3487 93.4283 70.6283 93.4283H68.3857V92.4336H70.5921C71.0895 92.4336 71.4889 92.3477 71.7903 92.1759C72.0917 92.0041 72.3103 91.772 72.4459 91.4796C72.5845 91.1842 72.6539 90.8512 72.6539 90.4804C72.6539 90.1097 72.5845 89.7781 72.4459 89.4857C72.3103 89.1933 72.0902 88.9643 71.7858 88.7985C71.4813 88.6297 71.0774 88.5453 70.5741 88.5453H68.6028V96.8103H67.4815ZM77.4623 96.9731C77.0222 96.9731 76.6229 96.8902 76.2642 96.7244C75.9055 96.5556 75.6206 96.313 75.4096 95.9965C75.1986 95.677 75.0931 95.2911 75.0931 94.839C75.0931 94.4411 75.1715 94.1186 75.3282 93.8714C75.485 93.6212 75.6945 93.4253 75.9567 93.2837C76.219 93.142 76.5083 93.0365 76.8248 92.9672C77.1443 92.8948 77.4653 92.8376 77.7879 92.7954C78.2099 92.7411 78.552 92.7004 78.8142 92.6733C79.0795 92.6431 79.2724 92.5934 79.3929 92.5241C79.5165 92.4547 79.5783 92.3342 79.5783 92.1624V92.1262C79.5783 91.6801 79.4562 91.3335 79.2121 91.0863C78.9709 90.8391 78.6047 90.7155 78.1134 90.7155C77.604 90.7155 77.2046 90.8271 76.9152 91.0501C76.6259 91.2732 76.4224 91.5113 76.3049 91.7645L75.2921 91.4028C75.4729 90.9808 75.7141 90.6522 76.0155 90.4171C76.3199 90.179 76.6515 90.0132 77.0102 89.9198C77.3719 89.8233 77.7276 89.7751 78.0772 89.7751C78.3003 89.7751 78.5565 89.8022 78.8459 89.8565C79.1382 89.9077 79.4201 90.0147 79.6913 90.1775C79.9656 90.3403 80.1932 90.5859 80.3741 90.9145C80.5549 91.243 80.6453 91.6831 80.6453 92.2347V96.8103H79.5783V95.8699H79.5241C79.4517 96.0206 79.3311 96.1818 79.1623 96.3536C78.9936 96.5255 78.769 96.6716 78.4887 96.7922C78.2083 96.9128 77.8662 96.9731 77.4623 96.9731ZM77.6251 96.0145C78.0471 96.0145 78.4028 95.9317 78.6921 95.7659C78.9845 95.6001 79.2045 95.3861 79.3522 95.1238C79.503 94.8616 79.5783 94.5858 79.5783 94.2964V93.3198C79.5331 93.3741 79.4336 93.4238 79.2799 93.469C79.1292 93.5112 78.9544 93.5489 78.7554 93.5821C78.5595 93.6122 78.3681 93.6393 78.1812 93.6634C77.9973 93.6845 77.8481 93.7026 77.7336 93.7177C77.4563 93.7539 77.1971 93.8127 76.9559 93.894C76.7178 93.9724 76.5249 94.0915 76.3772 94.2512C76.2325 94.408 76.1602 94.622 76.1602 94.8933C76.1602 95.264 76.2973 95.5443 76.5716 95.7342C76.8489 95.9211 77.2001 96.0145 77.6251 96.0145ZM83.0315 99.4146C82.8506 99.4146 82.6894 99.3995 82.5477 99.3694C82.406 99.3423 82.3081 99.3151 82.2538 99.288L82.5251 98.3476C82.7843 98.4139 83.0134 98.438 83.2123 98.4199C83.4113 98.4018 83.5876 98.3129 83.7413 98.1531C83.8981 97.9964 84.0413 97.7417 84.1709 97.389L84.3698 96.8465L81.8017 89.8655H82.9591L84.8762 95.3996H84.9485L86.8656 89.8655H88.023L85.0751 97.8231C84.9425 98.1818 84.7782 98.4787 84.5823 98.7138C84.3864 98.9519 84.1588 99.1282 83.8996 99.2428C83.6434 99.3573 83.354 99.4146 83.0315 99.4146ZM89.4314 96.8103V89.8655H90.4623V90.9506H90.5527C90.6974 90.5799 90.931 90.292 91.2535 90.0871C91.5761 89.8791 91.9634 89.7751 92.4155 89.7751C92.8737 89.7751 93.255 89.8791 93.5594 90.0871C93.8669 90.292 94.1065 90.5799 94.2783 90.9506H94.3507C94.5285 90.592 94.7953 90.3071 95.1509 90.0961C95.5066 89.8821 95.9331 89.7751 96.4305 89.7751C97.0514 89.7751 97.5593 89.9695 97.9542 90.3583C98.349 90.7442 98.5465 91.3455 98.5465 92.1624V96.8103H97.4794V92.1624C97.4794 91.6499 97.3393 91.2837 97.0589 91.0637C96.7786 90.8436 96.4486 90.7336 96.0688 90.7336C95.5805 90.7336 95.2022 90.8813 94.9339 91.1767C94.6657 91.4691 94.5315 91.8398 94.5315 92.289V96.8103H93.4464V92.0539C93.4464 91.659 93.3183 91.341 93.0621 91.0998C92.8059 90.8557 92.4758 90.7336 92.0719 90.7336C91.7946 90.7336 91.5354 90.8075 91.2942 90.9552C91.0561 91.1029 90.8632 91.3078 90.7155 91.5701C90.5708 91.8293 90.4985 92.1292 90.4985 92.4698V96.8103H89.4314ZM103.409 96.955C102.74 96.955 102.163 96.8073 101.677 96.5119C101.195 96.2135 100.823 95.7975 100.561 95.264C100.301 94.7275 100.172 94.1035 100.172 93.3922C100.172 92.6808 100.301 92.0539 100.561 91.5113C100.823 90.9657 101.188 90.5407 101.655 90.2363C102.125 89.9288 102.674 89.7751 103.301 89.7751C103.662 89.7751 104.02 89.8354 104.372 89.9559C104.725 90.0765 105.046 90.2724 105.335 90.5437C105.625 90.812 105.855 91.1677 106.027 91.6108C106.199 92.0539 106.285 92.5994 106.285 93.2475V93.6996H100.931V92.7773H105.2C105.2 92.3854 105.121 92.0358 104.965 91.7283C104.811 91.4209 104.591 91.1782 104.304 91.0004C104.021 90.8225 103.686 90.7336 103.301 90.7336C102.876 90.7336 102.508 90.8391 102.197 91.0501C101.89 91.2581 101.653 91.5294 101.488 91.864C101.322 92.1985 101.239 92.5572 101.239 92.94V93.5549C101.239 94.0794 101.329 94.524 101.51 94.8887C101.694 95.2504 101.949 95.5262 102.274 95.7161C102.6 95.903 102.978 95.9965 103.409 95.9965C103.689 95.9965 103.943 95.9573 104.169 95.8789C104.398 95.7975 104.595 95.677 104.761 95.5172C104.927 95.3544 105.055 95.1525 105.145 94.9113L106.176 95.2007C106.068 95.5504 105.885 95.8578 105.629 96.1231C105.373 96.3853 105.056 96.5903 104.68 96.738C104.303 96.8826 103.879 96.955 103.409 96.955ZM108.975 92.6326V96.8103H107.908V89.8655H108.939V90.9506H109.029C109.192 90.598 109.439 90.3146 109.771 90.1006C110.102 89.8836 110.53 89.7751 111.055 89.7751C111.525 89.7751 111.936 89.8716 112.289 90.0645C112.642 90.2544 112.916 90.5437 113.112 90.9326C113.308 91.3184 113.406 91.8067 113.406 92.3975V96.8103H112.339V92.4698C112.339 91.9242 112.197 91.4992 111.914 91.1948C111.63 90.8873 111.242 90.7336 110.747 90.7336C110.407 90.7336 110.102 90.8075 109.834 90.9552C109.569 91.1029 109.359 91.3184 109.206 91.6017C109.052 91.8851 108.975 92.2287 108.975 92.6326ZM118.376 89.8655V90.7698H114.777V89.8655H118.376ZM115.826 88.2017H116.893V94.8209C116.893 95.1223 116.937 95.3484 117.024 95.4991C117.114 95.6468 117.229 95.7463 117.368 95.7975C117.509 95.8457 117.659 95.8699 117.815 95.8699C117.933 95.8699 118.029 95.8638 118.105 95.8518C118.18 95.8367 118.24 95.8247 118.286 95.8156L118.503 96.7741C118.43 96.8013 118.329 96.8284 118.2 96.8555C118.07 96.8857 117.906 96.9007 117.707 96.9007C117.405 96.9007 117.11 96.8359 116.821 96.7063C116.534 96.5767 116.296 96.3793 116.106 96.114C115.919 95.8488 115.826 95.5142 115.826 95.1103V88.2017Z" fill="black"/>
<rect x="12" y="119.056" width="8.48806" height="8.48806" rx="2.12202" fill="#6562AF"/>
<path d="M33.6663 122.67C33.6663 123.647 33.49 124.491 33.1374 125.202C32.7847 125.914 32.3009 126.462 31.686 126.848C31.0711 127.234 30.3688 127.427 29.5791 127.427C28.7893 127.427 28.087 127.234 27.4721 126.848C26.8572 126.462 26.3734 125.914 26.0208 125.202C25.6681 124.491 25.4918 123.647 25.4918 122.67C25.4918 121.694 25.6681 120.85 26.0208 120.138C26.3734 119.427 26.8572 118.878 27.4721 118.492C28.087 118.107 28.7893 117.914 29.5791 117.914C30.3688 117.914 31.0711 118.107 31.686 118.492C32.3009 118.878 32.7847 119.427 33.1374 120.138C33.49 120.85 33.6663 121.694 33.6663 122.67ZM32.5812 122.67C32.5812 121.868 32.4471 121.192 32.1788 120.64C31.9136 120.089 31.5534 119.671 31.0982 119.388C30.6461 119.104 30.1397 118.963 29.5791 118.963C29.0184 118.963 28.5105 119.104 28.0554 119.388C27.6032 119.671 27.243 120.089 26.9748 120.64C26.7095 121.192 26.5769 121.868 26.5769 122.67C26.5769 123.472 26.7095 124.149 26.9748 124.7C27.243 125.252 27.6032 125.669 28.0554 125.953C28.5105 126.236 29.0184 126.378 29.5791 126.378C30.1397 126.378 30.6461 126.236 31.0982 125.953C31.5534 125.669 31.9136 125.252 32.1788 124.7C32.4471 124.149 32.5812 123.472 32.5812 122.67ZM38.4997 120.355V121.26H34.756V120.355H38.4997ZM35.8773 127.3V119.397C35.8773 118.999 35.9707 118.667 36.1576 118.402C36.3445 118.137 36.5871 117.938 36.8855 117.805C37.184 117.673 37.4989 117.606 37.8305 117.606C38.0927 117.606 38.3068 117.627 38.4725 117.67C38.6383 117.712 38.7619 117.751 38.8433 117.787L38.5358 118.709C38.4816 118.691 38.4062 118.669 38.3098 118.642C38.2163 118.615 38.0927 118.601 37.939 118.601C37.5864 118.601 37.3316 118.69 37.1749 118.868C37.0212 119.046 36.9443 119.306 36.9443 119.65V127.3H35.8773ZM43.0877 120.355V121.26H39.344V120.355H43.0877ZM40.4653 127.3V119.397C40.4653 118.999 40.5588 118.667 40.7456 118.402C40.9325 118.137 41.1752 117.938 41.4736 117.805C41.772 117.673 42.087 117.606 42.4185 117.606C42.6808 117.606 42.8948 117.627 43.0606 117.67C43.2263 117.712 43.3499 117.751 43.4313 117.787L43.1239 118.709C43.0696 118.691 42.9943 118.669 42.8978 118.642C42.8044 118.615 42.6808 118.601 42.527 118.601C42.1744 118.601 41.9197 118.69 41.7629 118.868C41.6092 119.046 41.5324 119.306 41.5324 119.65V127.3H40.4653ZM45.6502 118.04V127.3H44.5831V118.04H45.6502ZM47.6045 127.3V120.355H48.6716V127.3H47.6045ZM48.1471 119.198C47.9391 119.198 47.7597 119.127 47.609 118.985C47.4613 118.844 47.3875 118.673 47.3875 118.474C47.3875 118.275 47.4613 118.105 47.609 117.963C47.7597 117.822 47.9391 117.751 48.1471 117.751C48.3551 117.751 48.5329 117.822 48.6806 117.963C48.8313 118.105 48.9067 118.275 48.9067 118.474C48.9067 118.673 48.8313 118.844 48.6806 118.985C48.5329 119.127 48.3551 119.198 48.1471 119.198ZM51.6929 123.122V127.3H50.6259V120.355H51.6568V121.44H51.7472C51.91 121.088 52.1571 120.804 52.4887 120.59C52.8203 120.373 53.2483 120.265 53.7728 120.265C54.243 120.265 54.6544 120.361 55.0071 120.554C55.3597 120.744 55.634 121.033 55.83 121.422C56.0259 121.808 56.1239 122.296 56.1239 122.887V127.3H55.0568V122.96C55.0568 122.414 54.9151 121.989 54.6318 121.685C54.3485 121.377 53.9596 121.223 53.4653 121.223C53.1247 121.223 52.8203 121.297 52.552 121.445C52.2867 121.593 52.0773 121.808 51.9235 122.091C51.7698 122.375 51.6929 122.718 51.6929 123.122ZM60.9854 127.445C60.3163 127.445 59.739 127.297 59.2537 127.002C58.7715 126.703 58.3992 126.287 58.137 125.754C57.8778 125.217 57.7481 124.593 57.7481 123.882C57.7481 123.171 57.8778 122.544 58.137 122.001C58.3992 121.455 58.7639 121.03 59.2311 120.726C59.7014 120.419 60.25 120.265 60.8769 120.265C61.2386 120.265 61.5958 120.325 61.9485 120.446C62.3011 120.566 62.6221 120.762 62.9115 121.033C63.2009 121.302 63.4315 121.657 63.6033 122.101C63.7751 122.544 63.861 123.089 63.861 123.737V124.189H58.5077V123.267H62.7759C62.7759 122.875 62.6975 122.526 62.5408 122.218C62.387 121.911 62.167 121.668 61.8806 121.49C61.5973 121.312 61.2627 121.223 60.8769 121.223C60.4519 121.223 60.0842 121.329 59.7737 121.54C59.4663 121.748 59.2296 122.019 59.0639 122.354C58.8981 122.688 58.8152 123.047 58.8152 123.43V124.045C58.8152 124.569 58.9056 125.014 59.0865 125.378C59.2703 125.74 59.525 126.016 59.8506 126.206C60.1761 126.393 60.5544 126.486 60.9854 126.486C61.2657 126.486 61.5189 126.447 61.745 126.369C61.9741 126.287 62.1715 126.167 62.3373 126.007C62.5031 125.844 62.6312 125.642 62.7216 125.401L63.7525 125.69C63.644 126.04 63.4616 126.348 63.2054 126.613C62.9492 126.875 62.6327 127.08 62.2559 127.228C61.8791 127.372 61.4556 127.445 60.9854 127.445ZM69.2097 127.3V118.04H72.3385C73.0649 118.04 73.6587 118.171 74.1199 118.434C74.5841 118.693 74.9277 119.044 75.1508 119.487C75.3738 119.93 75.4854 120.425 75.4854 120.97C75.4854 121.516 75.3738 122.012 75.1508 122.458C74.9307 122.904 74.5901 123.259 74.129 123.525C73.6678 123.787 73.077 123.918 72.3566 123.918H70.114V122.923H72.3204C72.8178 122.923 73.2172 122.837 73.5186 122.666C73.82 122.494 74.0385 122.262 74.1742 121.969C74.3128 121.674 74.3822 121.341 74.3822 120.97C74.3822 120.599 74.3128 120.268 74.1742 119.975C74.0385 119.683 73.8185 119.454 73.5141 119.288C73.2096 119.119 72.8057 119.035 72.3023 119.035H70.331V127.3H69.2097ZM79.1906 127.463C78.7505 127.463 78.3511 127.38 77.9924 127.214C77.6338 127.045 77.3489 126.803 77.1379 126.486C76.9269 126.167 76.8214 125.781 76.8214 125.329C76.8214 124.931 76.8998 124.608 77.0565 124.361C77.2133 124.111 77.4228 123.915 77.685 123.773C77.9472 123.632 78.2366 123.526 78.5531 123.457C78.8726 123.385 79.1936 123.327 79.5161 123.285C79.9381 123.231 80.2802 123.19 80.5425 123.163C80.8077 123.133 81.0006 123.083 81.1212 123.014C81.2448 122.944 81.3066 122.824 81.3066 122.652V122.616C81.3066 122.17 81.1845 121.823 80.9404 121.576C80.6992 121.329 80.333 121.205 79.8417 121.205C79.3323 121.205 78.9329 121.317 78.6435 121.54C78.3542 121.763 78.1507 122.001 78.0331 122.254L77.0204 121.893C77.2012 121.471 77.4424 121.142 77.7438 120.907C78.0482 120.669 78.3798 120.503 78.7385 120.41C79.1002 120.313 79.4559 120.265 79.8055 120.265C80.0286 120.265 80.2848 120.292 80.5741 120.346C80.8665 120.397 81.1483 120.504 81.4196 120.667C81.6939 120.83 81.9215 121.076 82.1023 121.404C82.2832 121.733 82.3736 122.173 82.3736 122.724V127.3H81.3066V126.36H81.2523C81.18 126.51 81.0594 126.672 80.8906 126.843C80.7218 127.015 80.4973 127.161 80.2169 127.282C79.9366 127.403 79.5945 127.463 79.1906 127.463ZM79.3534 126.504C79.7754 126.504 80.131 126.421 80.4204 126.256C80.7128 126.09 80.9328 125.876 81.0805 125.614C81.2312 125.351 81.3066 125.076 81.3066 124.786V123.81C81.2614 123.864 81.1619 123.914 81.0082 123.959C80.8575 124.001 80.6826 124.039 80.4837 124.072C80.2878 124.102 80.0964 124.129 79.9095 124.153C79.7256 124.174 79.5764 124.192 79.4619 124.207C79.1846 124.244 78.9254 124.302 78.6842 124.384C78.4461 124.462 78.2532 124.581 78.1055 124.741C77.9608 124.898 77.8885 125.112 77.8885 125.383C77.8885 125.754 78.0256 126.034 78.2999 126.224C78.5772 126.411 78.9284 126.504 79.3534 126.504ZM84.7598 129.904C84.5789 129.904 84.4177 129.889 84.276 129.859C84.1343 129.832 84.0364 129.805 83.9821 129.778L84.2534 128.837C84.5126 128.904 84.7417 128.928 84.9406 128.91C85.1396 128.892 85.3159 128.803 85.4696 128.643C85.6264 128.486 85.7695 128.231 85.8991 127.879L86.0981 127.336L83.53 120.355H84.6874L86.6045 125.889H86.6768L88.5939 120.355H89.7513L86.8034 128.313C86.6708 128.672 86.5065 128.968 86.3106 129.204C86.1147 129.442 85.8871 129.618 85.6279 129.733C85.3717 129.847 85.0823 129.904 84.7598 129.904ZM91.1597 127.3V120.355H92.1906V121.44H92.281C92.4257 121.07 92.6593 120.782 92.9818 120.577C93.3043 120.369 93.6917 120.265 94.1438 120.265C94.602 120.265 94.9833 120.369 95.2877 120.577C95.5952 120.782 95.8348 121.07 96.0066 121.44H96.0789C96.2568 121.082 96.5235 120.797 96.8792 120.586C97.2349 120.372 97.6614 120.265 98.1588 120.265C98.7797 120.265 99.2876 120.459 99.6825 120.848C100.077 121.234 100.275 121.835 100.275 122.652V127.3H99.2077V122.652C99.2077 122.14 99.0675 121.773 98.7872 121.553C98.5069 121.333 98.1768 121.223 97.7971 121.223C97.3087 121.223 96.9305 121.371 96.6622 121.666C96.3939 121.959 96.2598 122.33 96.2598 122.779V127.3H95.1747V122.544C95.1747 122.149 95.0466 121.831 94.7904 121.59C94.5342 121.345 94.2041 121.223 93.8002 121.223C93.5229 121.223 93.2637 121.297 93.0225 121.445C92.7844 121.593 92.5915 121.798 92.4438 122.06C92.2991 122.319 92.2268 122.619 92.2268 122.96V127.3H91.1597ZM105.137 127.445C104.468 127.445 103.891 127.297 103.406 127.002C102.924 126.703 102.551 126.287 102.289 125.754C102.03 125.217 101.9 124.593 101.9 123.882C101.9 123.171 102.03 122.544 102.289 122.001C102.551 121.455 102.916 121.03 103.383 120.726C103.853 120.419 104.402 120.265 105.029 120.265C105.391 120.265 105.748 120.325 106.1 120.446C106.453 120.566 106.774 120.762 107.064 121.033C107.353 121.302 107.583 121.657 107.755 122.101C107.927 122.544 108.013 123.089 108.013 123.737V124.189H102.66V123.267H106.928C106.928 122.875 106.85 122.526 106.693 122.218C106.539 121.911 106.319 121.668 106.033 121.49C105.749 121.312 105.415 121.223 105.029 121.223C104.604 121.223 104.236 121.329 103.926 121.54C103.618 121.748 103.382 122.019 103.216 122.354C103.05 122.688 102.967 123.047 102.967 123.43V124.045C102.967 124.569 103.058 125.014 103.238 125.378C103.422 125.74 103.677 126.016 104.003 126.206C104.328 126.393 104.706 126.486 105.137 126.486C105.418 126.486 105.671 126.447 105.897 126.369C106.126 126.287 106.324 126.167 106.489 126.007C106.655 125.844 106.783 125.642 106.874 125.401L107.905 125.69C107.796 126.04 107.614 126.348 107.357 126.613C107.101 126.875 106.785 127.08 106.408 127.228C106.031 127.372 105.608 127.445 105.137 127.445ZM110.703 123.122V127.3H109.636V120.355H110.667V121.44H110.757C110.92 121.088 111.167 120.804 111.499 120.59C111.831 120.373 112.259 120.265 112.783 120.265C113.253 120.265 113.665 120.361 114.017 120.554C114.37 120.744 114.644 121.033 114.84 121.422C115.036 121.808 115.134 122.296 115.134 122.887V127.3H114.067V122.96C114.067 122.414 113.925 121.989 113.642 121.685C113.359 121.377 112.97 121.223 112.476 121.223C112.135 121.223 111.831 121.297 111.562 121.445C111.297 121.593 111.088 121.808 110.934 122.091C110.78 122.375 110.703 122.718 110.703 123.122ZM120.104 120.355V121.26H116.505V120.355H120.104ZM117.554 118.691H118.621V125.311C118.621 125.612 118.665 125.838 118.752 125.989C118.843 126.137 118.957 126.236 119.096 126.287C119.238 126.335 119.387 126.36 119.544 126.36C119.661 126.36 119.758 126.354 119.833 126.342C119.908 126.326 119.969 126.314 120.014 126.305L120.231 127.264C120.158 127.291 120.058 127.318 119.928 127.345C119.798 127.375 119.634 127.39 119.435 127.39C119.134 127.39 118.838 127.326 118.549 127.196C118.263 127.066 118.024 126.869 117.835 126.604C117.648 126.339 117.554 126.004 117.554 125.6V118.691Z" fill="black"/>
</svg>
