<svg width="564" height="447" viewBox="0 0 564 447" fill="none" xmlns="http://www.w3.org/2000/svg">
<g filter="url(#filter0_d_9_21612)">
<rect x="8" y="6" width="548" height="431" rx="8" fill="white" shape-rendering="crispEdges"/>
<path d="M18.5682 25.392V23.3636H28.125V25.392H24.5625V35H22.1307V25.392H18.5682ZM32.331 35.1705C31.4484 35.1705 30.6851 34.983 30.0412 34.608C29.401 34.2292 28.9067 33.7027 28.5582 33.0284C28.2098 32.3504 28.0355 31.5644 28.0355 30.6705C28.0355 29.7689 28.2098 28.9811 28.5582 28.3068C28.9067 27.6288 29.401 27.1023 30.0412 26.7273C30.6851 26.3485 31.4484 26.1591 32.331 26.1591C33.2135 26.1591 33.9749 26.3485 34.6151 26.7273C35.259 27.1023 35.7552 27.6288 36.1037 28.3068C36.4522 28.9811 36.6264 29.7689 36.6264 30.6705C36.6264 31.5644 36.4522 32.3504 36.1037 33.0284C35.7552 33.7027 35.259 34.2292 34.6151 34.608C33.9749 34.983 33.2135 35.1705 32.331 35.1705ZM32.3423 33.2955C32.7438 33.2955 33.0791 33.1818 33.348 32.9545C33.617 32.7235 33.8196 32.4091 33.956 32.0114C34.0961 31.6136 34.1662 31.161 34.1662 30.6534C34.1662 30.1458 34.0961 29.6932 33.956 29.2955C33.8196 28.8977 33.617 28.5833 33.348 28.3523C33.0791 28.1212 32.7438 28.0057 32.3423 28.0057C31.937 28.0057 31.5961 28.1212 31.3196 28.3523C31.0469 28.5833 30.8404 28.8977 30.7003 29.2955C30.5639 29.6932 30.4957 30.1458 30.4957 30.6534C30.4957 31.161 30.5639 31.6136 30.7003 32.0114C30.8404 32.4091 31.0469 32.7235 31.3196 32.9545C31.5961 33.1818 31.937 33.2955 32.3423 33.2955ZM42.8423 26.2727V28.0909H37.5866V26.2727H42.8423ZM38.7798 24.1818H41.2003V32.3182C41.2003 32.5417 41.2344 32.7159 41.3026 32.8409C41.3707 32.9621 41.4654 33.0473 41.5866 33.0966C41.7116 33.1458 41.8556 33.1705 42.0185 33.1705C42.1321 33.1705 42.2457 33.161 42.3594 33.142C42.473 33.1193 42.5601 33.1023 42.6207 33.0909L43.0014 34.892C42.8802 34.9299 42.7098 34.9735 42.4901 35.0227C42.2704 35.0758 42.0033 35.108 41.6889 35.1193C41.1056 35.142 40.5942 35.0644 40.1548 34.8864C39.7192 34.7083 39.3802 34.4318 39.1378 34.0568C38.8954 33.6818 38.776 33.2083 38.7798 32.6364V24.1818ZM46.9077 35.1648C46.3509 35.1648 45.8546 35.0682 45.419 34.875C44.9834 34.678 44.6387 34.3883 44.3849 34.0057C44.1349 33.6193 44.0099 33.1383 44.0099 32.5625C44.0099 32.0777 44.099 31.6705 44.277 31.3409C44.455 31.0114 44.6974 30.7462 45.0043 30.5455C45.3111 30.3447 45.6596 30.1932 46.0497 30.0909C46.4437 29.9886 46.8565 29.9167 47.2884 29.875C47.7959 29.822 48.205 29.7727 48.5156 29.7273C48.8262 29.678 49.0516 29.6061 49.1918 29.5114C49.3319 29.4167 49.402 29.2765 49.402 29.0909V29.0568C49.402 28.697 49.2884 28.4186 49.0611 28.2216C48.8376 28.0246 48.5194 27.9261 48.1065 27.9261C47.6709 27.9261 47.3243 28.0227 47.0668 28.2159C46.8092 28.4053 46.6387 28.6439 46.5554 28.9318L44.3168 28.75C44.4304 28.2197 44.6539 27.7614 44.9872 27.375C45.3205 26.9848 45.7505 26.6856 46.277 26.4773C46.8073 26.2652 47.4209 26.1591 48.1179 26.1591C48.6027 26.1591 49.0668 26.2159 49.5099 26.3295C49.9569 26.4432 50.3527 26.6193 50.6974 26.858C51.0459 27.0966 51.3205 27.4034 51.5213 27.7784C51.7221 28.1496 51.8224 28.5947 51.8224 29.1136V35H49.527V33.7898H49.4588C49.3187 34.0625 49.1312 34.303 48.8963 34.5114C48.6615 34.7159 48.3793 34.8769 48.0497 34.9943C47.7202 35.108 47.3395 35.1648 46.9077 35.1648ZM47.6009 33.4943C47.9569 33.4943 48.2713 33.4242 48.544 33.2841C48.8168 33.1402 49.0308 32.947 49.1861 32.7045C49.3414 32.4621 49.419 32.1875 49.419 31.8807V30.9545C49.3433 31.0038 49.2391 31.0492 49.1065 31.0909C48.9777 31.1288 48.8319 31.1648 48.669 31.1989C48.5062 31.2292 48.3433 31.2576 48.1804 31.2841C48.0175 31.3068 47.8698 31.3277 47.7372 31.3466C47.4531 31.3883 47.205 31.4545 46.9929 31.5455C46.7808 31.6364 46.616 31.7595 46.4986 31.9148C46.3812 32.0663 46.3224 32.2557 46.3224 32.483C46.3224 32.8125 46.4418 33.0644 46.6804 33.2386C46.9228 33.4091 47.2296 33.4943 47.6009 33.4943ZM56.1207 23.3636V35H53.7003V23.3636H56.1207ZM61.3651 25.392V23.3636H70.9219V25.392H67.3594V35H64.9276V25.392H61.3651ZM71.544 35V26.2727H73.8906V27.7955H73.9815C74.1406 27.2538 74.4077 26.8447 74.7827 26.5682C75.1577 26.2879 75.5895 26.1477 76.0781 26.1477C76.1993 26.1477 76.33 26.1553 76.4702 26.1705C76.6103 26.1856 76.7334 26.2064 76.8395 26.233V28.3807C76.7259 28.3466 76.5687 28.3163 76.3679 28.2898C76.1671 28.2633 75.9834 28.25 75.8168 28.25C75.4607 28.25 75.1425 28.3277 74.8622 28.483C74.5857 28.6345 74.366 28.8466 74.2031 29.1193C74.044 29.392 73.9645 29.7064 73.9645 30.0625V35H71.544ZM80.3295 35.1648C79.7727 35.1648 79.2765 35.0682 78.8409 34.875C78.4053 34.678 78.0606 34.3883 77.8068 34.0057C77.5568 33.6193 77.4318 33.1383 77.4318 32.5625C77.4318 32.0777 77.5208 31.6705 77.6989 31.3409C77.8769 31.0114 78.1193 30.7462 78.4261 30.5455C78.733 30.3447 79.0814 30.1932 79.4716 30.0909C79.8655 29.9886 80.2784 29.9167 80.7102 29.875C81.2178 29.822 81.6269 29.7727 81.9375 29.7273C82.2481 29.678 82.4735 29.6061 82.6136 29.5114C82.7538 29.4167 82.8239 29.2765 82.8239 29.0909V29.0568C82.8239 28.697 82.7102 28.4186 82.483 28.2216C82.2595 28.0246 81.9413 27.9261 81.5284 27.9261C81.0928 27.9261 80.7462 28.0227 80.4886 28.2159C80.2311 28.4053 80.0606 28.6439 79.9773 28.9318L77.7386 28.75C77.8523 28.2197 78.0758 27.7614 78.4091 27.375C78.7424 26.9848 79.1723 26.6856 79.6989 26.4773C80.2292 26.2652 80.8428 26.1591 81.5398 26.1591C82.0246 26.1591 82.4886 26.2159 82.9318 26.3295C83.3788 26.4432 83.7746 26.6193 84.1193 26.858C84.4678 27.0966 84.7424 27.4034 84.9432 27.7784C85.1439 28.1496 85.2443 28.5947 85.2443 29.1136V35H82.9489V33.7898H82.8807C82.7405 34.0625 82.553 34.303 82.3182 34.5114C82.0833 34.7159 81.8011 34.8769 81.4716 34.9943C81.142 35.108 80.7614 35.1648 80.3295 35.1648ZM81.0227 33.4943C81.3788 33.4943 81.6932 33.4242 81.9659 33.2841C82.2386 33.1402 82.4527 32.947 82.608 32.7045C82.7633 32.4621 82.8409 32.1875 82.8409 31.8807V30.9545C82.7652 31.0038 82.661 31.0492 82.5284 31.0909C82.3996 31.1288 82.2538 31.1648 82.0909 31.1989C81.928 31.2292 81.7652 31.2576 81.6023 31.2841C81.4394 31.3068 81.2917 31.3277 81.1591 31.3466C80.875 31.3883 80.6269 31.4545 80.4148 31.5455C80.2027 31.6364 80.0379 31.7595 79.9205 31.9148C79.803 32.0663 79.7443 32.2557 79.7443 32.483C79.7443 32.8125 79.8636 33.0644 80.1023 33.2386C80.3447 33.4091 80.6515 33.4943 81.0227 33.4943ZM89.5426 29.9545V35H87.1222V26.2727H89.429V27.8125H89.5312C89.7244 27.3049 90.0483 26.9034 90.5028 26.608C90.9574 26.3087 91.5085 26.1591 92.1562 26.1591C92.7623 26.1591 93.2907 26.2917 93.7415 26.5568C94.1922 26.822 94.5426 27.2008 94.7926 27.6932C95.0426 28.1818 95.1676 28.7652 95.1676 29.4432V35H92.7472V29.875C92.7509 29.3409 92.6146 28.9242 92.3381 28.625C92.0616 28.322 91.6809 28.1705 91.196 28.1705C90.8703 28.1705 90.5824 28.2405 90.3324 28.3807C90.0862 28.5208 89.893 28.7254 89.7528 28.9943C89.6165 29.2595 89.5464 29.5795 89.5426 29.9545ZM104.337 28.7614L102.121 28.8977C102.083 28.7083 102.001 28.5379 101.876 28.3864C101.751 28.2311 101.587 28.108 101.382 28.017C101.181 27.9223 100.941 27.875 100.661 27.875C100.286 27.875 99.9692 27.9545 99.7116 28.1136C99.4541 28.2689 99.3253 28.4773 99.3253 28.7386C99.3253 28.947 99.4086 29.1231 99.5753 29.267C99.742 29.411 100.028 29.5265 100.433 29.6136L102.013 29.9318C102.861 30.1061 103.494 30.3864 103.911 30.7727C104.327 31.1591 104.536 31.6667 104.536 32.2955C104.536 32.8674 104.367 33.3693 104.03 33.8011C103.696 34.233 103.238 34.5701 102.655 34.8125C102.075 35.0511 101.407 35.1705 100.649 35.1705C99.4938 35.1705 98.5734 34.9299 97.8878 34.4489C97.206 33.964 96.8063 33.3049 96.6889 32.4716L99.0696 32.3466C99.1416 32.6989 99.3158 32.9678 99.5923 33.1534C99.8688 33.3352 100.223 33.4261 100.655 33.4261C101.079 33.4261 101.42 33.3447 101.678 33.1818C101.939 33.0152 102.071 32.8011 102.075 32.5398C102.071 32.3201 101.979 32.1402 101.797 32C101.615 31.8561 101.335 31.7462 100.956 31.6705L99.4446 31.3693C98.5923 31.1989 97.9579 30.9034 97.5412 30.483C97.1283 30.0625 96.9219 29.5265 96.9219 28.875C96.9219 28.3144 97.0734 27.8314 97.3764 27.4261C97.6832 27.0208 98.1132 26.7083 98.6662 26.4886C99.223 26.2689 99.8745 26.1591 100.621 26.1591C101.723 26.1591 102.59 26.392 103.223 26.858C103.859 27.3239 104.231 27.9583 104.337 28.7614ZM108.548 35.1648C107.991 35.1648 107.495 35.0682 107.06 34.875C106.624 34.678 106.279 34.3883 106.026 34.0057C105.776 33.6193 105.651 33.1383 105.651 32.5625C105.651 32.0777 105.74 31.6705 105.918 31.3409C106.096 31.0114 106.338 30.7462 106.645 30.5455C106.952 30.3447 107.3 30.1932 107.69 30.0909C108.084 29.9886 108.497 29.9167 108.929 29.875C109.437 29.822 109.846 29.7727 110.156 29.7273C110.467 29.678 110.692 29.6061 110.832 29.5114C110.973 29.4167 111.043 29.2765 111.043 29.0909V29.0568C111.043 28.697 110.929 28.4186 110.702 28.2216C110.478 28.0246 110.16 27.9261 109.747 27.9261C109.312 27.9261 108.965 28.0227 108.707 28.2159C108.45 28.4053 108.279 28.6439 108.196 28.9318L105.957 28.75C106.071 28.2197 106.295 27.7614 106.628 27.375C106.961 26.9848 107.391 26.6856 107.918 26.4773C108.448 26.2652 109.062 26.1591 109.759 26.1591C110.243 26.1591 110.707 26.2159 111.151 26.3295C111.598 26.4432 111.993 26.6193 112.338 26.858C112.687 27.0966 112.961 27.4034 113.162 27.7784C113.363 28.1496 113.463 28.5947 113.463 29.1136V35H111.168V33.7898H111.099C110.959 34.0625 110.772 34.303 110.537 34.5114C110.302 34.7159 110.02 34.8769 109.69 34.9943C109.361 35.108 108.98 35.1648 108.548 35.1648ZM109.241 33.4943C109.598 33.4943 109.912 33.4242 110.185 33.2841C110.457 33.1402 110.671 32.947 110.827 32.7045C110.982 32.4621 111.06 32.1875 111.06 31.8807V30.9545C110.984 31.0038 110.88 31.0492 110.747 31.0909C110.618 31.1288 110.473 31.1648 110.31 31.1989C110.147 31.2292 109.984 31.2576 109.821 31.2841C109.658 31.3068 109.51 31.3277 109.378 31.3466C109.094 31.3883 108.846 31.4545 108.634 31.5455C108.421 31.6364 108.257 31.7595 108.139 31.9148C108.022 32.0663 107.963 32.2557 107.963 32.483C107.963 32.8125 108.082 33.0644 108.321 33.2386C108.563 33.4091 108.87 33.4943 109.241 33.4943ZM119.284 35.1705C118.39 35.1705 117.621 34.9811 116.977 34.6023C116.337 34.2197 115.845 33.6894 115.5 33.0114C115.159 32.3333 114.989 31.553 114.989 30.6705C114.989 29.7765 115.161 28.9924 115.506 28.3182C115.854 27.6402 116.348 27.1117 116.989 26.733C117.629 26.3504 118.39 26.1591 119.273 26.1591C120.034 26.1591 120.701 26.2973 121.273 26.5739C121.845 26.8504 122.297 27.2386 122.631 27.7386C122.964 28.2386 123.148 28.8258 123.182 29.5H120.898C120.833 29.0644 120.663 28.714 120.386 28.4489C120.114 28.1799 119.756 28.0455 119.312 28.0455C118.938 28.0455 118.61 28.1477 118.33 28.3523C118.053 28.553 117.837 28.8466 117.682 29.233C117.527 29.6193 117.449 30.0871 117.449 30.6364C117.449 31.1932 117.525 31.6667 117.676 32.0568C117.831 32.447 118.049 32.7443 118.33 32.9489C118.61 33.1534 118.938 33.2557 119.312 33.2557C119.589 33.2557 119.837 33.1989 120.057 33.0852C120.28 32.9716 120.464 32.8068 120.608 32.5909C120.756 32.3712 120.852 32.108 120.898 31.8011H123.182C123.144 32.4678 122.962 33.0549 122.636 33.5625C122.314 34.0663 121.869 34.4602 121.301 34.7443C120.733 35.0284 120.061 35.1705 119.284 35.1705ZM129.374 26.2727V28.0909H124.118V26.2727H129.374ZM125.311 24.1818H127.732V32.3182C127.732 32.5417 127.766 32.7159 127.834 32.8409C127.902 32.9621 127.997 33.0473 128.118 33.0966C128.243 33.1458 128.387 33.1705 128.55 33.1705C128.663 33.1705 128.777 33.161 128.891 33.142C129.004 33.1193 129.091 33.1023 129.152 33.0909L129.533 34.892C129.411 34.9299 129.241 34.9735 129.021 35.0227C128.802 35.0758 128.535 35.108 128.22 35.1193C127.637 35.142 127.125 35.0644 126.686 34.8864C126.25 34.7083 125.911 34.4318 125.669 34.0568C125.427 33.6818 125.307 33.2083 125.311 32.6364V24.1818ZM130.95 35V26.2727H133.371V35H130.95ZM132.166 25.1477C131.806 25.1477 131.498 25.0284 131.24 24.7898C130.986 24.5473 130.859 24.2576 130.859 23.9205C130.859 23.5871 130.986 23.3011 131.24 23.0625C131.498 22.8201 131.806 22.6989 132.166 22.6989C132.526 22.6989 132.833 22.8201 133.087 23.0625C133.344 23.3011 133.473 23.5871 133.473 23.9205C133.473 24.2576 133.344 24.5473 133.087 24.7898C132.833 25.0284 132.526 25.1477 132.166 25.1477ZM139.253 35.1705C138.37 35.1705 137.607 34.983 136.963 34.608C136.323 34.2292 135.829 33.7027 135.48 33.0284C135.132 32.3504 134.957 31.5644 134.957 30.6705C134.957 29.7689 135.132 28.9811 135.48 28.3068C135.829 27.6288 136.323 27.1023 136.963 26.7273C137.607 26.3485 138.37 26.1591 139.253 26.1591C140.135 26.1591 140.897 26.3485 141.537 26.7273C142.181 27.1023 142.677 27.6288 143.026 28.3068C143.374 28.9811 143.548 29.7689 143.548 30.6705C143.548 31.5644 143.374 32.3504 143.026 33.0284C142.677 33.7027 142.181 34.2292 141.537 34.608C140.897 34.983 140.135 35.1705 139.253 35.1705ZM139.264 33.2955C139.666 33.2955 140.001 33.1818 140.27 32.9545C140.539 32.7235 140.741 32.4091 140.878 32.0114C141.018 31.6136 141.088 31.161 141.088 30.6534C141.088 30.1458 141.018 29.6932 140.878 29.2955C140.741 28.8977 140.539 28.5833 140.27 28.3523C140.001 28.1212 139.666 28.0057 139.264 28.0057C138.859 28.0057 138.518 28.1212 138.241 28.3523C137.969 28.5833 137.762 28.8977 137.622 29.2955C137.486 29.6932 137.418 30.1458 137.418 30.6534C137.418 31.161 137.486 31.6136 137.622 32.0114C137.762 32.4091 137.969 32.7235 138.241 32.9545C138.518 33.1818 138.859 33.2955 139.264 33.2955ZM147.543 29.9545V35H145.122V26.2727H147.429V27.8125H147.531C147.724 27.3049 148.048 26.9034 148.503 26.608C148.957 26.3087 149.509 26.1591 150.156 26.1591C150.762 26.1591 151.291 26.2917 151.741 26.5568C152.192 26.822 152.543 27.2008 152.793 27.6932C153.043 28.1818 153.168 28.7652 153.168 29.4432V35H150.747V29.875C150.751 29.3409 150.615 28.9242 150.338 28.625C150.062 28.322 149.681 28.1705 149.196 28.1705C148.87 28.1705 148.582 28.2405 148.332 28.3807C148.086 28.5208 147.893 28.7254 147.753 28.9943C147.616 29.2595 147.546 29.5795 147.543 29.9545ZM162.337 28.7614L160.121 28.8977C160.083 28.7083 160.001 28.5379 159.876 28.3864C159.751 28.2311 159.587 28.108 159.382 28.017C159.181 27.9223 158.941 27.875 158.661 27.875C158.286 27.875 157.969 27.9545 157.712 28.1136C157.454 28.2689 157.325 28.4773 157.325 28.7386C157.325 28.947 157.409 29.1231 157.575 29.267C157.742 29.411 158.028 29.5265 158.433 29.6136L160.013 29.9318C160.861 30.1061 161.494 30.3864 161.911 30.7727C162.327 31.1591 162.536 31.6667 162.536 32.2955C162.536 32.8674 162.367 33.3693 162.03 33.8011C161.696 34.233 161.238 34.5701 160.655 34.8125C160.075 35.0511 159.407 35.1705 158.649 35.1705C157.494 35.1705 156.573 34.9299 155.888 34.4489C155.206 33.964 154.806 33.3049 154.689 32.4716L157.07 32.3466C157.142 32.6989 157.316 32.9678 157.592 33.1534C157.869 33.3352 158.223 33.4261 158.655 33.4261C159.079 33.4261 159.42 33.3447 159.678 33.1818C159.939 33.0152 160.071 32.8011 160.075 32.5398C160.071 32.3201 159.979 32.1402 159.797 32C159.615 31.8561 159.335 31.7462 158.956 31.6705L157.445 31.3693C156.592 31.1989 155.958 30.9034 155.541 30.483C155.128 30.0625 154.922 29.5265 154.922 28.875C154.922 28.3144 155.073 27.8314 155.376 27.4261C155.683 27.0208 156.113 26.7083 156.666 26.4886C157.223 26.2689 157.875 26.1591 158.621 26.1591C159.723 26.1591 160.59 26.392 161.223 26.858C161.859 27.3239 162.231 27.9583 162.337 28.7614Z" fill="black"/>
<mask id="mask0_9_21612" style="mask-type:alpha" maskUnits="userSpaceOnUse" x="514" y="20" width="22" height="21">
<rect x="514.796" y="20.1917" width="20.407" height="20.407" fill="#D9D9D9"/>
</mask>
<g mask="url(#mask0_9_21612)">
<path d="M525 37.1974C524.532 37.1974 524.132 37.0309 523.799 36.6979C523.466 36.3648 523.299 35.9645 523.299 35.4968C523.299 35.0292 523.466 34.6288 523.799 34.2958C524.132 33.9628 524.532 33.7963 525 33.7963C525.468 33.7963 525.868 33.9628 526.201 34.2958C526.534 34.6288 526.7 35.0292 526.7 35.4968C526.7 35.9645 526.534 36.3648 526.201 36.6979C525.868 37.0309 525.468 37.1974 525 37.1974ZM525 32.0957C524.532 32.0957 524.132 31.9292 523.799 31.5961C523.466 31.2631 523.299 30.8628 523.299 30.3951C523.299 29.9274 523.466 29.5271 523.799 29.1941C524.132 28.861 524.532 28.6945 525 28.6945C525.468 28.6945 525.868 28.861 526.201 29.1941C526.534 29.5271 526.7 29.9274 526.7 30.3951C526.7 30.8628 526.534 31.2631 526.201 31.5961C525.868 31.9292 525.468 32.0957 525 32.0957ZM525 26.9939C524.532 26.9939 524.132 26.8274 523.799 26.4944C523.466 26.1614 523.299 25.761 523.299 25.2934C523.299 24.8257 523.466 24.4253 523.799 24.0923C524.132 23.7593 524.532 23.5928 525 23.5928C525.468 23.5928 525.868 23.7593 526.201 24.0923C526.534 24.4253 526.7 24.8257 526.7 25.2934C526.7 25.761 526.534 26.1614 526.201 26.4944C525.868 26.8274 525.468 26.9939 525 26.9939Z" fill="black"/>
</g>
<rect x="18" y="57" width="44.407" height="27.2093" rx="13.6047" fill="#E7EBFE"/>
<path d="M31.3921 74.1047H29.1021V66.684H31.4935C32.2134 66.684 32.8294 66.8326 33.3415 67.1297C33.8536 67.4244 34.2461 67.8483 34.5191 68.4015C34.792 68.9523 34.9285 69.6117 34.9285 70.3799C34.9285 71.1529 34.7908 71.8184 34.5155 72.3764C34.2401 72.932 33.8391 73.3595 33.3125 73.6591C32.7859 73.9562 32.1457 74.1047 31.3921 74.1047ZM30.0007 73.3076H31.3341C31.9477 73.3076 32.4562 73.1892 32.8596 72.9525C33.263 72.7158 33.5637 72.3788 33.7618 71.9416C33.9599 71.5043 34.0589 70.9838 34.0589 70.3799C34.0589 69.7808 33.9611 69.2651 33.7654 68.8327C33.5697 68.3979 33.2775 68.0645 32.8885 67.8326C32.4996 67.5983 32.0153 67.4812 31.4356 67.4812H30.0007V73.3076ZM37.9577 74.2352C37.605 74.2352 37.2849 74.1687 36.9975 74.0359C36.71 73.9006 36.4817 73.7062 36.3127 73.4525C36.1436 73.1965 36.059 72.8873 36.059 72.5249C36.059 72.2061 36.1218 71.9476 36.2474 71.7495C36.373 71.549 36.5409 71.392 36.7511 71.2785C36.9612 71.165 37.1931 71.0804 37.4468 71.0248C37.7028 70.9669 37.9601 70.921 38.2186 70.8872C38.5567 70.8437 38.8309 70.8111 39.0411 70.7893C39.2536 70.7652 39.4082 70.7253 39.5049 70.6698C39.6039 70.6142 39.6534 70.5176 39.6534 70.3799V70.3509C39.6534 69.9934 39.5556 69.7156 39.3599 69.5175C39.1667 69.3194 38.8732 69.2204 38.4794 69.2204C38.0712 69.2204 37.7511 69.3098 37.5192 69.4885C37.2873 69.6673 37.1243 69.8581 37.0301 70.061L36.2184 69.7712C36.3634 69.433 36.5566 69.1697 36.7982 68.9813C37.0422 68.7904 37.3079 68.6576 37.5953 68.5827C37.8852 68.5054 38.1703 68.4667 38.4505 68.4667C38.6292 68.4667 38.8345 68.4885 39.0664 68.532C39.3008 68.573 39.5266 68.6588 39.744 68.7892C39.9638 68.9197 40.1462 69.1165 40.2911 69.3798C40.4361 69.6431 40.5086 69.9958 40.5086 70.4379V74.1047H39.6534V73.3511H39.6099C39.552 73.4718 39.4553 73.6011 39.3201 73.7388C39.1848 73.8765 39.0048 73.9936 38.7802 74.0902C38.5555 74.1869 38.2814 74.2352 37.9577 74.2352ZM38.0881 73.467C38.4263 73.467 38.7113 73.4006 38.9432 73.2677C39.1776 73.1349 39.3539 72.9634 39.4723 72.7532C39.593 72.5431 39.6534 72.322 39.6534 72.0901V71.3075C39.6172 71.351 39.5375 71.3908 39.4143 71.427C39.2935 71.4609 39.1534 71.4911 38.994 71.5176C38.837 71.5418 38.6836 71.5635 38.5338 71.5829C38.3864 71.5998 38.2669 71.6143 38.1751 71.6263C37.9528 71.6553 37.7451 71.7024 37.5519 71.7676C37.361 71.8305 37.2064 71.9259 37.0881 72.0539C36.9721 72.1795 36.9141 72.351 36.9141 72.5684C36.9141 72.8655 37.024 73.0902 37.2439 73.2424C37.4661 73.3921 37.7475 73.467 38.0881 73.467ZM42.0693 74.1047V68.5392H42.9245V74.1047H42.0693ZM42.5041 67.6116C42.3375 67.6116 42.1937 67.5548 42.073 67.4413C41.9546 67.3278 41.8954 67.1913 41.8954 67.0319C41.8954 66.8724 41.9546 66.736 42.073 66.6224C42.1937 66.5089 42.3375 66.4521 42.5041 66.4521C42.6708 66.4521 42.8133 66.5089 42.9317 66.6224C43.0525 66.736 43.1129 66.8724 43.1129 67.0319C43.1129 67.1913 43.0525 67.3278 42.9317 67.4413C42.8133 67.5548 42.6708 67.6116 42.5041 67.6116ZM45.3458 66.684V74.1047H44.4907V66.684H45.3458ZM47.4628 76.1918C47.3178 76.1918 47.1886 76.1797 47.0751 76.1556C46.9615 76.1338 46.883 76.1121 46.8395 76.0904L47.0569 75.3367C47.2647 75.3898 47.4483 75.4092 47.6077 75.3947C47.7671 75.3802 47.9084 75.3089 48.0316 75.1809C48.1572 75.0553 48.272 74.8512 48.3759 74.5685L48.5353 74.1337L46.4772 68.5392H47.4048L48.9411 72.9742H48.9991L50.5354 68.5392H51.463L49.1005 74.9164C48.9942 75.2038 48.8626 75.4418 48.7056 75.6302C48.5486 75.821 48.3662 75.9623 48.1584 76.0541C47.9531 76.1459 47.7212 76.1918 47.4628 76.1918Z" fill="black"/>
<path d="M78.258 74.1047L76.2289 66.684H77.142L78.6928 72.7278H78.7653L80.3451 66.684H81.3596L82.9394 72.7278H83.0119L84.5627 66.684H85.4758L83.4467 74.1047H82.5191L80.8813 68.1914H80.8233L79.1856 74.1047H78.258ZM88.2948 74.2207C87.7585 74.2207 87.2959 74.1023 86.907 73.8656C86.5205 73.6264 86.2222 73.2931 86.0121 72.8655C85.8043 72.4356 85.7004 71.9355 85.7004 71.3654C85.7004 70.7954 85.8043 70.2929 86.0121 69.8581C86.2222 69.4209 86.5145 69.0803 86.8889 68.8363C87.2657 68.5899 87.7054 68.4667 88.2078 68.4667C88.4977 68.4667 88.784 68.515 89.0666 68.6117C89.3492 68.7083 89.6065 68.8653 89.8384 69.0827C90.0703 69.2977 90.2551 69.5827 90.3927 69.9378C90.5304 70.2929 90.5993 70.7301 90.5993 71.2495V71.6118H86.3092V70.8727H89.7297C89.7297 70.5586 89.6669 70.2784 89.5412 70.032C89.418 69.7856 89.2417 69.5912 89.0122 69.4487C88.7852 69.3061 88.517 69.2349 88.2078 69.2349C87.8672 69.2349 87.5725 69.3194 87.3237 69.4885C87.0773 69.6552 86.8877 69.8726 86.7548 70.1407C86.622 70.4089 86.5556 70.6963 86.5556 71.0031V71.4959C86.5556 71.9162 86.628 72.2725 86.773 72.5648C86.9203 72.8547 87.1244 73.0757 87.3853 73.2279C87.6462 73.3776 87.9494 73.4525 88.2948 73.4525C88.5194 73.4525 88.7224 73.4211 88.9035 73.3583C89.0871 73.2931 89.2453 73.1965 89.3782 73.0684C89.511 72.938 89.6137 72.7762 89.6862 72.5829L90.5123 72.8148C90.4254 73.095 90.2792 73.3414 90.0739 73.554C89.8686 73.7641 89.6149 73.9284 89.313 74.0468C89.011 74.1627 88.6716 74.2207 88.2948 74.2207ZM94.2335 74.2207C93.6973 74.2207 93.2347 74.1023 92.8458 73.8656C92.4593 73.6264 92.161 73.2931 91.9508 72.8655C91.7431 72.4356 91.6392 71.9355 91.6392 71.3654C91.6392 70.7954 91.7431 70.2929 91.9508 69.8581C92.161 69.4209 92.4532 69.0803 92.8277 68.8363C93.2045 68.5899 93.6441 68.4667 94.1466 68.4667C94.4365 68.4667 94.7227 68.515 95.0053 68.6117C95.288 68.7083 95.5452 68.8653 95.7771 69.0827C96.009 69.2977 96.1938 69.5827 96.3315 69.9378C96.4692 70.2929 96.538 70.7301 96.538 71.2495V71.6118H92.2479V70.8727H95.6684C95.6684 70.5586 95.6056 70.2784 95.48 70.032C95.3568 69.7856 95.1805 69.5912 94.951 69.4487C94.7239 69.3061 94.4558 69.2349 94.1466 69.2349C93.806 69.2349 93.5113 69.3194 93.2625 69.4885C93.0161 69.6552 92.8265 69.8726 92.6936 70.1407C92.5607 70.4089 92.4943 70.6963 92.4943 71.0031V71.4959C92.4943 71.9162 92.5668 72.2725 92.7117 72.5648C92.8591 72.8547 93.0632 73.0757 93.3241 73.2279C93.585 73.3776 93.8881 73.4525 94.2335 73.4525C94.4582 73.4525 94.6611 73.4211 94.8423 73.3583C95.0259 73.2931 95.1841 73.1965 95.3169 73.0684C95.4498 72.938 95.5525 72.7762 95.6249 72.5829L96.4511 72.8148C96.3641 73.095 96.218 73.3414 96.0126 73.554C95.8073 73.7641 95.5537 73.9284 95.2517 74.0468C94.9498 74.1627 94.6104 74.2207 94.2335 74.2207ZM98.636 72.0756L98.6215 71.0176H98.7954L101.23 68.5392H102.288L99.694 71.1625H99.6215L98.636 72.0756ZM97.8388 74.1047V66.684H98.6939V74.1047H97.8388ZM101.375 74.1047L99.2012 71.351L99.81 70.7567L102.462 74.1047H101.375ZM104.244 66.684V74.1047H103.389V66.684H104.244ZM106.361 76.1918C106.216 76.1918 106.087 76.1797 105.973 76.1556C105.86 76.1338 105.781 76.1121 105.738 76.0904L105.955 75.3367C106.163 75.3898 106.347 75.4092 106.506 75.3947C106.665 75.3802 106.807 75.3089 106.93 75.1809C107.056 75.0553 107.17 74.8512 107.274 74.5685L107.434 74.1337L105.375 68.5392H106.303L107.839 72.9742H107.897L109.434 68.5392H110.361L107.999 74.9164C107.893 75.2038 107.761 75.4418 107.604 75.6302C107.447 75.821 107.264 75.9623 107.057 76.0541C106.851 76.1459 106.62 76.1918 106.361 76.1918Z" fill="black"/>
<path d="M135.718 66.684H136.791L139.313 72.8438H139.4L141.921 66.684H142.994V74.1047H142.153V68.4667H142.081L139.762 74.1047H138.95L136.631 68.4667H136.559V74.1047H135.718V66.684ZM146.941 74.2207C146.438 74.2207 145.997 74.1011 145.618 73.862C145.241 73.6228 144.947 73.2883 144.734 72.8583C144.524 72.4283 144.419 71.9259 144.419 71.351C144.419 70.7712 144.524 70.2651 144.734 69.8328C144.947 69.4004 145.241 69.0646 145.618 68.8254C145.997 68.5863 146.438 68.4667 146.941 68.4667C147.443 68.4667 147.883 68.5863 148.26 68.8254C148.639 69.0646 148.934 69.4004 149.144 69.8328C149.356 70.2651 149.463 70.7712 149.463 71.351C149.463 71.9259 149.356 72.4283 149.144 72.8583C148.934 73.2883 148.639 73.6228 148.26 73.862C147.883 74.1011 147.443 74.2207 146.941 74.2207ZM146.941 73.4525C147.322 73.4525 147.636 73.3547 147.883 73.159C148.129 72.9634 148.312 72.7061 148.43 72.3872C148.548 72.0684 148.608 71.723 148.608 71.351C148.608 70.979 148.548 70.6323 148.43 70.311C148.312 69.9898 148.129 69.7301 147.883 69.532C147.636 69.3339 147.322 69.2349 146.941 69.2349C146.559 69.2349 146.245 69.3339 145.999 69.532C145.752 69.7301 145.57 69.9898 145.452 70.311C145.333 70.6323 145.274 70.979 145.274 71.351C145.274 71.723 145.333 72.0684 145.452 72.3872C145.57 72.7061 145.752 72.9634 145.999 73.159C146.245 73.3547 146.559 73.4525 146.941 73.4525ZM151.623 70.7567V74.1047H150.768V68.5392H151.594V69.4088H151.667C151.797 69.1262 151.995 68.8991 152.261 68.7276C152.527 68.5537 152.87 68.4667 153.29 68.4667C153.667 68.4667 153.996 68.544 154.279 68.6986C154.562 68.8508 154.781 69.0827 154.938 69.3943C155.096 69.7035 155.174 70.0948 155.174 70.5683V74.1047H154.319V70.6263C154.319 70.1891 154.205 69.8485 153.978 69.6045C153.751 69.3581 153.44 69.2349 153.043 69.2349C152.77 69.2349 152.527 69.2941 152.312 69.4124C152.099 69.5308 151.931 69.7035 151.808 69.9306C151.685 70.1576 151.623 70.433 151.623 70.7567ZM159.157 68.5392V69.2639H156.273V68.5392H159.157ZM157.113 67.2058H157.969V72.5104C157.969 72.752 158.004 72.9332 158.074 73.054C158.146 73.1723 158.238 73.252 158.349 73.2931C158.463 73.3317 158.582 73.3511 158.708 73.3511C158.802 73.3511 158.879 73.3462 158.94 73.3366C159 73.3245 159.048 73.3148 159.085 73.3076L159.258 74.0757C159.201 74.0975 159.12 74.1192 159.016 74.141C158.912 74.1651 158.78 74.1772 158.621 74.1772C158.379 74.1772 158.142 74.1253 157.911 74.0214C157.681 73.9175 157.49 73.7593 157.338 73.5467C157.188 73.3342 157.113 73.066 157.113 72.7423V67.2058ZM161.418 70.7567V74.1047H160.563V66.684H161.418V69.4088H161.491C161.621 69.1214 161.817 68.8931 162.077 68.724C162.341 68.5525 162.691 68.4667 163.128 68.4667C163.508 68.4667 163.84 68.5428 164.125 68.695C164.41 68.8448 164.631 69.0755 164.788 69.3871C164.947 69.6963 165.027 70.09 165.027 70.5683V74.1047H164.172V70.6263C164.172 70.1842 164.057 69.8424 163.828 69.6009C163.601 69.3569 163.285 69.2349 162.882 69.2349C162.602 69.2349 162.35 69.2941 162.128 69.4124C161.908 69.5308 161.734 69.7035 161.606 69.9306C161.481 70.1576 161.418 70.433 161.418 70.7567ZM167.446 66.684V74.1047H166.591V66.684H167.446ZM169.563 76.1918C169.419 76.1918 169.289 76.1797 169.176 76.1556C169.062 76.1338 168.984 76.1121 168.94 76.0904L169.158 75.3367C169.365 75.3898 169.549 75.4092 169.708 75.3947C169.868 75.3802 170.009 75.3089 170.132 75.1809C170.258 75.0553 170.373 74.8512 170.477 74.5685L170.636 74.1337L168.578 68.5392H169.505L171.042 72.9742H171.1L172.636 68.5392H173.564L171.201 74.9164C171.095 75.2038 170.963 75.4418 170.806 75.6302C170.649 75.821 170.467 75.9623 170.259 76.0541C170.054 76.1459 169.822 76.1918 169.563 76.1918Z" fill="black"/>
<path d="M202.222 71.7858H203.208L204.034 72.8728L204.251 73.1627L205.483 74.8004H204.498L203.686 73.7134L203.483 73.438L202.222 71.7858ZM205.788 70.3944C205.788 71.177 205.646 71.8534 205.364 72.4235C205.081 72.9936 204.693 73.4332 204.2 73.7424C203.708 74.0516 203.145 74.2062 202.512 74.2062C201.879 74.2062 201.316 74.0516 200.823 73.7424C200.331 73.4332 199.943 72.9936 199.66 72.4235C199.378 71.8534 199.236 71.177 199.236 70.3944C199.236 69.6117 199.378 68.9354 199.66 68.3653C199.943 67.7952 200.331 67.3556 200.823 67.0464C201.316 66.7372 201.879 66.5826 202.512 66.5826C203.145 66.5826 203.708 66.7372 204.2 67.0464C204.693 67.3556 205.081 67.7952 205.364 68.3653C205.646 68.9354 205.788 69.6117 205.788 70.3944ZM204.918 70.3944C204.918 69.7518 204.81 69.2095 204.595 68.7675C204.383 68.3254 204.094 67.9909 203.729 67.7638C203.367 67.5367 202.961 67.4232 202.512 67.4232C202.063 67.4232 201.656 67.5367 201.291 67.7638C200.929 67.9909 200.64 68.3254 200.425 68.7675C200.212 69.2095 200.106 69.7518 200.106 70.3944C200.106 71.0369 200.212 71.5792 200.425 72.0213C200.64 72.4633 200.929 72.7979 201.291 73.025C201.656 73.252 202.063 73.3656 202.512 73.3656C202.961 73.3656 203.367 73.252 203.729 73.025C204.094 72.7979 204.383 72.4633 204.595 72.0213C204.81 71.5792 204.918 71.0369 204.918 70.3944ZM210.69 71.8292V68.5392H211.545V74.1047H210.69V73.1627H210.632C210.502 73.4453 210.299 73.6856 210.023 73.8837C209.748 74.0794 209.4 74.1772 208.98 74.1772C208.632 74.1772 208.323 74.1011 208.052 73.9489C207.782 73.7943 207.569 73.5624 207.414 73.2532C207.26 72.9416 207.183 72.5491 207.183 72.0756V68.5392H208.038V72.0177C208.038 72.4235 208.151 72.7472 208.378 72.9887C208.608 73.2303 208.9 73.3511 209.255 73.3511C209.468 73.3511 209.684 73.2967 209.904 73.188C210.126 73.0793 210.312 72.9126 210.462 72.688C210.614 72.4633 210.69 72.1771 210.69 71.8292ZM214.749 74.2352C214.396 74.2352 214.076 74.1687 213.789 74.0359C213.501 73.9006 213.273 73.7062 213.104 73.4525C212.935 73.1965 212.85 72.8873 212.85 72.5249C212.85 72.2061 212.913 71.9476 213.039 71.7495C213.164 71.549 213.332 71.392 213.542 71.2785C213.753 71.165 213.985 71.0804 214.238 71.0248C214.494 70.9669 214.752 70.921 215.01 70.8872C215.348 70.8437 215.622 70.8111 215.832 70.7893C216.045 70.7652 216.2 70.7253 216.296 70.6698C216.395 70.6142 216.445 70.5176 216.445 70.3799V70.3509C216.445 69.9934 216.347 69.7156 216.151 69.5175C215.958 69.3194 215.665 69.2204 215.271 69.2204C214.863 69.2204 214.543 69.3098 214.311 69.4885C214.079 69.6673 213.916 69.8581 213.821 70.061L213.01 69.7712C213.155 69.433 213.348 69.1697 213.59 68.9813C213.834 68.7904 214.099 68.6576 214.387 68.5827C214.677 68.5054 214.962 68.4667 215.242 68.4667C215.421 68.4667 215.626 68.4885 215.858 68.532C216.092 68.573 216.318 68.6588 216.535 68.7892C216.755 68.9197 216.938 69.1165 217.083 69.3798C217.227 69.6431 217.3 69.9958 217.3 70.4379V74.1047H216.445V73.3511H216.401C216.343 73.4718 216.247 73.6011 216.111 73.7388C215.976 73.8765 215.796 73.9936 215.572 74.0902C215.347 74.1869 215.073 74.2352 214.749 74.2352ZM214.88 73.467C215.218 73.467 215.503 73.4006 215.735 73.2677C215.969 73.1349 216.145 72.9634 216.264 72.7532C216.384 72.5431 216.445 72.322 216.445 72.0901V71.3075C216.409 71.351 216.329 71.3908 216.206 71.427C216.085 71.4609 215.945 71.4911 215.785 71.5176C215.628 71.5418 215.475 71.5635 215.325 71.5829C215.178 71.5998 215.058 71.6143 214.966 71.6263C214.744 71.6553 214.537 71.7024 214.343 71.7676C214.152 71.8305 213.998 71.9259 213.879 72.0539C213.764 72.1795 213.706 72.351 213.706 72.5684C213.706 72.8655 213.815 73.0902 214.035 73.2424C214.258 73.3921 214.539 73.467 214.88 73.467ZM218.861 74.1047V68.5392H219.687V69.3798H219.745C219.846 69.1044 220.03 68.881 220.296 68.7095C220.561 68.538 220.861 68.4522 221.194 68.4522C221.257 68.4522 221.336 68.4534 221.43 68.4559C221.524 68.4583 221.595 68.4619 221.644 68.4667V69.3363C221.615 69.3291 221.548 69.3182 221.444 69.3037C221.343 69.2868 221.235 69.2784 221.122 69.2784C220.851 69.2784 220.61 69.3351 220.397 69.4487C220.187 69.5598 220.02 69.7144 219.897 69.9125C219.776 70.1081 219.716 70.3316 219.716 70.5828V74.1047H218.861ZM225.426 68.5392V69.2639H222.542V68.5392H225.426ZM223.383 67.2058H224.238V72.5104C224.238 72.752 224.273 72.9332 224.343 73.054C224.415 73.1723 224.507 73.252 224.618 73.2931C224.732 73.3317 224.851 73.3511 224.977 73.3511C225.071 73.3511 225.149 73.3462 225.209 73.3366C225.269 73.3245 225.318 73.3148 225.354 73.3076L225.528 74.0757C225.47 74.0975 225.389 74.1192 225.285 74.141C225.181 74.1651 225.05 74.1772 224.89 74.1772C224.649 74.1772 224.412 74.1253 224.18 74.0214C223.95 73.9175 223.76 73.7593 223.607 73.5467C223.458 73.3342 223.383 73.066 223.383 72.7423V67.2058ZM228.986 74.2207C228.45 74.2207 227.987 74.1023 227.599 73.8656C227.212 73.6264 226.914 73.2931 226.704 72.8655C226.496 72.4356 226.392 71.9355 226.392 71.3654C226.392 70.7954 226.496 70.2929 226.704 69.8581C226.914 69.4209 227.206 69.0803 227.58 68.8363C227.957 68.5899 228.397 68.4667 228.899 68.4667C229.189 68.4667 229.475 68.515 229.758 68.6117C230.041 68.7083 230.298 68.8653 230.53 69.0827C230.762 69.2977 230.947 69.5827 231.084 69.9378C231.222 70.2929 231.291 70.7301 231.291 71.2495V71.6118H227.001V70.8727H230.421C230.421 70.5586 230.358 70.2784 230.233 70.032C230.11 69.7856 229.933 69.5912 229.704 69.4487C229.477 69.3061 229.209 69.2349 228.899 69.2349C228.559 69.2349 228.264 69.3194 228.015 69.4885C227.769 69.6552 227.579 69.8726 227.446 70.1407C227.314 70.4089 227.247 70.6963 227.247 71.0031V71.4959C227.247 71.9162 227.32 72.2725 227.464 72.5648C227.612 72.8547 227.816 73.0757 228.077 73.2279C228.338 73.3776 228.641 73.4525 228.986 73.4525C229.211 73.4525 229.414 73.4211 229.595 73.3583C229.779 73.2931 229.937 73.1965 230.07 73.0684C230.203 72.938 230.305 72.7762 230.378 72.5829L231.204 72.8148C231.117 73.095 230.971 73.3414 230.765 73.554C230.56 73.7641 230.306 73.9284 230.004 74.0468C229.703 74.1627 229.363 74.2207 228.986 74.2207ZM232.592 74.1047V68.5392H233.418V69.3798H233.476C233.577 69.1044 233.761 68.881 234.026 68.7095C234.292 68.538 234.592 68.4522 234.925 68.4522C234.988 68.4522 235.066 68.4534 235.161 68.4559C235.255 68.4583 235.326 68.4619 235.374 68.4667V69.3363C235.345 69.3291 235.279 69.3182 235.175 69.3037C235.074 69.2868 234.966 69.2784 234.853 69.2784C234.582 69.2784 234.34 69.3351 234.128 69.4487C233.918 69.5598 233.751 69.7144 233.628 69.9125C233.507 70.1081 233.447 70.3316 233.447 70.5828V74.1047H232.592ZM237.243 66.684V74.1047H236.388V66.684H237.243ZM239.36 76.1918C239.215 76.1918 239.086 76.1797 238.972 76.1556C238.859 76.1338 238.78 76.1121 238.737 76.0904L238.954 75.3367C239.162 75.3898 239.346 75.4092 239.505 75.3947C239.664 75.3802 239.806 75.3089 239.929 75.1809C240.055 75.0553 240.169 74.8512 240.273 74.5685L240.433 74.1337L238.375 68.5392H239.302L240.838 72.9742H240.896L242.433 68.5392H243.36L240.998 74.9164C240.892 75.2038 240.76 75.4418 240.603 75.6302C240.446 75.821 240.264 75.9623 240.056 76.0541C239.85 76.1459 239.619 76.1918 239.36 76.1918Z" fill="black"/>
<rect x="405.256" y="57.4251" width="136.281" height="26.359" rx="13.1795" stroke="#E5E5E5" stroke-width="0.850291"/>
<mask id="mask1_9_21612" style="mask-type:alpha" maskUnits="userSpaceOnUse" x="409" y="62" width="18" height="18">
<rect x="409.933" y="62.1018" width="17.0058" height="17.0058" fill="#D9D9D9"/>
</mask>
<g mask="url(#mask1_9_21612)">
<path d="M419.853 74.8562L415.602 70.6047L419.853 66.3533L420.845 67.3453L417.586 70.6047L420.845 73.8642L419.853 74.8562Z" fill="black"/>
</g>
<rect x="432.041" y="57" width="0.850291" height="27.2093" fill="#E5E5E5"/>
<mask id="mask2_9_21612" style="mask-type:alpha" maskUnits="userSpaceOnUse" x="439" y="62" width="18" height="18">
<rect x="439.693" y="62.1018" width="17.0058" height="17.0058" fill="#D9D9D9"/>
</mask>
<g mask="url(#mask2_9_21612)">
<path d="M443.236 77.6906C442.846 77.6906 442.513 77.5518 442.235 77.2743C441.958 76.9967 441.819 76.6631 441.819 76.2734V66.3533C441.819 65.9636 441.958 65.63 442.235 65.3525C442.513 65.075 442.846 64.9362 443.236 64.9362H443.945V63.519H445.362V64.9362H451.03V63.519H452.447V64.9362H453.156C453.546 64.9362 453.879 65.075 454.157 65.3525C454.434 65.63 454.573 65.9636 454.573 66.3533V76.2734C454.573 76.6631 454.434 76.9967 454.157 77.2743C453.879 77.5518 453.546 77.6906 453.156 77.6906H443.236ZM443.236 76.2734H453.156V69.1876H443.236V76.2734ZM443.236 67.7705H453.156V66.3533H443.236V67.7705ZM448.196 72.0219C447.995 72.0219 447.827 71.954 447.691 71.8182C447.555 71.6824 447.487 71.5141 447.487 71.3134C447.487 71.1126 447.555 70.9443 447.691 70.8085C447.827 70.6727 447.995 70.6048 448.196 70.6048C448.397 70.6048 448.565 70.6727 448.701 70.8085C448.837 70.9443 448.905 71.1126 448.905 71.3134C448.905 71.5141 448.837 71.6824 448.701 71.8182C448.565 71.954 448.397 72.0219 448.196 72.0219ZM445.362 72.0219C445.161 72.0219 444.993 71.954 444.857 71.8182C444.721 71.6824 444.653 71.5141 444.653 71.3134C444.653 71.1126 444.721 70.9443 444.857 70.8085C444.993 70.6727 445.161 70.6048 445.362 70.6048C445.562 70.6048 445.731 70.6727 445.867 70.8085C446.002 70.9443 446.07 71.1126 446.07 71.3134C446.07 71.5141 446.002 71.6824 445.867 71.8182C445.731 71.954 445.562 72.0219 445.362 72.0219ZM451.03 72.0219C450.83 72.0219 450.661 71.954 450.525 71.8182C450.39 71.6824 450.322 71.5141 450.322 71.3134C450.322 71.1126 450.39 70.9443 450.525 70.8085C450.661 70.6727 450.83 70.6048 451.03 70.6048C451.231 70.6048 451.399 70.6727 451.535 70.8085C451.671 70.9443 451.739 71.1126 451.739 71.3134C451.739 71.5141 451.671 71.6824 451.535 71.8182C451.399 71.954 451.231 72.0219 451.03 72.0219ZM448.196 74.8563C447.995 74.8563 447.827 74.7883 447.691 74.6525C447.555 74.5167 447.487 74.3484 447.487 74.1477C447.487 73.9469 447.555 73.7786 447.691 73.6428C447.827 73.507 447.995 73.4391 448.196 73.4391C448.397 73.4391 448.565 73.507 448.701 73.6428C448.837 73.7786 448.905 73.9469 448.905 74.1477C448.905 74.3484 448.837 74.5167 448.701 74.6525C448.565 74.7883 448.397 74.8563 448.196 74.8563ZM445.362 74.8563C445.161 74.8563 444.993 74.7883 444.857 74.6525C444.721 74.5167 444.653 74.3484 444.653 74.1477C444.653 73.9469 444.721 73.7786 444.857 73.6428C444.993 73.507 445.161 73.4391 445.362 73.4391C445.562 73.4391 445.731 73.507 445.867 73.6428C446.002 73.7786 446.07 73.9469 446.07 74.1477C446.07 74.3484 446.002 74.5167 445.867 74.6525C445.731 74.7883 445.562 74.8563 445.362 74.8563ZM451.03 74.8563C450.83 74.8563 450.661 74.7883 450.525 74.6525C450.39 74.5167 450.322 74.3484 450.322 74.1477C450.322 73.9469 450.39 73.7786 450.525 73.6428C450.661 73.507 450.83 73.4391 451.03 73.4391C451.231 73.4391 451.399 73.507 451.535 73.6428C451.671 73.7786 451.739 73.9469 451.739 74.1477C451.739 74.3484 451.671 74.5167 451.535 74.6525C451.399 74.7883 451.231 74.8563 451.03 74.8563Z" fill="black"/>
</g>
<path d="M460.999 66.684H462.071L464.593 72.8438H464.68L467.202 66.684H468.274V74.1047H467.434V68.4667H467.361L465.042 74.1047H464.231L461.912 68.4667H461.839V74.1047H460.999V66.684ZM471.598 74.2352C471.245 74.2352 470.925 74.1687 470.638 74.0359C470.35 73.9006 470.122 73.7062 469.953 73.4525C469.784 73.1965 469.699 72.8873 469.699 72.5249C469.699 72.2061 469.762 71.9476 469.888 71.7495C470.013 71.549 470.181 71.392 470.391 71.2785C470.602 71.165 470.834 71.0804 471.087 71.0248C471.343 70.9669 471.6 70.921 471.859 70.8872C472.197 70.8437 472.471 70.8111 472.681 70.7893C472.894 70.7652 473.049 70.7253 473.145 70.6698C473.244 70.6142 473.294 70.5176 473.294 70.3799V70.3509C473.294 69.9934 473.196 69.7156 473 69.5175C472.807 69.3194 472.514 69.2204 472.12 69.2204C471.712 69.2204 471.392 69.3098 471.16 69.4885C470.928 69.6673 470.765 69.8581 470.67 70.061L469.859 69.7712C470.004 69.433 470.197 69.1697 470.439 68.9813C470.683 68.7904 470.948 68.6576 471.236 68.5827C471.526 68.5054 471.811 68.4667 472.091 68.4667C472.27 68.4667 472.475 68.4885 472.707 68.532C472.941 68.573 473.167 68.6588 473.384 68.7892C473.604 68.9197 473.787 69.1165 473.932 69.3798C474.076 69.6431 474.149 69.9958 474.149 70.4379V74.1047H473.294V73.3511H473.25C473.192 73.4718 473.096 73.6011 472.96 73.7388C472.825 73.8765 472.645 73.9936 472.421 74.0902C472.196 74.1869 471.922 74.2352 471.598 74.2352ZM471.728 73.467C472.067 73.467 472.352 73.4006 472.584 73.2677C472.818 73.1349 472.994 72.9634 473.113 72.7532C473.233 72.5431 473.294 72.322 473.294 72.0901V71.3075C473.258 71.351 473.178 71.3908 473.055 71.427C472.934 71.4609 472.794 71.4911 472.634 71.5176C472.477 71.5418 472.324 71.5635 472.174 71.5829C472.027 71.5998 471.907 71.6143 471.815 71.6263C471.593 71.6553 471.385 71.7024 471.192 71.7676C471.001 71.8305 470.847 71.9259 470.728 72.0539C470.612 72.1795 470.555 72.351 470.555 72.5684C470.555 72.8655 470.664 73.0902 470.884 73.2424C471.106 73.3921 471.388 73.467 471.728 73.467ZM475.71 74.1047V68.5392H476.536V69.3798H476.594C476.695 69.1044 476.879 68.881 477.145 68.7095C477.41 68.538 477.71 68.4522 478.043 68.4522C478.106 68.4522 478.184 68.4534 478.279 68.4559C478.373 68.4583 478.444 68.4619 478.492 68.4667V69.3363C478.463 69.3291 478.397 69.3182 478.293 69.3037C478.192 69.2868 478.084 69.2784 477.971 69.2784C477.7 69.2784 477.459 69.3351 477.246 69.4487C477.036 69.5598 476.869 69.7144 476.746 69.9125C476.625 70.1081 476.565 70.3316 476.565 70.5828V74.1047H475.71ZM482.361 74.1047V73.4525L484.811 70.7712C485.098 70.4572 485.335 70.1842 485.521 69.9523C485.707 69.718 485.845 69.4982 485.934 69.2929C486.026 69.0851 486.072 68.8677 486.072 68.6407C486.072 68.3798 486.009 68.1539 485.883 67.9631C485.76 67.7722 485.591 67.6249 485.376 67.521C485.161 67.4172 484.919 67.3652 484.651 67.3652C484.366 67.3652 484.117 67.4244 483.905 67.5428C483.695 67.6587 483.532 67.8218 483.416 68.0319C483.302 68.2421 483.245 68.4885 483.245 68.7711H482.39C482.39 68.3363 482.491 67.9546 482.691 67.6261C482.892 67.2976 483.165 67.0415 483.51 66.8579C483.858 66.6744 484.248 66.5826 484.68 66.5826C485.115 66.5826 485.5 66.6744 485.836 66.8579C486.172 67.0415 486.435 67.2891 486.626 67.6007C486.817 67.9123 486.912 68.259 486.912 68.6407C486.912 68.9136 486.863 69.1805 486.764 69.4414C486.667 69.6999 486.498 69.9886 486.257 70.3074C486.017 70.6239 485.685 71.0104 485.26 71.4669L483.593 73.2496V73.3076H487.043V74.1047H482.361ZM490.96 74.2062C490.414 74.2062 489.949 74.0576 489.565 73.7605C489.181 73.461 488.887 73.0274 488.684 72.4597C488.481 71.8896 488.38 71.2012 488.38 70.3944C488.38 69.5924 488.481 68.9076 488.684 68.3399C488.89 67.7698 489.184 67.335 489.568 67.0355C489.955 66.7335 490.419 66.5826 490.96 66.5826C491.501 66.5826 491.963 66.7335 492.347 67.0355C492.734 67.335 493.029 67.7698 493.232 68.3399C493.437 68.9076 493.54 69.5924 493.54 70.3944C493.54 71.2012 493.438 71.8896 493.235 72.4597C493.032 73.0274 492.739 73.461 492.355 73.7605C491.971 74.0576 491.506 74.2062 490.96 74.2062ZM490.96 73.409C491.501 73.409 491.921 73.1482 492.221 72.6264C492.52 72.1046 492.67 71.3606 492.67 70.3944C492.67 69.7518 492.601 69.2047 492.463 68.753C492.328 68.3013 492.132 67.957 491.876 67.7203C491.623 67.4836 491.317 67.3652 490.96 67.3652C490.423 67.3652 490.004 67.6297 489.702 68.1587C489.4 68.6853 489.249 69.4306 489.249 70.3944C489.249 71.0369 489.317 71.5829 489.452 72.0322C489.588 72.4815 489.782 72.8233 490.036 73.0576C490.292 73.2919 490.6 73.409 490.96 73.409ZM494.916 74.1047V73.4525L497.366 70.7712C497.653 70.4572 497.89 70.1842 498.076 69.9523C498.262 69.718 498.4 69.4982 498.489 69.2929C498.581 69.0851 498.627 68.8677 498.627 68.6407C498.627 68.3798 498.564 68.1539 498.438 67.9631C498.315 67.7722 498.146 67.6249 497.931 67.521C497.716 67.4172 497.475 67.3652 497.206 67.3652C496.921 67.3652 496.673 67.4244 496.46 67.5428C496.25 67.6587 496.087 67.8218 495.971 68.0319C495.857 68.2421 495.801 68.4885 495.801 68.7711H494.945C494.945 68.3363 495.046 67.9546 495.246 67.6261C495.447 67.2976 495.72 67.0415 496.065 66.8579C496.413 66.6744 496.803 66.5826 497.235 66.5826C497.67 66.5826 498.055 66.6744 498.391 66.8579C498.727 67.0415 498.99 67.2891 499.181 67.6007C499.372 67.9123 499.467 68.259 499.467 68.6407C499.467 68.9136 499.418 69.1805 499.319 69.4414C499.222 69.6999 499.053 69.9886 498.812 70.3074C498.572 70.6239 498.24 71.0104 497.815 71.4669L496.148 73.2496V73.3076H499.598V74.1047H494.916ZM500.761 72.5829V71.8437L504.022 66.684H504.558V67.829H504.196L501.732 71.7278V71.7858H506.124V72.5829H500.761ZM504.254 74.1047V72.3583V72.014V66.684H505.109V74.1047H504.254Z" fill="black"/>
<rect x="513.903" y="57" width="0.850291" height="27.2093" fill="#E5E5E5"/>
<mask id="mask3_9_21612" style="mask-type:alpha" maskUnits="userSpaceOnUse" x="519" y="62" width="18" height="18">
<rect x="519.855" y="62.1018" width="17.0058" height="17.0058" fill="#D9D9D9"/>
</mask>
<g mask="url(#mask3_9_21612)">
<path d="M528.783 70.6047L525.523 67.3453L526.515 66.3533L530.767 70.6047L526.515 74.8562L525.523 73.8642L528.783 70.6047Z" fill="black"/>
</g>
<g clip-path="url(#clip0_9_21612)">
<path d="M24.941 107.235V113.418H24.0049V108.171H23.9687L22.4892 109.137V108.243L24.0321 107.235H24.941ZM28.7667 113.521C28.2896 113.519 27.882 113.393 27.5438 113.144C27.2056 112.894 26.9469 112.531 26.7678 112.054C26.5886 111.577 26.4991 111.002 26.4991 110.33C26.4991 109.659 26.5886 109.086 26.7678 108.611C26.949 108.136 27.2086 107.774 27.5468 107.524C27.887 107.275 28.2936 107.15 28.7667 107.15C29.2397 107.15 29.6454 107.276 29.9836 107.527C30.3217 107.777 30.5804 108.139 30.7596 108.614C30.9407 109.087 31.0313 109.659 31.0313 110.33C31.0313 111.004 30.9417 111.58 30.7626 112.057C30.5834 112.532 30.3248 112.895 29.9866 113.147C29.6484 113.396 29.2418 113.521 28.7667 113.521ZM28.7667 112.715C29.1854 112.715 29.5125 112.511 29.748 112.102C29.9856 111.693 30.1043 111.103 30.1043 110.33C30.1043 109.816 30.05 109.382 29.9413 109.028C29.8346 108.672 29.6806 108.402 29.4793 108.219C29.28 108.034 29.0425 107.941 28.7667 107.941C28.35 107.941 28.0229 108.146 27.7854 108.557C27.5478 108.968 27.4281 109.559 27.426 110.33C27.426 110.845 27.4794 111.281 27.5861 111.637C27.6948 111.991 27.8488 112.26 28.0481 112.443C28.2473 112.624 28.4869 112.715 28.7667 112.715ZM34.2554 113.521C33.7783 113.519 33.3707 113.393 33.0325 113.144C32.6943 112.894 32.4356 112.531 32.2565 112.054C32.0773 111.577 31.9877 111.002 31.9877 110.33C31.9877 109.659 32.0773 109.086 32.2565 108.611C32.4377 108.136 32.6973 107.774 33.0355 107.524C33.3757 107.275 33.7823 107.15 34.2554 107.15C34.7284 107.15 35.1341 107.276 35.4722 107.527C35.8104 107.777 36.0691 108.139 36.2483 108.614C36.4294 109.087 36.52 109.659 36.52 110.33C36.52 111.004 36.4304 111.58 36.2513 112.057C36.0721 112.532 35.8134 112.895 35.4753 113.147C35.1371 113.396 34.7305 113.521 34.2554 113.521ZM34.2554 112.715C34.6741 112.715 35.0012 112.511 35.2367 112.102C35.4743 111.693 35.593 111.103 35.593 110.33C35.593 109.816 35.5387 109.382 35.43 109.028C35.3233 108.672 35.1693 108.402 34.968 108.219C34.7687 108.034 34.5312 107.941 34.2554 107.941C33.8387 107.941 33.5116 108.146 33.2741 108.557C33.0365 108.968 32.9167 109.559 32.9147 110.33C32.9147 110.845 32.9681 111.281 33.0748 111.637C33.1835 111.991 33.3375 112.26 33.5367 112.443C33.736 112.624 33.9756 112.715 34.2554 112.715ZM39.7441 113.521C39.267 113.519 38.8594 113.393 38.5212 113.144C38.183 112.894 37.9243 112.531 37.7452 112.054C37.566 111.577 37.4764 111.002 37.4764 110.33C37.4764 109.659 37.566 109.086 37.7452 108.611C37.9263 108.136 38.186 107.774 38.5242 107.524C38.8644 107.275 39.271 107.15 39.7441 107.15C40.2171 107.15 40.6228 107.276 40.9609 107.527C41.2991 107.777 41.5578 108.139 41.737 108.614C41.9181 109.087 42.0087 109.659 42.0087 110.33C42.0087 111.004 41.9191 111.58 41.74 112.057C41.5608 112.532 41.3021 112.895 40.964 113.147C40.6258 113.396 40.2191 113.521 39.7441 113.521ZM39.7441 112.715C40.1628 112.715 40.4899 112.511 40.7254 112.102C40.963 111.693 41.0817 111.103 41.0817 110.33C41.0817 109.816 41.0274 109.382 40.9187 109.028C40.812 108.672 40.658 108.402 40.4567 108.219C40.2574 108.034 40.0199 107.941 39.7441 107.941C39.3274 107.941 39.0003 108.146 38.7627 108.557C38.5252 108.968 38.4054 109.559 38.4034 110.33C38.4034 110.845 38.4568 111.281 38.5635 111.637C38.6722 111.991 38.8262 112.26 39.0254 112.443C39.2247 112.624 39.4643 112.715 39.7441 112.715ZM43.1644 113.418V107.235H44.0974V110.188H44.1729L46.7667 107.235H47.9413L45.4472 110.019L47.9503 113.418H46.8271L44.8282 110.656L44.0974 111.495V113.418H43.1644Z" fill="#CACACA"/>
<path d="M42.407 110.418H548" stroke="#E5E5E5" stroke-width="0.850291" stroke-dasharray="3.4 3.4"/>
<path d="M24.636 151.171C24.2576 151.171 23.9174 151.099 23.6154 150.954C23.3155 150.807 23.0759 150.606 22.8968 150.35C22.7176 150.095 22.622 149.803 22.6099 149.475H23.5158C23.5379 149.74 23.6557 149.959 23.8691 150.13C24.0824 150.301 24.3381 150.386 24.636 150.386C24.8736 150.386 25.0839 150.332 25.2671 150.223C25.4523 150.113 25.5972 149.961 25.7019 149.767C25.8086 149.574 25.8619 149.354 25.8619 149.106C25.8619 148.854 25.8076 148.63 25.6989 148.433C25.5902 148.236 25.4402 148.081 25.249 147.968C25.0598 147.855 24.8424 147.798 24.5968 147.796C24.4096 147.796 24.2213 147.828 24.0321 147.892C23.8429 147.957 23.6899 148.041 23.5732 148.146L22.7186 148.019L23.0659 144.903H26.4658V145.703H23.8419L23.6456 147.433H23.6819C23.8026 147.317 23.9627 147.219 24.162 147.14C24.3633 147.062 24.5787 147.023 24.8081 147.023C25.1846 147.023 25.5197 147.112 25.8136 147.291C26.1095 147.471 26.342 147.715 26.5111 148.025C26.6822 148.333 26.7668 148.687 26.7648 149.088C26.7668 149.489 26.6762 149.846 26.493 150.16C26.3118 150.474 26.0602 150.722 25.7381 150.903C25.4181 151.082 25.0507 151.171 24.636 151.171ZM30.0205 151.19C29.5435 151.188 29.1358 151.062 28.7976 150.812C28.4595 150.563 28.2008 150.199 28.0216 149.722C27.8425 149.245 27.7529 148.67 27.7529 147.998C27.7529 147.328 27.8425 146.755 28.0216 146.28C28.2028 145.805 28.4625 145.442 28.8007 145.193C29.1409 144.943 29.5475 144.818 30.0205 144.818C30.4936 144.818 30.8992 144.944 31.2374 145.196C31.5756 145.445 31.8343 145.808 32.0134 146.283C32.1946 146.756 32.2852 147.328 32.2852 147.998C32.2852 148.672 32.1956 149.248 32.0164 149.725C31.8373 150.2 31.5786 150.564 31.2404 150.815C30.9022 151.065 30.4956 151.19 30.0205 151.19ZM30.0205 150.383C30.4392 150.383 30.7664 150.179 31.0019 149.77C31.2394 149.362 31.3582 148.771 31.3582 147.998C31.3582 147.485 31.3038 147.051 31.1951 146.697C31.0884 146.34 30.9344 146.071 30.7331 145.887C30.5339 145.702 30.2963 145.61 30.0205 145.61C29.6039 145.61 29.2767 145.815 29.0392 146.226C28.8017 146.636 28.6819 147.227 28.6799 147.998C28.6799 148.513 28.7332 148.949 28.8399 149.305C28.9486 149.66 29.1026 149.928 29.3019 150.112C29.5012 150.293 29.7407 150.383 30.0205 150.383ZM35.5092 151.19C35.0322 151.188 34.6245 151.062 34.2863 150.812C33.9482 150.563 33.6895 150.199 33.5103 149.722C33.3312 149.245 33.2416 148.67 33.2416 147.998C33.2416 147.328 33.3312 146.755 33.5103 146.28C33.6915 145.805 33.9512 145.442 34.2894 145.193C34.6296 144.943 35.0362 144.818 35.5092 144.818C35.9823 144.818 36.3879 144.944 36.7261 145.196C37.0643 145.445 37.3229 145.808 37.5021 146.283C37.6833 146.756 37.7739 147.328 37.7739 147.998C37.7739 148.672 37.6843 149.248 37.5051 149.725C37.326 150.2 37.0673 150.564 36.7291 150.815C36.3909 151.065 35.9843 151.19 35.5092 151.19ZM35.5092 150.383C35.9279 150.383 36.2551 150.179 36.4906 149.77C36.7281 149.362 36.8469 148.771 36.8469 147.998C36.8469 147.485 36.7925 147.051 36.6838 146.697C36.5771 146.34 36.4231 146.071 36.2218 145.887C36.0225 145.702 35.785 145.61 35.5092 145.61C35.0925 145.61 34.7654 145.815 34.5279 146.226C34.2904 146.636 34.1706 147.227 34.1686 147.998C34.1686 148.513 34.2219 148.949 34.3286 149.305C34.4373 149.66 34.5913 149.928 34.7906 150.112C34.9899 150.293 35.2294 150.383 35.5092 150.383ZM38.9296 151.087V144.903H39.8626V147.856H39.9381L42.5318 144.903H43.7064L41.2123 147.687L43.7155 151.087H42.5922L40.5933 148.324L39.8626 149.163V151.087H38.9296Z" fill="#CACACA"/>
<path d="M42.407 148.087H548" stroke="#E5E5E5" stroke-width="0.850291" stroke-dasharray="3.4 3.4"/>
<path d="M22.5948 188.755V188.079L24.6874 185.911C24.9108 185.675 25.095 185.469 25.2399 185.292C25.3869 185.113 25.4966 184.943 25.569 184.782C25.6415 184.621 25.6777 184.45 25.6777 184.268C25.6777 184.063 25.6294 183.886 25.5328 183.737C25.4362 183.586 25.3043 183.47 25.1373 183.39C24.9702 183.307 24.782 183.266 24.5726 183.266C24.3512 183.266 24.1579 183.311 23.9929 183.402C23.8278 183.492 23.701 183.62 23.6124 183.785C23.5238 183.95 23.4796 184.144 23.4796 184.365H22.5888C22.5888 183.989 22.6754 183.659 22.8485 183.378C23.0216 183.096 23.2591 182.877 23.5611 182.722C23.863 182.565 24.2062 182.487 24.5907 182.487C24.9792 182.487 25.3214 182.564 25.6174 182.719C25.9153 182.872 26.1478 183.082 26.3149 183.347C26.4819 183.611 26.5655 183.909 26.5655 184.241C26.5655 184.471 26.5222 184.695 26.4356 184.915C26.3511 185.134 26.2031 185.379 25.9918 185.648C25.7804 185.916 25.4865 186.241 25.1101 186.624L23.8811 187.91V187.955H26.6651V188.755H22.5948ZM29.9624 188.858C29.4853 188.856 29.0777 188.73 28.7395 188.481C28.4013 188.231 28.1427 187.868 27.9635 187.391C27.7844 186.913 27.6948 186.339 27.6948 185.666C27.6948 184.996 27.7844 184.423 27.9635 183.948C28.1447 183.473 28.4044 183.111 28.7425 182.861C29.0827 182.612 29.4894 182.487 29.9624 182.487C30.4355 182.487 30.8411 182.613 31.1793 182.864C31.5175 183.114 31.7761 183.476 31.9553 183.951C32.1365 184.424 32.227 184.996 32.227 185.666C32.227 186.341 32.1375 186.916 31.9583 187.394C31.7791 187.869 31.5205 188.232 31.1823 188.484C30.8441 188.733 30.4375 188.858 29.9624 188.858ZM29.9624 188.052C30.3811 188.052 30.7082 187.848 30.9438 187.439C31.1813 187.03 31.3001 186.439 31.3001 185.666C31.3001 185.153 31.2457 184.719 31.137 184.365C31.0303 184.009 30.8763 183.739 30.675 183.556C30.4757 183.371 30.2382 183.278 29.9624 183.278C29.5457 183.278 29.2186 183.483 28.9811 183.894C28.7435 184.305 28.6238 184.895 28.6218 185.666C28.6218 186.182 28.6751 186.618 28.7818 186.974C28.8905 187.328 29.0445 187.597 29.2438 187.78C29.4431 187.961 29.6826 188.052 29.9624 188.052ZM35.4511 188.858C34.974 188.856 34.5664 188.73 34.2282 188.481C33.89 188.231 33.6314 187.868 33.4522 187.391C33.273 186.913 33.1835 186.339 33.1835 185.666C33.1835 184.996 33.273 184.423 33.4522 183.948C33.6334 183.473 33.893 183.111 34.2312 182.861C34.5714 182.612 34.9781 182.487 35.4511 182.487C35.9242 182.487 36.3298 182.613 36.668 182.864C37.0062 183.114 37.2648 183.476 37.444 183.951C37.6251 184.424 37.7157 184.996 37.7157 185.666C37.7157 186.341 37.6262 186.916 37.447 187.394C37.2678 187.869 37.0092 188.232 36.671 188.484C36.3328 188.733 35.9262 188.858 35.4511 188.858ZM35.4511 188.052C35.8698 188.052 36.1969 187.848 36.4324 187.439C36.67 187.03 36.7887 186.439 36.7887 185.666C36.7887 185.153 36.7344 184.719 36.6257 184.365C36.519 184.009 36.365 183.739 36.1637 183.556C35.9644 183.371 35.7269 183.278 35.4511 183.278C35.0344 183.278 34.7073 183.483 34.4698 183.894C34.2322 184.305 34.1125 184.895 34.1105 185.666C34.1105 186.182 34.1638 186.618 34.2705 186.974C34.3792 187.328 34.5332 187.597 34.7325 187.78C34.9318 187.961 35.1713 188.052 35.4511 188.052ZM38.8714 188.755V182.571H39.8045V185.525H39.88L42.4737 182.571H43.6483L41.1542 185.355L43.6574 188.755H42.5341L40.5352 185.993L39.8045 186.832V188.755H38.8714Z" fill="#CACACA"/>
<path d="M42.407 185.755H548" stroke="#E5E5E5" stroke-width="0.850291" stroke-dasharray="3.4 3.4"/>
<path d="M24.941 220.24V226.424H24.0049V221.176H23.9687L22.4892 222.142V221.248L24.0321 220.24H24.941ZM28.7667 226.526C28.2896 226.524 27.882 226.399 27.5438 226.149C27.2056 225.899 26.9469 225.536 26.7678 225.059C26.5886 224.582 26.4991 224.007 26.4991 223.335C26.4991 222.665 26.5886 222.092 26.7678 221.617C26.949 221.142 27.2086 220.779 27.5468 220.53C27.887 220.28 28.2936 220.155 28.7667 220.155C29.2397 220.155 29.6454 220.281 29.9836 220.533C30.3217 220.782 30.5804 221.145 30.7596 221.62C30.9407 222.093 31.0313 222.665 31.0313 223.335C31.0313 224.009 30.9417 224.585 30.7626 225.062C30.5834 225.537 30.3248 225.9 29.9866 226.152C29.6484 226.402 29.2418 226.526 28.7667 226.526ZM28.7667 225.72C29.1854 225.72 29.5125 225.516 29.748 225.107C29.9856 224.699 30.1043 224.108 30.1043 223.335C30.1043 222.822 30.05 222.388 29.9413 222.033C29.8346 221.677 29.6806 221.407 29.4793 221.224C29.28 221.039 29.0425 220.946 28.7667 220.946C28.35 220.946 28.0229 221.152 27.7854 221.562C27.5478 221.973 27.4281 222.564 27.426 223.335C27.426 223.85 27.4794 224.286 27.5861 224.642C27.6948 224.997 27.8488 225.265 28.0481 225.449C28.2473 225.63 28.4869 225.72 28.7667 225.72ZM34.2554 226.526C33.7783 226.524 33.3707 226.399 33.0325 226.149C32.6943 225.899 32.4356 225.536 32.2565 225.059C32.0773 224.582 31.9877 224.007 31.9877 223.335C31.9877 222.665 32.0773 222.092 32.2565 221.617C32.4377 221.142 32.6973 220.779 33.0355 220.53C33.3757 220.28 33.7823 220.155 34.2554 220.155C34.7284 220.155 35.1341 220.281 35.4722 220.533C35.8104 220.782 36.0691 221.145 36.2483 221.62C36.4294 222.093 36.52 222.665 36.52 223.335C36.52 224.009 36.4304 224.585 36.2513 225.062C36.0721 225.537 35.8134 225.9 35.4753 226.152C35.1371 226.402 34.7305 226.526 34.2554 226.526ZM34.2554 225.72C34.6741 225.72 35.0012 225.516 35.2367 225.107C35.4743 224.699 35.593 224.108 35.593 223.335C35.593 222.822 35.5387 222.388 35.43 222.033C35.3233 221.677 35.1693 221.407 34.968 221.224C34.7687 221.039 34.5312 220.946 34.2554 220.946C33.8387 220.946 33.5116 221.152 33.2741 221.562C33.0365 221.973 32.9167 222.564 32.9147 223.335C32.9147 223.85 32.9681 224.286 33.0748 224.642C33.1835 224.997 33.3375 225.265 33.5367 225.449C33.736 225.63 33.9756 225.72 34.2554 225.72ZM37.6757 226.424V220.24H38.6087V223.193H38.6842L41.278 220.24H42.4526L39.9585 223.024L42.4616 226.424H41.3384L39.3395 223.661L38.6087 224.5V226.424H37.6757Z" fill="#CACACA"/>
<path d="M42.407 223.424H548" stroke="#E5E5E5" stroke-width="0.850291" stroke-dasharray="3.4 3.4"/>
<path d="M22.465 262.884V262.129L25.1373 257.908H25.7321V259.019H25.3547L23.4433 262.045V262.093H27.106V262.884H22.465ZM25.3969 264.092V262.655L25.403 262.311V257.908H26.2877V264.092H25.3969ZM30.3112 264.195C29.8341 264.193 29.4265 264.067 29.0883 263.817C28.7501 263.568 28.4914 263.204 28.3123 262.727C28.1331 262.25 28.0435 261.675 28.0435 261.003C28.0435 260.333 28.1331 259.76 28.3123 259.285C28.4934 258.81 28.7531 258.448 29.0913 258.198C29.4315 257.948 29.8381 257.824 30.3112 257.824C30.7842 257.824 31.1898 257.949 31.528 258.201C31.8662 258.451 32.1249 258.813 32.304 259.288C32.4852 259.761 32.5758 260.333 32.5758 261.003C32.5758 261.677 32.4862 262.253 32.3071 262.73C32.1279 263.205 31.8692 263.569 31.531 263.82C31.1929 264.07 30.7862 264.195 30.3112 264.195ZM30.3112 263.388C30.7299 263.388 31.057 263.184 31.2925 262.776C31.53 262.367 31.6488 261.776 31.6488 261.003C31.6488 260.49 31.5945 260.056 31.4858 259.702C31.3791 259.345 31.2251 259.076 31.0238 258.892C30.8245 258.707 30.5869 258.615 30.3112 258.615C29.8945 258.615 29.5674 258.82 29.3298 259.231C29.0923 259.641 28.9725 260.232 28.9705 261.003C28.9705 261.518 29.0239 261.954 29.1305 262.311C29.2392 262.665 29.3932 262.934 29.5925 263.117C29.7918 263.298 30.0314 263.388 30.3112 263.388ZM33.7315 264.092V257.908H34.6645V260.861H34.74L37.3338 257.908H38.5084L36.0142 260.692L38.5174 264.092H37.3942L35.3952 261.329L34.6645 262.169V264.092H33.7315Z" fill="#CACACA"/>
<path d="M42.407 261.092H548" stroke="#E5E5E5" stroke-width="0.850291" stroke-dasharray="3.4 3.4"/>
<path d="M24.7477 301.845C24.3331 301.845 23.9627 301.774 23.6366 301.631C23.3125 301.488 23.0558 301.289 22.8666 301.036C22.6794 300.78 22.5787 300.484 22.5646 300.148H23.5128C23.5248 300.331 23.5862 300.49 23.697 300.625C23.8097 300.758 23.9566 300.861 24.1378 300.933C24.319 301.006 24.5203 301.042 24.7417 301.042C24.9853 301.042 25.2007 301 25.3879 300.915C25.5771 300.83 25.7251 300.713 25.8317 300.562C25.9384 300.409 25.9918 300.233 25.9918 300.033C25.9918 299.826 25.9384 299.644 25.8317 299.487C25.7271 299.328 25.5731 299.203 25.3698 299.112C25.1685 299.022 24.9249 298.977 24.639 298.977H24.1167V298.216H24.639C24.8685 298.216 25.0698 298.174 25.2429 298.092C25.4181 298.009 25.555 297.895 25.6536 297.748C25.7522 297.599 25.8015 297.424 25.8015 297.225C25.8015 297.034 25.7583 296.868 25.6717 296.727C25.5872 296.584 25.4664 296.472 25.3094 296.392C25.1544 296.311 24.9712 296.271 24.7598 296.271C24.5585 296.271 24.3703 296.308 24.1952 296.383C24.0221 296.455 23.8811 296.56 23.7724 296.697C23.6637 296.832 23.6054 296.994 23.5973 297.183H22.6945C22.7045 296.849 22.8032 296.555 22.9904 296.301C23.1796 296.048 23.4292 295.849 23.7392 295.706C24.0492 295.563 24.3935 295.492 24.7719 295.492C25.1685 295.492 25.5107 295.57 25.7985 295.725C26.0884 295.878 26.3118 296.082 26.4689 296.337C26.6279 296.593 26.7064 296.873 26.7044 297.177C26.7064 297.523 26.6098 297.817 26.4145 298.059C26.2213 298.3 25.9636 298.462 25.6415 298.545V298.593C26.0522 298.655 26.3702 298.819 26.5957 299.082C26.8231 299.346 26.9359 299.673 26.9339 300.064C26.9359 300.404 26.8413 300.709 26.65 300.978C26.4608 301.248 26.2021 301.461 25.874 301.616C25.5459 301.769 25.1705 301.845 24.7477 301.845ZM30.2281 301.863C29.7511 301.861 29.3434 301.735 29.0052 301.486C28.6671 301.236 28.4084 300.873 28.2292 300.396C28.0501 299.919 27.9605 299.344 27.9605 298.672C27.9605 298.001 28.0501 297.429 28.2292 296.953C28.4104 296.478 28.6701 296.116 29.0083 295.866C29.3485 295.617 29.7551 295.492 30.2281 295.492C30.7012 295.492 31.1068 295.618 31.445 295.869C31.7832 296.119 32.0418 296.481 32.221 296.956C32.4022 297.43 32.4928 298.001 32.4928 298.672C32.4928 299.346 32.4032 299.922 32.224 300.399C32.0449 300.874 31.7862 301.237 31.448 301.489C31.1098 301.738 30.7032 301.863 30.2281 301.863ZM30.2281 301.057C30.6468 301.057 30.9739 300.853 31.2095 300.444C31.447 300.035 31.5658 299.445 31.5658 298.672C31.5658 298.158 31.5114 297.724 31.4027 297.37C31.296 297.014 31.142 296.744 30.9407 296.561C30.7414 296.376 30.5039 296.283 30.2281 296.283C29.8114 296.283 29.4843 296.488 29.2468 296.899C29.0093 297.31 28.8895 297.901 28.8875 298.672C28.8875 299.187 28.9408 299.623 29.0475 299.979C29.1562 300.333 29.3102 300.602 29.5095 300.785C29.7088 300.966 29.9483 301.057 30.2281 301.057ZM33.6485 301.76V295.577H34.5815V298.53H34.657L37.2507 295.577H38.4253L35.9312 298.361L38.4344 301.76H37.3111L35.3122 298.998L34.5815 299.837V301.76H33.6485Z" fill="#CACACA"/>
<path d="M42.407 298.76H548" stroke="#E5E5E5" stroke-width="0.850291" stroke-dasharray="3.4 3.4"/>
<path d="M22.5948 339.429V338.753L24.6874 336.585C24.9108 336.349 25.095 336.143 25.2399 335.966C25.3869 335.786 25.4966 335.616 25.569 335.455C25.6415 335.294 25.6777 335.123 25.6777 334.942C25.6777 334.737 25.6294 334.56 25.5328 334.411C25.4362 334.26 25.3043 334.144 25.1373 334.063C24.9702 333.981 24.782 333.94 24.5726 333.94C24.3512 333.94 24.1579 333.985 23.9929 334.075C23.8278 334.166 23.701 334.294 23.6124 334.459C23.5238 334.624 23.4796 334.817 23.4796 335.039H22.5888C22.5888 334.662 22.6754 334.333 22.8485 334.051C23.0216 333.769 23.2591 333.551 23.5611 333.396C23.863 333.239 24.2062 333.16 24.5907 333.16C24.9792 333.16 25.3214 333.238 25.6174 333.393C25.9153 333.546 26.1478 333.755 26.3149 334.021C26.4819 334.285 26.5655 334.583 26.5655 334.915C26.5655 335.144 26.5222 335.369 26.4356 335.588C26.3511 335.808 26.2031 336.052 25.9918 336.322C25.7804 336.59 25.4865 336.915 25.1101 337.297L23.8811 338.583V338.629H26.6651V339.429H22.5948ZM29.9624 339.532C29.4853 339.53 29.0777 339.404 28.7395 339.154C28.4013 338.905 28.1427 338.541 27.9635 338.064C27.7844 337.587 27.6948 337.012 27.6948 336.34C27.6948 335.67 27.7844 335.097 27.9635 334.622C28.1447 334.147 28.4044 333.785 28.7425 333.535C29.0827 333.285 29.4894 333.16 29.9624 333.16C30.4355 333.16 30.8411 333.286 31.1793 333.538C31.5175 333.788 31.7761 334.15 31.9553 334.625C32.1365 335.098 32.227 335.67 32.227 336.34C32.227 337.014 32.1375 337.59 31.9583 338.067C31.7791 338.542 31.5205 338.906 31.1823 339.157C30.8441 339.407 30.4375 339.532 29.9624 339.532ZM29.9624 338.725C30.3811 338.725 30.7082 338.521 30.9438 338.112C31.1813 337.704 31.3001 337.113 31.3001 336.34C31.3001 335.827 31.2457 335.393 31.137 335.039C31.0303 334.682 30.8763 334.413 30.675 334.229C30.4757 334.044 30.2382 333.952 29.9624 333.952C29.5457 333.952 29.2186 334.157 28.9811 334.568C28.7435 334.978 28.6238 335.569 28.6218 336.34C28.6218 336.855 28.6751 337.291 28.7818 337.647C28.8905 338.002 29.0445 338.27 29.2438 338.454C29.4431 338.635 29.6826 338.725 29.9624 338.725Z" fill="#CACACA"/>
<path d="M42.407 336.429H548" stroke="#E5E5E5" stroke-width="0.850291" stroke-dasharray="3.4 3.4"/>
<path d="M24.941 370.913V377.097H24.0049V371.85H23.9687L22.4892 372.816V371.922L24.0321 370.913H24.941ZM28.7667 377.2C28.2896 377.198 27.882 377.072 27.5438 376.823C27.2056 376.573 26.9469 376.21 26.7678 375.733C26.5886 375.256 26.4991 374.681 26.4991 374.008C26.4991 373.338 26.5886 372.765 26.7678 372.29C26.949 371.815 27.2086 371.453 27.5468 371.203C27.887 370.954 28.2936 370.829 28.7667 370.829C29.2397 370.829 29.6454 370.955 29.9836 371.206C30.3217 371.456 30.5804 371.818 30.7596 372.293C30.9407 372.766 31.0313 373.338 31.0313 374.008C31.0313 374.683 30.9417 375.259 30.7626 375.736C30.5834 376.211 30.3248 376.574 29.9866 376.826C29.6484 377.075 29.2418 377.2 28.7667 377.2ZM28.7667 376.394C29.1854 376.394 29.5125 376.19 29.748 375.781C29.9856 375.372 30.1043 374.781 30.1043 374.008C30.1043 373.495 30.05 373.061 29.9413 372.707C29.8346 372.351 29.6806 372.081 29.4793 371.898C29.28 371.713 29.0425 371.62 28.7667 371.62C28.35 371.62 28.0229 371.825 27.7854 372.236C27.5478 372.647 27.4281 373.237 27.426 374.008C27.426 374.524 27.4794 374.96 27.5861 375.316C27.6948 375.67 27.8488 375.939 28.0481 376.122C28.2473 376.303 28.4869 376.394 28.7667 376.394Z" fill="#CACACA"/>
<path d="M42.407 374.097H548" stroke="#E5E5E5" stroke-width="0.850291" stroke-dasharray="3.4 3.4"/>
<path d="M24.7477 414.869C24.2707 414.867 23.863 414.741 23.5248 414.491C23.1867 414.241 22.928 413.878 22.7488 413.401C22.5697 412.924 22.4801 412.349 22.4801 411.677C22.4801 411.007 22.5697 410.434 22.7488 409.959C22.93 409.484 23.1897 409.121 23.5279 408.872C23.8681 408.622 24.2747 408.497 24.7477 408.497C25.2208 408.497 25.6264 408.623 25.9646 408.875C26.3028 409.124 26.5615 409.487 26.7406 409.962C26.9218 410.435 27.0124 411.007 27.0124 411.677C27.0124 412.351 26.9228 412.927 26.7436 413.404C26.5645 413.879 26.3058 414.242 25.9676 414.494C25.6294 414.744 25.2228 414.869 24.7477 414.869ZM24.7477 414.062C25.1664 414.062 25.4936 413.858 25.7291 413.449C25.9666 413.041 26.0854 412.45 26.0854 411.677C26.0854 411.164 26.031 410.73 25.9223 410.376C25.8156 410.019 25.6616 409.749 25.4603 409.566C25.2611 409.381 25.0235 409.288 24.7477 409.288C24.3311 409.288 24.0039 409.494 23.7664 409.904C23.5289 410.315 23.4091 410.906 23.4071 411.677C23.4071 412.192 23.4604 412.628 23.5671 412.984C23.6758 413.339 23.8298 413.607 24.0291 413.791C24.2284 413.972 24.4679 414.062 24.7477 414.062Z" fill="#CACACA"/>
<path d="M42.407 411.766H548" stroke="#E5E5E5" stroke-width="0.850291" stroke-dasharray="3.4 3.4"/>
<rect opacity="0.1" x="54.5667" y="110.418" width="27" height="317" fill="#B9C3FD"/>
<rect x="54.5667" y="395.914" width="27" height="31.7218" rx="6" fill="#B9C3FD"/>
<rect opacity="0.1" x="105.912" y="110.418" width="27" height="317" fill="#B9C3FD"/>
<rect x="105.912" y="364.192" width="27" height="63.4435" rx="6" fill="#B9C3FD"/>
<rect opacity="0.1" x="157.258" y="110.418" width="27" height="317" fill="#B9C3FD"/>
<rect x="157.258" y="332.471" width="27" height="95.1653" rx="6" fill="#B9C3FD"/>
<rect opacity="0.1" x="208.603" y="110.418" width="27" height="317" fill="#B9C3FD"/>
<rect x="208.603" y="300.749" width="27" height="126.887" rx="6" fill="#B9C3FD"/>
<rect opacity="0.1" x="259.948" y="110.418" width="27" height="317" fill="#B9C3FD"/>
<rect x="259.948" y="269.027" width="27" height="158.609" rx="6" fill="#B9C3FD"/>
<rect opacity="0.1" x="311.294" y="110.418" width="27" height="317" fill="#B9C3FD"/>
<rect x="311.294" y="237.305" width="27" height="190.331" rx="6" fill="#B9C3FD"/>
<rect opacity="0.1" x="362.639" y="110.418" width="27" height="317" fill="#B9C3FD"/>
<rect x="362.639" y="205.584" width="27" height="222.052" rx="6" fill="#B9C3FD"/>
<rect opacity="0.1" x="413.985" y="110.418" width="27" height="317" fill="#B9C3FD"/>
<rect x="413.985" y="173.862" width="27" height="253.774" rx="6" fill="#B9C3FD"/>
<rect opacity="0.1" x="465.33" y="110.418" width="27" height="317" fill="#B9C3FD"/>
<rect x="465.33" y="142.14" width="27" height="285.496" rx="6" fill="#B9C3FD"/>
<rect opacity="0.1" x="516.676" y="110.418" width="27" height="317" fill="#B9C3FD"/>
<rect x="516.676" y="110.418" width="27" height="317.218" rx="6" fill="#B9C3FD"/>
</g>
</g>
<defs>
<filter id="filter0_d_9_21612" x="0" y="0" width="564" height="447" filterUnits="userSpaceOnUse" color-interpolation-filters="sRGB">
<feFlood flood-opacity="0" result="BackgroundImageFix"/>
<feColorMatrix in="SourceAlpha" type="matrix" values="0 0 0 0 0 0 0 0 0 0 0 0 0 0 0 0 0 0 127 0" result="hardAlpha"/>
<feOffset dy="2"/>
<feGaussianBlur stdDeviation="4"/>
<feComposite in2="hardAlpha" operator="out"/>
<feColorMatrix type="matrix" values="0 0 0 0 0 0 0 0 0 0 0 0 0 0 0 0 0 0 0.15 0"/>
<feBlend mode="normal" in2="BackgroundImageFix" result="effect1_dropShadow_9_21612"/>
<feBlend mode="normal" in="SourceGraphic" in2="effect1_dropShadow_9_21612" result="shape"/>
</filter>
<clipPath id="clip0_9_21612">
<rect width="524" height="325" fill="white" transform="translate(18 98.2092)"/>
</clipPath>
</defs>
</svg>
