<svg width="900" height="453" viewBox="0 0 900 453" fill="none" xmlns="http://www.w3.org/2000/svg">
<g filter="url(#filter0_d_9_4691)">
<g clip-path="url(#clip0_9_4691)">
<rect x="8" y="6" width="884" height="436.977" rx="10.0455" fill="white"/>
<path d="M18.6137 22.4375V20.409H28.1705V22.4375H24.608V32.0454H22.1762V22.4375H18.6137ZM32.3765 32.2159C31.4939 32.2159 30.7307 32.0284 30.0867 31.6534C29.4466 31.2746 28.9523 30.7481 28.6038 30.0738C28.2553 29.3958 28.081 28.6098 28.081 27.7159C28.081 26.8143 28.2553 26.0265 28.6038 25.3522C28.9523 24.6742 29.4466 24.1477 30.0867 23.7727C30.7307 23.3939 31.4939 23.2045 32.3765 23.2045C33.2591 23.2045 34.0204 23.3939 34.6606 23.7727C35.3045 24.1477 35.8007 24.6742 36.1492 25.3522C36.4977 26.0265 36.672 26.8143 36.672 27.7159C36.672 28.6098 36.4977 29.3958 36.1492 30.0738C35.8007 30.7481 35.3045 31.2746 34.6606 31.6534C34.0204 32.0284 33.2591 32.2159 32.3765 32.2159ZM32.3879 30.3409C32.7894 30.3409 33.1246 30.2272 33.3935 30C33.6625 29.7689 33.8651 29.4545 34.0015 29.0568C34.1416 28.659 34.2117 28.2064 34.2117 27.6988C34.2117 27.1912 34.1416 26.7386 34.0015 26.3409C33.8651 25.9431 33.6625 25.6287 33.3935 25.3977C33.1246 25.1666 32.7894 25.0511 32.3879 25.0511C31.9826 25.0511 31.6416 25.1666 31.3651 25.3977C31.0924 25.6287 30.886 25.9431 30.7458 26.3409C30.6095 26.7386 30.5413 27.1912 30.5413 27.6988C30.5413 28.2064 30.6095 28.659 30.7458 29.0568C30.886 29.4545 31.0924 29.7689 31.3651 30C31.6416 30.2272 31.9826 30.3409 32.3879 30.3409ZM42.8879 23.3181V25.1363H37.6322V23.3181H42.8879ZM38.8254 21.2272H41.2458V29.3636C41.2458 29.5871 41.2799 29.7613 41.3481 29.8863C41.4163 30.0075 41.511 30.0928 41.6322 30.142C41.7572 30.1912 41.9011 30.2159 42.064 30.2159C42.1776 30.2159 42.2913 30.2064 42.4049 30.1875C42.5185 30.1647 42.6057 30.1477 42.6663 30.1363L43.047 31.9375C42.9257 31.9753 42.7553 32.0189 42.5356 32.0681C42.3159 32.1212 42.0488 32.1534 41.7345 32.1647C41.1511 32.1875 40.6398 32.1098 40.2004 31.9318C39.7648 31.7537 39.4257 31.4772 39.1833 31.1022C38.9409 30.7272 38.8216 30.2537 38.8254 29.6818V21.2272ZM46.9532 32.2102C46.3964 32.2102 45.9002 32.1136 45.4646 31.9204C45.029 31.7234 44.6843 31.4337 44.4305 31.0511C44.1805 30.6647 44.0555 30.1837 44.0555 29.6079C44.0555 29.1231 44.1445 28.7159 44.3225 28.3863C44.5006 28.0568 44.743 27.7916 45.0498 27.5909C45.3566 27.3901 45.7051 27.2386 46.0952 27.1363C46.4892 27.034 46.9021 26.9621 47.3339 26.9204C47.8415 26.8674 48.2506 26.8181 48.5612 26.7727C48.8718 26.7234 49.0971 26.6515 49.2373 26.5568C49.3774 26.4621 49.4475 26.3219 49.4475 26.1363V26.1022C49.4475 25.7424 49.3339 25.464 49.1066 25.267C48.8831 25.07 48.5649 24.9715 48.1521 24.9715C47.7165 24.9715 47.3699 25.0681 47.1123 25.2613C46.8547 25.4507 46.6843 25.6893 46.6009 25.9772L44.3623 25.7954C44.4759 25.2651 44.6994 24.8068 45.0327 24.4204C45.3661 24.0303 45.796 23.731 46.3225 23.5227C46.8528 23.3106 47.4665 23.2045 48.1634 23.2045C48.6483 23.2045 49.1123 23.2613 49.5555 23.375C50.0024 23.4886 50.3983 23.6647 50.743 23.9034C51.0915 24.142 51.3661 24.4488 51.5668 24.8238C51.7676 25.195 51.868 25.6401 51.868 26.159V32.0454H49.5725V30.8352H49.5043C49.3642 31.1079 49.1767 31.3484 48.9418 31.5568C48.707 31.7613 48.4248 31.9223 48.0952 32.0397C47.7657 32.1534 47.385 32.2102 46.9532 32.2102ZM47.6464 30.5397C48.0024 30.5397 48.3168 30.4697 48.5896 30.3295C48.8623 30.1856 49.0763 29.9924 49.2316 29.75C49.3869 29.5075 49.4646 29.2329 49.4646 28.9261V28C49.3888 28.0492 49.2846 28.0947 49.1521 28.1363C49.0233 28.1742 48.8774 28.2102 48.7146 28.2443C48.5517 28.2746 48.3888 28.303 48.2259 28.3295C48.0631 28.3522 47.9153 28.3731 47.7827 28.392C47.4987 28.4337 47.2506 28.5 47.0384 28.5909C46.8263 28.6818 46.6615 28.8049 46.5441 28.9602C46.4267 29.1117 46.368 29.3011 46.368 29.5284C46.368 29.8579 46.4873 30.1098 46.7259 30.284C46.9684 30.4545 47.2752 30.5397 47.6464 30.5397ZM56.1663 20.409V32.0454H53.7458V20.409H56.1663ZM61.8538 32.0454V20.409H66.4447C67.3235 20.409 68.0735 20.5662 68.6947 20.8806C69.3197 21.1912 69.7951 21.6325 70.1208 22.2045C70.4504 22.7727 70.6151 23.4412 70.6151 24.2102C70.6151 24.9829 70.4485 25.6477 70.1151 26.2045C69.7818 26.7575 69.2988 27.1818 68.6663 27.4772C68.0375 27.7727 67.2761 27.9204 66.3822 27.9204H63.3083V25.9431H65.9845C66.4541 25.9431 66.8443 25.8787 67.1549 25.75C67.4655 25.6212 67.6966 25.428 67.8481 25.1704C68.0034 24.9128 68.081 24.5928 68.081 24.2102C68.081 23.8238 68.0034 23.4981 67.8481 23.2329C67.6966 22.9678 67.4636 22.767 67.1492 22.6306C66.8386 22.4905 66.4466 22.4204 65.9731 22.4204H64.314V32.0454H61.8538ZM68.1379 26.75L71.0299 32.0454H68.314L65.4845 26.75H68.1379ZM76.145 32.2159C75.2472 32.2159 74.4745 32.034 73.8268 31.6704C73.1828 31.303 72.6866 30.784 72.3381 30.1136C71.9897 29.4393 71.8154 28.642 71.8154 27.7215C71.8154 26.8238 71.9897 26.0359 72.3381 25.3579C72.6866 24.6799 73.1772 24.1515 73.8097 23.7727C74.4461 23.3939 75.1923 23.2045 76.0484 23.2045C76.6241 23.2045 77.1601 23.2973 77.6563 23.4829C78.1563 23.6647 78.5919 23.9393 78.9631 24.3068C79.3381 24.6742 79.6298 25.1363 79.8381 25.6931C80.0465 26.2462 80.1506 26.8939 80.1506 27.6363V28.3011H72.7813V26.8011H77.8722C77.8722 26.4526 77.7965 26.1439 77.645 25.875C77.4934 25.606 77.2832 25.3958 77.0143 25.2443C76.7491 25.089 76.4404 25.0113 76.0881 25.0113C75.7207 25.0113 75.395 25.0965 75.1109 25.267C74.8306 25.4337 74.6109 25.659 74.4518 25.9431C74.2927 26.2234 74.2113 26.5359 74.2075 26.8806V28.3068C74.2075 28.7386 74.287 29.1117 74.4461 29.4261C74.609 29.7405 74.8381 29.9829 75.1336 30.1534C75.4291 30.3238 75.7794 30.409 76.1847 30.409C76.4537 30.409 76.6999 30.3712 76.9234 30.2954C77.1469 30.2197 77.3381 30.106 77.4972 29.9545C77.6563 29.803 77.7775 29.6174 77.8609 29.3977L80.0995 29.5454C79.9859 30.0833 79.7529 30.553 79.4006 30.9545C79.0522 31.3522 78.6014 31.6628 78.0484 31.8863C77.4991 32.106 76.8647 32.2159 76.145 32.2159ZM89.6322 23.3181L86.581 32.0454H83.8538L80.8026 23.3181H83.3595L85.172 29.5625H85.2629L87.0697 23.3181H89.6322ZM94.5668 32.2159C93.6691 32.2159 92.8964 32.034 92.2487 31.6704C91.6047 31.303 91.1085 30.784 90.76 30.1136C90.4115 29.4393 90.2373 28.642 90.2373 27.7215C90.2373 26.8238 90.4115 26.0359 90.76 25.3579C91.1085 24.6799 91.599 24.1515 92.2316 23.7727C92.868 23.3939 93.6142 23.2045 94.4702 23.2045C95.046 23.2045 95.582 23.2973 96.0782 23.4829C96.5782 23.6647 97.0138 23.9393 97.385 24.3068C97.76 24.6742 98.0517 25.1363 98.26 25.6931C98.4684 26.2462 98.5725 26.8939 98.5725 27.6363V28.3011H91.2032V26.8011H96.2941C96.2941 26.4526 96.2184 26.1439 96.0668 25.875C95.9153 25.606 95.7051 25.3958 95.4362 25.2443C95.171 25.089 94.8623 25.0113 94.51 25.0113C94.1426 25.0113 93.8168 25.0965 93.5327 25.267C93.2524 25.4337 93.0327 25.659 92.8737 25.9431C92.7146 26.2234 92.6331 26.5359 92.6293 26.8806V28.3068C92.6293 28.7386 92.7089 29.1117 92.868 29.4261C93.0309 29.7405 93.26 29.9829 93.5555 30.1534C93.8509 30.3238 94.2013 30.409 94.6066 30.409C94.8756 30.409 95.1218 30.3712 95.3452 30.2954C95.5687 30.2197 95.76 30.106 95.9191 29.9545C96.0782 29.803 96.1994 29.6174 96.2827 29.3977L98.5214 29.5454C98.4077 30.0833 98.1748 30.553 97.8225 30.9545C97.474 31.3522 97.0233 31.6628 96.4702 31.8863C95.921 32.106 95.2865 32.2159 94.5668 32.2159ZM102.573 27V32.0454H100.152V23.3181H102.459V24.8579H102.561C102.754 24.3503 103.078 23.9488 103.533 23.6534C103.987 23.3541 104.538 23.2045 105.186 23.2045C105.792 23.2045 106.321 23.3371 106.771 23.6022C107.222 23.8674 107.573 24.2462 107.823 24.7386C108.073 25.2272 108.198 25.8106 108.198 26.4886V32.0454H105.777V26.9204C105.781 26.3863 105.644 25.9697 105.368 25.6704C105.091 25.3674 104.711 25.2159 104.226 25.2159C103.9 25.2159 103.612 25.2859 103.362 25.4261C103.116 25.5662 102.923 25.7708 102.783 26.0397C102.646 26.3049 102.576 26.625 102.573 27ZM115.702 28.3295V23.3181H118.122V32.0454H115.798V30.4602H115.707C115.51 30.9715 115.183 31.3825 114.725 31.6931C114.27 32.0037 113.715 32.159 113.06 32.159C112.476 32.159 111.963 32.0265 111.52 31.7613C111.077 31.4962 110.73 31.1193 110.48 30.6306C110.234 30.142 110.109 29.5568 110.105 28.875V23.3181H112.526V28.4431C112.529 28.9583 112.668 29.3655 112.94 29.6647C113.213 29.964 113.579 30.1136 114.037 30.1136C114.329 30.1136 114.601 30.0473 114.855 29.9147C115.109 29.7784 115.314 29.5776 115.469 29.3125C115.628 29.0473 115.706 28.7197 115.702 28.3295ZM124.036 32.2159C123.138 32.2159 122.365 32.034 121.717 31.6704C121.073 31.303 120.577 30.784 120.229 30.1136C119.88 29.4393 119.706 28.642 119.706 27.7215C119.706 26.8238 119.88 26.0359 120.229 25.3579C120.577 24.6799 121.068 24.1515 121.7 23.7727C122.337 23.3939 123.083 23.2045 123.939 23.2045C124.515 23.2045 125.051 23.2973 125.547 23.4829C126.047 23.6647 126.483 23.9393 126.854 24.3068C127.229 24.6742 127.52 25.1363 127.729 25.6931C127.937 26.2462 128.041 26.8939 128.041 27.6363V28.3011H120.672V26.8011H125.763C125.763 26.4526 125.687 26.1439 125.536 25.875C125.384 25.606 125.174 25.3958 124.905 25.2443C124.64 25.089 124.331 25.0113 123.979 25.0113C123.611 25.0113 123.286 25.0965 123.001 25.267C122.721 25.4337 122.501 25.659 122.342 25.9431C122.183 26.2234 122.102 26.5359 122.098 26.8806V28.3068C122.098 28.7386 122.178 29.1117 122.337 29.4261C122.5 29.7405 122.729 29.9829 123.024 30.1534C123.32 30.3238 123.67 30.409 124.075 30.409C124.344 30.409 124.591 30.3712 124.814 30.2954C125.037 30.2197 125.229 30.106 125.388 29.9545C125.547 29.803 125.668 29.6174 125.751 29.3977L127.99 29.5454C127.876 30.0833 127.644 30.553 127.291 30.9545C126.943 31.3522 126.492 31.6628 125.939 31.8863C125.39 32.106 124.755 32.2159 124.036 32.2159Z" fill="black"/>
<path d="M698.812 29.0454L697.314 23.5661H697.988L699.133 28.0287H699.187L700.353 23.5661H701.102L702.269 28.0287H702.322L703.468 23.5661H704.142L702.643 29.0454H701.959L700.749 24.6791H700.706L699.497 29.0454H698.812ZM706.223 29.131C705.827 29.131 705.486 29.0436 705.199 28.8688C704.913 28.6922 704.693 28.4461 704.538 28.1304C704.384 27.8129 704.308 27.4437 704.308 27.0228C704.308 26.6018 704.384 26.2308 704.538 25.9098C704.693 25.5869 704.909 25.3354 705.185 25.1553C705.463 24.9734 705.788 24.8824 706.159 24.8824C706.373 24.8824 706.584 24.9181 706.793 24.9894C707.002 25.0608 707.192 25.1767 707.363 25.3372C707.534 25.496 707.671 25.7064 707.772 25.9686C707.874 26.2308 707.925 26.5537 707.925 26.9371V27.2047H704.757V26.6589H707.283C707.283 26.427 707.236 26.2201 707.144 26.0382C707.053 25.8563 706.922 25.7127 706.753 25.6074C706.585 25.5022 706.387 25.4496 706.159 25.4496C705.908 25.4496 705.69 25.512 705.506 25.6369C705.324 25.7599 705.184 25.9205 705.086 26.1185C704.988 26.3164 704.939 26.5287 704.939 26.7552V27.1191C704.939 27.4294 704.993 27.6925 705.1 27.9083C705.208 28.1224 705.359 28.2856 705.552 28.3979C705.744 28.5085 705.968 28.5638 706.223 28.5638C706.389 28.5638 706.539 28.5406 706.673 28.4943C706.808 28.4461 706.925 28.3748 707.023 28.2802C707.121 28.1839 707.197 28.0644 707.251 27.9217L707.861 28.0929C707.796 28.2998 707.689 28.4818 707.537 28.6387C707.385 28.7939 707.198 28.9152 706.975 29.0026C706.752 29.0882 706.501 29.131 706.223 29.131ZM710.608 29.131C710.212 29.131 709.871 29.0436 709.584 28.8688C709.298 28.6922 709.078 28.4461 708.923 28.1304C708.769 27.8129 708.693 27.4437 708.693 27.0228C708.693 26.6018 708.769 26.2308 708.923 25.9098C709.078 25.5869 709.294 25.3354 709.57 25.1553C709.848 24.9734 710.173 24.8824 710.544 24.8824C710.758 24.8824 710.97 24.9181 711.178 24.9894C711.387 25.0608 711.577 25.1767 711.748 25.3372C711.919 25.496 712.056 25.7064 712.157 25.9686C712.259 26.2308 712.31 26.5537 712.31 26.9371V27.2047H709.142V26.6589H711.668C711.668 26.427 711.621 26.2201 711.529 26.0382C711.438 25.8563 711.308 25.7127 711.138 25.6074C710.97 25.5022 710.772 25.4496 710.544 25.4496C710.293 25.4496 710.075 25.512 709.891 25.6369C709.709 25.7599 709.569 25.9205 709.471 26.1185C709.373 26.3164 709.324 26.5287 709.324 26.7552V27.1191C709.324 27.4294 709.378 27.6925 709.485 27.9083C709.593 28.1224 709.744 28.2856 709.937 28.3979C710.129 28.5085 710.353 28.5638 710.608 28.5638C710.774 28.5638 710.924 28.5406 711.058 28.4943C711.193 28.4461 711.31 28.3748 711.408 28.2802C711.506 28.1839 711.582 28.0644 711.636 27.9217L712.246 28.0929C712.181 28.2998 712.074 28.4818 711.922 28.6387C711.77 28.7939 711.583 28.9152 711.36 29.0026C711.137 29.0882 710.887 29.131 710.608 29.131ZM713.859 27.5472L713.848 26.7659H713.977L715.775 24.9359H716.556L714.64 26.8729H714.587L713.859 27.5472ZM713.27 29.0454V23.5661H713.902V29.0454H713.27ZM715.882 29.0454L714.276 27.0121L714.726 26.5733L716.684 29.0454H715.882ZM718 23.5661V29.0454H717.369V23.5661H718ZM719.563 30.5865C719.456 30.5865 719.361 30.5776 719.277 30.5597C719.193 30.5437 719.135 30.5276 719.103 30.5116L719.263 29.9551C719.417 29.9943 719.552 30.0086 719.67 29.9979C719.788 29.9872 719.892 29.9346 719.983 29.84C720.076 29.7473 720.161 29.5966 720.237 29.3879L720.355 29.0668L718.835 24.9359H719.52L720.655 28.2107H720.697L721.832 24.9359H722.517L720.772 29.6447C720.694 29.857 720.597 30.0327 720.481 30.1718C720.365 30.3127 720.23 30.417 720.077 30.4848C719.925 30.5526 719.754 30.5865 719.563 30.5865Z" fill="black"/>
<rect x="733.199" y="16.5" width="33.0682" height="20.0909" rx="10.0455" fill="#E7EBFE"/>
<path d="M743.087 29.0454H741.397V23.5661H743.162C743.694 23.5661 744.149 23.6758 744.527 23.8952C744.905 24.1128 745.195 24.4258 745.396 24.8342C745.598 25.2409 745.699 25.7278 745.699 26.295C745.699 26.8658 745.597 27.3572 745.394 27.7692C745.19 28.1795 744.894 28.4952 744.505 28.7163C744.117 28.9357 743.644 29.0454 743.087 29.0454ZM742.06 28.4568H743.045C743.498 28.4568 743.873 28.3694 744.171 28.1946C744.469 28.0198 744.691 27.771 744.837 27.4482C744.983 27.1253 745.057 26.7409 745.057 26.295C745.057 25.8527 744.984 25.4719 744.84 25.1526C744.695 24.8316 744.48 24.5854 744.192 24.4142C743.905 24.2412 743.548 24.1547 743.12 24.1547H742.06V28.4568ZM747.935 29.1417C747.675 29.1417 747.439 29.0927 747.226 28.9946C747.014 28.8947 746.846 28.7511 746.721 28.5638C746.596 28.3748 746.533 28.1465 746.533 27.8789C746.533 27.6435 746.58 27.4526 746.673 27.3064C746.765 27.1583 746.889 27.0424 747.044 26.9586C747.2 26.8747 747.371 26.8123 747.558 26.7713C747.747 26.7285 747.937 26.6946 748.128 26.6696C748.378 26.6375 748.58 26.6134 748.735 26.5974C748.892 26.5795 749.006 26.5501 749.078 26.5091C749.151 26.4681 749.187 26.3967 749.187 26.295V26.2736C749.187 26.0097 749.115 25.8045 748.971 25.6583C748.828 25.512 748.611 25.4389 748.321 25.4389C748.019 25.4389 747.783 25.5049 747.612 25.6369C747.44 25.7689 747.32 25.9098 747.25 26.0596L746.651 25.8456C746.758 25.5959 746.901 25.4014 747.079 25.2623C747.259 25.1214 747.456 25.0233 747.668 24.968C747.882 24.9109 748.092 24.8824 748.299 24.8824C748.431 24.8824 748.583 24.8984 748.754 24.9306C748.927 24.9609 749.094 25.0242 749.254 25.1205C749.417 25.2168 749.551 25.3622 749.658 25.5566C749.765 25.751 749.819 26.0114 749.819 26.3378V29.0454H749.187V28.4889H749.155C749.113 28.5781 749.041 28.6735 748.941 28.7752C748.841 28.8769 748.709 28.9634 748.543 29.0347C748.377 29.1061 748.174 29.1417 747.935 29.1417ZM748.032 28.5745C748.281 28.5745 748.492 28.5255 748.663 28.4274C748.836 28.3293 748.966 28.2026 749.054 28.0475C749.143 27.8923 749.187 27.7291 749.187 27.5579V26.98C749.161 27.0121 749.102 27.0415 749.011 27.0682C748.922 27.0932 748.818 27.1155 748.701 27.1351C748.585 27.153 748.471 27.169 748.361 27.1833C748.252 27.1958 748.164 27.2065 748.096 27.2154C747.932 27.2368 747.778 27.2716 747.636 27.3197C747.495 27.3661 747.381 27.4366 747.293 27.5311C747.208 27.6238 747.165 27.7505 747.165 27.911C747.165 28.1304 747.246 28.2963 747.408 28.4087C747.572 28.5192 747.78 28.5745 748.032 28.5745ZM750.971 29.0454V24.9359H751.603V29.0454H750.971ZM751.292 24.251C751.169 24.251 751.063 24.2091 750.974 24.1252C750.887 24.0414 750.843 23.9406 750.843 23.8229C750.843 23.7052 750.887 23.6044 750.974 23.5206C751.063 23.4368 751.169 23.3948 751.292 23.3948C751.415 23.3948 751.521 23.4368 751.608 23.5206C751.697 23.6044 751.742 23.7052 751.742 23.8229C751.742 23.9406 751.697 24.0414 751.608 24.1252C751.521 24.2091 751.415 24.251 751.292 24.251ZM753.391 23.5661V29.0454H752.759V23.5661H753.391ZM754.954 30.5865C754.847 30.5865 754.751 30.5776 754.667 30.5597C754.584 30.5437 754.526 30.5276 754.494 30.5116L754.654 29.9551C754.808 29.9943 754.943 30.0086 755.061 29.9979C755.179 29.9872 755.283 29.9346 755.374 29.84C755.467 29.7473 755.551 29.5966 755.628 29.3879L755.746 29.0668L754.226 24.9359H754.911L756.045 28.2107H756.088L757.223 24.9359H757.907L756.163 29.6447C756.085 29.857 755.987 30.0327 755.871 30.1718C755.756 30.3127 755.621 30.417 755.467 30.4848C755.316 30.5526 755.145 30.5865 754.954 30.5865Z" fill="black"/>
<rect x="771.604" y="16.8139" width="84.9233" height="19.4631" rx="9.73153" stroke="#E5E5E5" stroke-width="0.627841"/>
<mask id="mask0_9_4691" style="mask-type:alpha" maskUnits="userSpaceOnUse" x="775" y="20" width="13" height="13">
<rect x="775.057" y="20.2671" width="12.5568" height="12.5568" fill="#D9D9D9"/>
</mask>
<g mask="url(#mask0_9_4691)">
<path d="M782.382 29.6847L779.242 26.5455L782.382 23.4062L783.114 24.1387L780.707 26.5455L783.114 28.9522L782.382 29.6847Z" fill="black"/>
</g>
<rect x="791.381" y="16.5" width="0.627841" height="20.0909" fill="#E5E5E5"/>
<mask id="mask1_9_4691" style="mask-type:alpha" maskUnits="userSpaceOnUse" x="797" y="20" width="13" height="13">
<rect x="797.031" y="20.2671" width="12.5568" height="12.5568" fill="#D9D9D9"/>
</mask>
<g mask="url(#mask1_9_4691)">
<path d="M799.647 31.7775C799.359 31.7775 799.113 31.675 798.908 31.4701C798.703 31.2652 798.601 31.0189 798.601 30.7311V23.4063C798.601 23.1185 798.703 22.8722 798.908 22.6673C799.113 22.4623 799.359 22.3599 799.647 22.3599H800.17V21.3135H801.217V22.3599H805.402V21.3135H806.449V22.3599H806.972C807.26 22.3599 807.506 22.4623 807.711 22.6673C807.916 22.8722 808.018 23.1185 808.018 23.4063V30.7311C808.018 31.0189 807.916 31.2652 807.711 31.4701C807.506 31.675 807.26 31.7775 806.972 31.7775H799.647ZM799.647 30.7311H806.972V25.4991H799.647V30.7311ZM799.647 24.4527H806.972V23.4063H799.647V24.4527ZM803.31 27.5919C803.161 27.5919 803.037 27.5417 802.937 27.4415C802.837 27.3412 802.786 27.2169 802.786 27.0687C802.786 26.9204 802.837 26.7962 802.937 26.6959C803.037 26.5956 803.161 26.5455 803.31 26.5455C803.458 26.5455 803.582 26.5956 803.682 26.6959C803.783 26.7962 803.833 26.9204 803.833 27.0687C803.833 27.2169 803.783 27.3412 803.682 27.4415C803.582 27.5417 803.458 27.5919 803.31 27.5919ZM801.217 27.5919C801.069 27.5919 800.944 27.5417 800.844 27.4415C800.744 27.3412 800.694 27.2169 800.694 27.0687C800.694 26.9204 800.744 26.7962 800.844 26.6959C800.944 26.5956 801.069 26.5455 801.217 26.5455C801.365 26.5455 801.489 26.5956 801.59 26.6959C801.69 26.7962 801.74 26.9204 801.74 27.0687C801.74 27.2169 801.69 27.3412 801.59 27.4415C801.489 27.5417 801.365 27.5919 801.217 27.5919ZM805.402 27.5919C805.254 27.5919 805.13 27.5417 805.03 27.4415C804.929 27.3412 804.879 27.2169 804.879 27.0687C804.879 26.9204 804.929 26.7962 805.03 26.6959C805.13 26.5956 805.254 26.5455 805.402 26.5455C805.551 26.5455 805.675 26.5956 805.775 26.6959C805.876 26.7962 805.926 26.9204 805.926 27.0687C805.926 27.2169 805.876 27.3412 805.775 27.4415C805.675 27.5417 805.551 27.5919 805.402 27.5919ZM803.31 29.6847C803.161 29.6847 803.037 29.6345 802.937 29.5343C802.837 29.434 802.786 29.3097 802.786 29.1615C802.786 29.0132 802.837 28.889 802.937 28.7887C803.037 28.6884 803.161 28.6383 803.31 28.6383C803.458 28.6383 803.582 28.6884 803.682 28.7887C803.783 28.889 803.833 29.0132 803.833 29.1615C803.833 29.3097 803.783 29.434 803.682 29.5343C803.582 29.6345 803.458 29.6847 803.31 29.6847ZM801.217 29.6847C801.069 29.6847 800.944 29.6345 800.844 29.5343C800.744 29.434 800.694 29.3097 800.694 29.1615C800.694 29.0132 800.744 28.889 800.844 28.7887C800.944 28.6884 801.069 28.6383 801.217 28.6383C801.365 28.6383 801.489 28.6884 801.59 28.7887C801.69 28.889 801.74 29.0132 801.74 29.1615C801.74 29.3097 801.69 29.434 801.59 29.5343C801.489 29.6345 801.365 29.6847 801.217 29.6847ZM805.402 29.6847C805.254 29.6847 805.13 29.6345 805.03 29.5343C804.929 29.434 804.879 29.3097 804.879 29.1615C804.879 29.0132 804.929 28.889 805.03 28.7887C805.13 28.6884 805.254 28.6383 805.402 28.6383C805.551 28.6383 805.675 28.6884 805.775 28.7887C805.876 28.889 805.926 29.0132 805.926 29.1615C805.926 29.3097 805.876 29.434 805.775 29.5343C805.675 29.6345 805.551 29.6847 805.402 29.6847Z" fill="black"/>
</g>
<path d="M812.667 29.0454V28.5638L814.475 26.584C814.688 26.3521 814.862 26.1506 815 25.9793C815.137 25.8063 815.239 25.644 815.305 25.4924C815.372 25.339 815.406 25.1785 815.406 25.0108C815.406 24.8182 815.36 24.6514 815.267 24.5105C815.176 24.3696 815.051 24.2608 814.893 24.1841C814.734 24.1074 814.556 24.0691 814.358 24.0691C814.147 24.0691 813.963 24.1128 813.806 24.2002C813.651 24.2858 813.531 24.4062 813.445 24.5613C813.361 24.7165 813.319 24.8984 813.319 25.1071H812.688C812.688 24.7861 812.762 24.5043 812.91 24.2617C813.058 24.0191 813.26 23.83 813.515 23.6945C813.772 23.5589 814.06 23.4912 814.379 23.4912C814.7 23.4912 814.985 23.5589 815.232 23.6945C815.48 23.83 815.675 24.0129 815.816 24.243C815.957 24.4731 816.027 24.729 816.027 25.0108C816.027 25.2124 815.99 25.4095 815.917 25.6021C815.846 25.7929 815.721 26.0061 815.543 26.2415C815.366 26.4752 815.121 26.7606 814.807 27.0977L813.576 28.414V28.4568H816.123V29.0454H812.667ZM819.016 29.1203C818.612 29.1203 818.269 29.0106 817.985 28.7912C817.702 28.5701 817.485 28.2499 817.335 27.8308C817.186 27.4098 817.111 26.9015 817.111 26.3057C817.111 25.7136 817.186 25.2079 817.335 24.7888C817.487 24.3678 817.705 24.0468 817.988 23.8256C818.274 23.6026 818.616 23.4912 819.016 23.4912C819.415 23.4912 819.757 23.6026 820.04 23.8256C820.326 24.0468 820.543 24.3678 820.693 24.7888C820.845 25.2079 820.92 25.7136 820.92 26.3057C820.92 26.9015 820.846 27.4098 820.696 27.8308C820.546 28.2499 820.329 28.5701 820.046 28.7912C819.762 29.0106 819.419 29.1203 819.016 29.1203ZM819.016 28.5317C819.415 28.5317 819.725 28.3391 819.947 27.9538C820.168 27.5686 820.278 27.0192 820.278 26.3057C820.278 25.8313 820.228 25.4273 820.126 25.0938C820.026 24.7602 819.882 24.506 819.692 24.3313C819.505 24.1565 819.28 24.0691 819.016 24.0691C818.62 24.0691 818.31 24.2644 818.087 24.655C817.864 25.0438 817.753 25.5941 817.753 26.3057C817.753 26.7802 817.803 27.1833 817.903 27.515C818.002 27.8468 818.146 28.0992 818.333 28.2722C818.522 28.4452 818.75 28.5317 819.016 28.5317ZM821.937 29.0454V28.5638L823.746 26.584C823.958 26.3521 824.133 26.1506 824.27 25.9793C824.407 25.8063 824.509 25.644 824.575 25.4924C824.643 25.339 824.677 25.1785 824.677 25.0108C824.677 24.8182 824.63 24.6514 824.538 24.5105C824.447 24.3696 824.322 24.2608 824.163 24.1841C824.004 24.1074 823.826 24.0691 823.628 24.0691C823.418 24.0691 823.234 24.1128 823.077 24.2002C822.922 24.2858 822.801 24.4062 822.716 24.5613C822.632 24.7165 822.59 24.8984 822.59 25.1071H821.959C821.959 24.7861 822.033 24.5043 822.181 24.2617C822.329 24.0191 822.53 23.83 822.785 23.6945C823.042 23.5589 823.33 23.4912 823.649 23.4912C823.97 23.4912 824.255 23.5589 824.503 23.6945C824.751 23.83 824.945 24.0129 825.086 24.243C825.227 24.4731 825.298 24.729 825.298 25.0108C825.298 25.2124 825.261 25.4095 825.188 25.6021C825.116 25.7929 824.992 26.0061 824.813 26.2415C824.637 26.4752 824.391 26.7606 824.078 27.0977L822.847 28.414V28.4568H825.394V29.0454H821.937ZM826.253 27.9217V27.3759L828.661 23.5661H829.057V24.4115H828.789L826.97 27.2903V27.3331H830.212V27.9217H826.253ZM828.832 29.0454V27.7558V27.5017V23.5661H829.463V29.0454H828.832Z" fill="black"/>
<rect x="836.122" y="16.5" width="0.627841" height="20.0909" fill="#E5E5E5"/>
<mask id="mask2_9_4691" style="mask-type:alpha" maskUnits="userSpaceOnUse" x="840" y="20" width="14" height="13">
<rect x="840.517" y="20.2671" width="12.5568" height="12.5568" fill="#D9D9D9"/>
</mask>
<g mask="url(#mask2_9_4691)">
<path d="M847.109 26.5455L844.703 24.1387L845.435 23.4062L848.574 26.5455L845.435 29.6847L844.703 28.9522L847.109 26.5455Z" fill="black"/>
</g>
<mask id="mask3_9_4691" style="mask-type:alpha" maskUnits="userSpaceOnUse" x="864" y="18" width="16" height="17">
<rect x="864.33" y="18.9658" width="15.0682" height="15.0682" fill="#D9D9D9"/>
</mask>
<g mask="url(#mask3_9_4691)">
<path d="M871.864 31.5227C871.518 31.5227 871.223 31.3998 870.977 31.1539C870.731 30.908 870.608 30.6124 870.608 30.2671C870.608 29.9218 870.731 29.6261 870.977 29.3802C871.223 29.1343 871.518 29.0114 871.864 29.0114C872.209 29.0114 872.505 29.1343 872.751 29.3802C872.996 29.6261 873.119 29.9218 873.119 30.2671C873.119 30.6124 872.996 30.908 872.751 31.1539C872.505 31.3998 872.209 31.5227 871.864 31.5227ZM871.864 27.7557C871.518 27.7557 871.223 27.6328 870.977 27.3868C870.731 27.1409 870.608 26.8453 870.608 26.5C870.608 26.1547 870.731 25.8591 870.977 25.6132C871.223 25.3673 871.518 25.2443 871.864 25.2443C872.209 25.2443 872.505 25.3673 872.751 25.6132C872.996 25.8591 873.119 26.1547 873.119 26.5C873.119 26.8453 872.996 27.1409 872.751 27.3868C872.505 27.6328 872.209 27.7557 871.864 27.7557ZM871.864 23.9887C871.518 23.9887 871.223 23.8657 870.977 23.6198C870.731 23.3739 870.608 23.0783 870.608 22.733C870.608 22.3877 870.731 22.0921 870.977 21.8462C871.223 21.6002 871.518 21.4773 871.864 21.4773C872.209 21.4773 872.505 21.6002 872.751 21.8462C872.996 22.0921 873.119 22.3877 873.119 22.733C873.119 23.0783 872.996 23.3739 872.751 23.6198C872.505 23.8657 872.209 23.9887 871.864 23.9887Z" fill="black"/>
</g>
<path d="M132.786 47.0908V1231.37" stroke="#E5E5E5" stroke-width="0.627841" stroke-dasharray="2.51 2.51"/>
<path d="M362.266 47.0908V1231.37" stroke="#E5E5E5" stroke-width="0.627841" stroke-dasharray="2.51 2.51"/>
<path d="M591.747 47.0908V1231.37" stroke="#E5E5E5" stroke-width="0.627841" stroke-dasharray="2.51 2.51"/>
<path d="M821.228 47.0908V1231.37" stroke="#E5E5E5" stroke-width="0.627841" stroke-dasharray="2.51 2.51"/>
<path d="M18.0455 47.0908H1029.21" stroke="#E5E5E5" stroke-width="0.627841" stroke-dasharray="2.51 2.51"/>
<path d="M20.0276 55.1532C19.708 55.1532 19.4256 55.0983 19.1804 54.9883C18.9366 54.8783 18.7456 54.7267 18.6074 54.5334C18.4691 54.3402 18.4008 54.1202 18.4023 53.8735C18.4008 53.6803 18.4402 53.5026 18.5204 53.3406C18.6022 53.1771 18.7129 53.0411 18.8526 52.9326C18.9923 52.8226 19.1484 52.7528 19.3208 52.723V52.6963C19.0934 52.6413 18.9113 52.5194 18.7746 52.3306C18.6378 52.1419 18.5702 51.9249 18.5717 51.6796C18.5702 51.4463 18.6319 51.2382 18.7568 51.0553C18.8831 50.871 19.0563 50.7261 19.2762 50.6206C19.4962 50.515 19.7467 50.4623 20.0276 50.4623C20.3056 50.4623 20.5538 50.5158 20.7723 50.6228C20.9923 50.7283 21.1654 50.8733 21.2918 51.0576C21.4181 51.2404 21.482 51.4477 21.4835 51.6796C21.482 51.9249 21.4122 52.1419 21.2739 52.3306C21.1357 52.5194 20.9558 52.6413 20.7344 52.6963V52.723C20.9053 52.7528 21.0591 52.8226 21.1959 52.9326C21.3341 53.0411 21.4441 53.1771 21.5259 53.3406C21.6091 53.5026 21.6515 53.6803 21.6529 53.8735C21.6515 54.1202 21.5816 54.3402 21.4434 54.5334C21.3051 54.7267 21.1134 54.8783 20.8681 54.9883C20.6244 55.0983 20.3442 55.1532 20.0276 55.1532ZM20.0276 54.5892C20.2164 54.5892 20.3799 54.558 20.5181 54.4955C20.6563 54.4316 20.7634 54.3432 20.8392 54.2302C20.915 54.1158 20.9536 53.982 20.9551 53.8289C20.9536 53.6699 20.912 53.5294 20.8302 53.4075C20.75 53.2856 20.6407 53.1898 20.5025 53.1199C20.3643 53.05 20.206 53.0151 20.0276 53.0151C19.8478 53.0151 19.688 53.05 19.5482 53.1199C19.4085 53.1898 19.2985 53.2856 19.2183 53.4075C19.138 53.5294 19.0986 53.6699 19.1001 53.8289C19.0986 53.982 19.135 54.1158 19.2094 54.2302C19.2852 54.3432 19.3929 54.4316 19.5326 54.4955C19.6724 54.558 19.8373 54.5892 20.0276 54.5892ZM20.0276 52.4644C20.1792 52.4644 20.3137 52.4339 20.4311 52.373C20.5486 52.3121 20.6407 52.2273 20.7076 52.1188C20.776 52.0103 20.8109 51.8832 20.8124 51.7376C20.8109 51.5949 20.7767 51.47 20.7098 51.363C20.6444 51.256 20.553 51.1735 20.4356 51.1155C20.3182 51.0561 20.1822 51.0264 20.0276 51.0264C19.87 51.0264 19.7318 51.0561 19.6129 51.1155C19.4955 51.1735 19.4041 51.256 19.3387 51.363C19.2733 51.47 19.2413 51.5949 19.2428 51.7376C19.2413 51.8832 19.274 52.0103 19.3409 52.1188C19.4078 52.2273 19.4999 52.3121 19.6174 52.373C19.7363 52.4339 19.873 52.4644 20.0276 52.4644ZM24.0413 55.1666C23.6891 55.1651 23.3881 55.0722 23.1384 54.8879C22.8887 54.7036 22.6977 54.4353 22.5654 54.0831C22.4331 53.7308 22.367 53.3064 22.367 52.81C22.367 52.315 22.4331 51.8922 22.5654 51.5414C22.6992 51.1906 22.8909 50.9231 23.1406 50.7387C23.3918 50.5544 23.6921 50.4623 24.0413 50.4623C24.3906 50.4623 24.6901 50.5552 24.9399 50.741C25.1896 50.9253 25.3806 51.1928 25.5128 51.5436C25.6466 51.8929 25.7135 52.315 25.7135 52.81C25.7135 53.3079 25.6474 53.733 25.5151 54.0853C25.3828 54.4361 25.1918 54.7044 24.9421 54.8902C24.6924 55.0745 24.3921 55.1666 24.0413 55.1666ZM24.0413 54.5713C24.3505 54.5713 24.592 54.4205 24.7659 54.1187C24.9413 53.817 25.029 53.3808 25.029 52.81C25.029 52.431 24.9889 52.1107 24.9086 51.8491C24.8299 51.586 24.7162 51.3868 24.5675 51.2515C24.4204 51.1148 24.245 51.0464 24.0413 51.0464C23.7337 51.0464 23.4921 51.198 23.3167 51.5012C23.1414 51.8045 23.0529 52.2407 23.0514 52.81C23.0514 53.1905 23.0908 53.5123 23.1696 53.7754C23.2499 54.037 23.3636 54.2354 23.5107 54.3707C23.6579 54.5044 23.8347 54.5713 24.0413 54.5713Z" fill="#CACACA"/>
<path d="M18.0455 100.664H1029.21" stroke="#E5E5E5" stroke-width="0.627841" stroke-dasharray="2.51 2.51"/>
<path d="M18.6386 108.664L20.6318 104.722V104.689H18.3265V104.098H21.3453V104.709L19.3587 108.664H18.6386ZM23.6122 108.74C23.2599 108.738 22.9589 108.645 22.7092 108.461C22.4595 108.277 22.2685 108.008 22.1362 107.656C22.0039 107.304 21.9378 106.879 21.9378 106.383C21.9378 105.888 22.0039 105.465 22.1362 105.114C22.27 104.764 22.4617 104.496 22.7114 104.312C22.9626 104.127 23.2629 104.035 23.6122 104.035C23.9615 104.035 24.261 104.128 24.5107 104.314C24.7604 104.498 24.9514 104.766 25.0837 105.117C25.2174 105.466 25.2843 105.888 25.2843 106.383C25.2843 106.881 25.2182 107.306 25.0859 107.658C24.9536 108.009 24.7626 108.277 24.5129 108.463C24.2632 108.647 23.9629 108.74 23.6122 108.74ZM23.6122 108.144C23.9213 108.144 24.1629 107.993 24.3368 107.692C24.5122 107.39 24.5998 106.954 24.5998 106.383C24.5998 106.004 24.5597 105.684 24.4795 105.422C24.4007 105.159 24.287 104.96 24.1383 104.825C23.9912 104.688 23.8158 104.619 23.6122 104.619C23.3045 104.619 23.0629 104.771 22.8876 105.074C22.7122 105.377 22.6237 105.814 22.6222 106.383C22.6222 106.763 22.6616 107.085 22.7404 107.348C22.8207 107.61 22.9344 107.808 23.0815 107.944C23.2287 108.077 23.4056 108.144 23.6122 108.144Z" fill="#CACACA"/>
<path d="M18.0455 154.236H1029.21" stroke="#E5E5E5" stroke-width="0.627841" stroke-dasharray="2.51 2.51"/>
<path d="M20.0789 162.299C19.8752 162.296 19.6746 162.258 19.4769 162.187C19.2807 162.116 19.1023 161.997 18.9418 161.83C18.7813 161.664 18.6527 161.44 18.5561 161.159C18.461 160.878 18.4134 160.528 18.4134 160.107C18.4134 159.709 18.4528 159.355 18.5316 159.046C18.6118 158.736 18.727 158.476 18.8772 158.263C19.0273 158.049 19.2086 157.886 19.4212 157.775C19.6337 157.663 19.8723 157.608 20.1368 157.608C20.4089 157.608 20.6504 157.661 20.8615 157.768C21.0725 157.875 21.2434 158.023 21.3742 158.212C21.5065 158.401 21.5905 158.615 21.6262 158.856H20.9462C20.9001 158.666 20.8087 158.511 20.6719 158.39C20.5352 158.27 20.3568 158.21 20.1368 158.21C19.8024 158.21 19.5416 158.355 19.3543 158.647C19.1685 158.938 19.0748 159.343 19.0734 159.862H19.1068C19.1856 159.732 19.2822 159.622 19.3966 159.532C19.5126 159.439 19.6419 159.369 19.7846 159.32C19.9288 159.269 20.0804 159.244 20.2394 159.244C20.504 159.244 20.7433 159.309 20.9573 159.438C21.1728 159.566 21.3445 159.743 21.4723 159.969C21.6002 160.195 21.6641 160.453 21.6641 160.745C21.6641 161.036 21.5979 161.3 21.4657 161.536C21.3349 161.772 21.1506 161.96 20.9127 162.098C20.6749 162.235 20.397 162.301 20.0789 162.299ZM20.0767 161.719C20.252 161.719 20.4089 161.676 20.5471 161.59C20.6853 161.503 20.7946 161.387 20.8748 161.242C20.9551 161.096 20.9952 160.933 20.9952 160.753C20.9952 160.578 20.9558 160.418 20.8771 160.274C20.7998 160.13 20.6927 160.015 20.556 159.931C20.4207 159.846 20.2662 159.804 20.0923 159.804C19.96 159.804 19.8373 159.829 19.7244 159.879C19.6129 159.93 19.5148 160 19.4301 160.089C19.3454 160.178 19.2785 160.281 19.2294 160.397C19.1819 160.511 19.1581 160.632 19.1581 160.76C19.1581 160.931 19.1975 161.089 19.2762 161.235C19.3565 161.381 19.4658 161.498 19.604 161.587C19.7437 161.675 19.9013 161.719 20.0767 161.719ZM24.0659 162.312C23.7136 162.31 23.4126 162.218 23.1629 162.033C22.9132 161.849 22.7222 161.581 22.5899 161.228C22.4576 160.876 22.3915 160.452 22.3915 159.955C22.3915 159.46 22.4576 159.037 22.5899 158.687C22.7237 158.336 22.9154 158.068 23.1651 157.884C23.4163 157.7 23.7166 157.608 24.0659 157.608C24.4152 157.608 24.7147 157.7 24.9644 157.886C25.2141 158.071 25.4051 158.338 25.5374 158.689C25.6711 159.038 25.738 159.46 25.738 159.955C25.738 160.453 25.6719 160.878 25.5396 161.231C25.4073 161.581 25.2163 161.85 24.9666 162.035C24.7169 162.22 24.4167 162.312 24.0659 162.312ZM24.0659 161.717C24.375 161.717 24.6166 161.566 24.7905 161.264C24.9659 160.962 25.0536 160.526 25.0536 159.955C25.0536 159.576 25.0134 159.256 24.9332 158.994C24.8544 158.731 24.7407 158.532 24.592 158.397C24.4449 158.26 24.2695 158.192 24.0659 158.192C23.7582 158.192 23.5167 158.343 23.3413 158.647C23.1659 158.95 23.0774 159.386 23.076 159.955C23.076 160.336 23.1153 160.658 23.1941 160.921C23.2744 161.182 23.3881 161.381 23.5352 161.516C23.6824 161.65 23.8593 161.717 24.0659 161.717Z" fill="#CACACA"/>
<path d="M18.0455 207.809H1029.21" stroke="#E5E5E5" stroke-width="0.627841" stroke-dasharray="2.51 2.51"/>
<path d="M19.9919 215.872C19.7125 215.872 19.4613 215.818 19.2383 215.711C19.0169 215.602 18.84 215.454 18.7077 215.265C18.5754 215.076 18.5048 214.861 18.4959 214.619H19.1648C19.1811 214.815 19.2681 214.976 19.4256 215.102C19.5832 215.229 19.7719 215.292 19.9919 215.292C20.1673 215.292 20.3226 215.252 20.4579 215.171C20.5946 215.09 20.7017 214.977 20.779 214.835C20.8577 214.692 20.8971 214.529 20.8971 214.346C20.8971 214.161 20.857 213.995 20.7767 213.849C20.6965 213.704 20.5857 213.589 20.4445 213.506C20.3048 213.423 20.1443 213.38 19.9629 213.379C19.8247 213.379 19.6857 213.403 19.546 213.45C19.4063 213.498 19.2933 213.56 19.2071 213.638L18.5762 213.544L18.8326 211.243H21.343V211.834H19.4056L19.2606 213.111H19.2874C19.3766 213.025 19.4947 212.953 19.6419 212.895C19.7905 212.837 19.9496 212.808 20.119 212.808C20.397 212.808 20.6444 212.874 20.8615 213.007C21.0799 213.139 21.2516 213.319 21.3765 213.548C21.5028 213.776 21.5652 214.037 21.5638 214.333C21.5652 214.629 21.4984 214.893 21.3631 215.125C21.2293 215.356 21.0435 215.539 20.8057 215.673C20.5694 215.805 20.2981 215.872 19.9919 215.872ZM23.9678 215.885C23.6155 215.883 23.3145 215.791 23.0648 215.606C22.8151 215.422 22.6241 215.154 22.4918 214.801C22.3595 214.449 22.2934 214.025 22.2934 213.528C22.2934 213.033 22.3595 212.61 22.4918 212.26C22.6256 211.909 22.8173 211.641 23.067 211.457C23.3182 211.273 23.6185 211.181 23.9678 211.181C24.3171 211.181 24.6166 211.273 24.8663 211.459C25.116 211.644 25.307 211.911 25.4393 212.262C25.573 212.611 25.6399 213.033 25.6399 213.528C25.6399 214.026 25.5738 214.451 25.4415 214.804C25.3092 215.154 25.1182 215.423 24.8685 215.608C24.6188 215.793 24.3186 215.885 23.9678 215.885ZM23.9678 215.29C24.2769 215.29 24.5185 215.139 24.6924 214.837C24.8678 214.535 24.9555 214.099 24.9555 213.528C24.9555 213.149 24.9153 212.829 24.8351 212.567C24.7563 212.304 24.6426 212.105 24.4939 211.97C24.3468 211.833 24.1714 211.765 23.9678 211.765C23.6601 211.765 23.4186 211.916 23.2432 212.22C23.0678 212.523 22.9793 212.959 22.9779 213.528C22.9779 213.909 23.0172 214.231 23.096 214.494C23.1763 214.755 23.29 214.954 23.4371 215.089C23.5843 215.223 23.7612 215.29 23.9678 215.29Z" fill="#CACACA"/>
<path d="M18.0455 261.382H1029.21" stroke="#E5E5E5" stroke-width="0.627841" stroke-dasharray="2.51 2.51"/>
<path d="M18.3889 268.49V267.932L20.362 264.815H20.8013V265.636H20.5226L19.1113 267.87V267.906H21.8157V268.49H18.3889ZM20.5538 269.382V268.32L20.5582 268.066V264.815H21.2115V269.382H20.5538ZM24.1824 269.457C23.8301 269.456 23.5291 269.363 23.2794 269.179C23.0297 268.994 22.8387 268.726 22.7064 268.374C22.5741 268.022 22.508 267.597 22.508 267.101C22.508 266.606 22.5741 266.183 22.7064 265.832C22.8402 265.481 23.0319 265.214 23.2816 265.03C23.5328 264.845 23.8331 264.753 24.1824 264.753C24.5317 264.753 24.8312 264.846 25.0809 265.032C25.3306 265.216 25.5216 265.484 25.6539 265.834C25.7876 266.184 25.8545 266.606 25.8545 267.101C25.8545 267.599 25.7884 268.024 25.6561 268.376C25.5238 268.727 25.3328 268.995 25.0831 269.181C24.8334 269.365 24.5331 269.457 24.1824 269.457ZM24.1824 268.862C24.4915 268.862 24.7331 268.711 24.907 268.41C25.0824 268.108 25.1701 267.672 25.1701 267.101C25.1701 266.722 25.1299 266.401 25.0497 266.14C24.9709 265.877 24.8572 265.678 24.7085 265.542C24.5614 265.406 24.386 265.337 24.1824 265.337C23.8747 265.337 23.6332 265.489 23.4578 265.792C23.2824 266.095 23.1939 266.531 23.1924 267.101C23.1924 267.481 23.2318 267.803 23.3106 268.066C23.3909 268.328 23.5046 268.526 23.6517 268.661C23.7989 268.795 23.9758 268.862 24.1824 268.862Z" fill="#CACACA"/>
<path d="M18.0455 314.955H1029.21" stroke="#E5E5E5" stroke-width="0.627841" stroke-dasharray="2.51 2.51"/>
<path d="M20.0744 323.017C19.7682 323.017 19.4947 322.964 19.2539 322.859C19.0146 322.753 18.8251 322.607 18.6854 322.419C18.5472 322.231 18.4729 322.012 18.4625 321.764H19.1625C19.1715 321.899 19.2168 322.017 19.2985 322.116C19.3818 322.214 19.4903 322.29 19.6241 322.344C19.7578 322.397 19.9065 322.424 20.07 322.424C20.2498 322.424 20.4089 322.393 20.5471 322.33C20.6868 322.268 20.7961 322.181 20.8748 322.069C20.9536 321.956 20.993 321.826 20.993 321.679C20.993 321.526 20.9536 321.392 20.8748 321.276C20.7975 321.158 20.6838 321.066 20.5337 320.999C20.3851 320.932 20.2052 320.899 19.9942 320.899H19.6084V320.337H19.9942C20.1636 320.337 20.3122 320.307 20.4401 320.246C20.5694 320.185 20.6705 320.1 20.7433 319.992C20.8161 319.882 20.8525 319.753 20.8525 319.606C20.8525 319.465 20.8206 319.342 20.7567 319.238C20.6942 319.132 20.6051 319.05 20.4891 318.99C20.3747 318.931 20.2394 318.901 20.0833 318.901C19.9347 318.901 19.7957 318.929 19.6664 318.984C19.5386 319.037 19.4345 319.115 19.3543 319.216C19.274 319.315 19.2309 319.435 19.225 319.575H18.5583C18.5658 319.328 18.6386 319.111 18.7768 318.924C18.9165 318.736 19.1009 318.59 19.3298 318.484C19.5587 318.379 19.8128 318.326 20.0923 318.326C20.3851 318.326 20.6378 318.383 20.8503 318.498C21.0643 318.611 21.2293 318.762 21.3453 318.95C21.4627 319.139 21.5207 319.346 21.5192 319.57C21.5207 319.826 21.4493 320.043 21.3051 320.221C21.1624 320.4 20.9722 320.519 20.7344 320.58V320.616C21.0376 320.662 21.2724 320.782 21.4389 320.977C21.6069 321.172 21.6901 321.413 21.6886 321.702C21.6901 321.953 21.6202 322.178 21.479 322.377C21.3393 322.576 21.1483 322.733 20.906 322.848C20.6638 322.961 20.3866 323.017 20.0744 323.017ZM24.1211 323.03C23.7688 323.029 23.4678 322.936 23.2181 322.752C22.9684 322.567 22.7774 322.299 22.6451 321.947C22.5128 321.595 22.4467 321.17 22.4467 320.674C22.4467 320.179 22.5128 319.756 22.6451 319.405C22.7789 319.054 22.9706 318.787 23.2203 318.603C23.4715 318.418 23.7718 318.326 24.1211 318.326C24.4703 318.326 24.7699 318.419 25.0196 318.605C25.2693 318.789 25.4603 319.057 25.5926 319.407C25.7263 319.757 25.7932 320.179 25.7932 320.674C25.7932 321.172 25.7271 321.597 25.5948 321.949C25.4625 322.3 25.2715 322.568 25.0218 322.754C24.7721 322.938 24.4718 323.03 24.1211 323.03ZM24.1211 322.435C24.4302 322.435 24.6718 322.284 24.8457 321.983C25.021 321.681 25.1087 321.245 25.1087 320.674C25.1087 320.295 25.0686 319.974 24.9883 319.713C24.9096 319.45 24.7959 319.251 24.6472 319.115C24.5001 318.979 24.3247 318.91 24.1211 318.91C23.8134 318.91 23.5718 319.062 23.3964 319.365C23.2211 319.668 23.1326 320.104 23.1311 320.674C23.1311 321.054 23.1705 321.376 23.2493 321.639C23.3296 321.901 23.4433 322.099 23.5904 322.234C23.7376 322.368 23.9144 322.435 24.1211 322.435Z" fill="#CACACA"/>
<path d="M18.0455 368.527H1029.21" stroke="#E5E5E5" stroke-width="0.627841" stroke-dasharray="2.51 2.51"/>
<path d="M18.4848 376.527V376.028L20.0298 374.427C20.1948 374.253 20.3308 374.101 20.4378 373.97C20.5463 373.838 20.6273 373.712 20.6809 373.593C20.7344 373.474 20.7611 373.348 20.7611 373.214C20.7611 373.063 20.7254 372.932 20.6541 372.822C20.5828 372.71 20.4854 372.625 20.362 372.565C20.2387 372.504 20.0997 372.474 19.9451 372.474C19.7816 372.474 19.6389 372.507 19.517 372.574C19.3952 372.641 19.3015 372.736 19.2361 372.858C19.1707 372.979 19.138 373.122 19.138 373.286H18.4803C18.4803 373.008 18.5442 372.765 18.672 372.557C18.7999 372.348 18.9753 372.187 19.1982 372.073C19.4212 371.957 19.6746 371.899 19.9585 371.899C20.2454 371.899 20.498 371.956 20.7165 372.07C20.9365 372.183 21.1082 372.338 21.2316 372.534C21.3549 372.729 21.4166 372.949 21.4166 373.194C21.4166 373.364 21.3847 373.529 21.3207 373.691C21.2583 373.853 21.1491 374.034 20.993 374.233C20.8369 374.431 20.6199 374.671 20.342 374.953L19.4345 375.903V375.937H21.4902V376.527H18.4848ZM23.9249 376.603C23.5726 376.602 23.2716 376.509 23.0219 376.324C22.7722 376.14 22.5812 375.872 22.4489 375.52C22.3166 375.167 22.2505 374.743 22.2505 374.247C22.2505 373.752 22.3166 373.329 22.4489 372.978C22.5827 372.627 22.7744 372.36 23.0241 372.175C23.2753 371.991 23.5756 371.899 23.9249 371.899C24.2741 371.899 24.5737 371.992 24.8234 372.177C25.0731 372.362 25.2641 372.629 25.3964 372.98C25.5301 373.329 25.597 373.752 25.597 374.247C25.597 374.744 25.5309 375.17 25.3986 375.522C25.2663 375.873 25.0753 376.141 24.8256 376.327C24.5759 376.511 24.2756 376.603 23.9249 376.603ZM23.9249 376.008C24.234 376.008 24.4756 375.857 24.6495 375.555C24.8248 375.254 24.9125 374.817 24.9125 374.247C24.9125 373.867 24.8724 373.547 24.7921 373.286C24.7134 373.022 24.5997 372.823 24.451 372.688C24.3039 372.551 24.1285 372.483 23.9249 372.483C23.6172 372.483 23.3756 372.635 23.2002 372.938C23.0249 373.241 22.9364 373.677 22.9349 374.247C22.9349 374.627 22.9743 374.949 23.0531 375.212C23.1334 375.474 23.2471 375.672 23.3942 375.807C23.5414 375.941 23.7182 376.008 23.9249 376.008Z" fill="#CACACA"/>
<path d="M18.0455 422.1H1029.21" stroke="#E5E5E5" stroke-width="0.627841" stroke-dasharray="2.51 2.51"/>
<path d="M20.2171 425.534V430.1H19.526V426.225H19.4992L18.4067 426.938V426.278L19.546 425.534H20.2171ZM23.042 430.176C22.6897 430.174 22.3887 430.081 22.139 429.897C21.8893 429.713 21.6983 429.444 21.566 429.092C21.4337 428.74 21.3676 428.315 21.3676 427.819C21.3676 427.324 21.4337 426.901 21.566 426.55C21.6998 426.2 21.8915 425.932 22.1412 425.748C22.3924 425.563 22.6927 425.471 23.042 425.471C23.3912 425.471 23.6907 425.564 23.9405 425.75C24.1902 425.934 24.3812 426.202 24.5135 426.553C24.6472 426.902 24.7141 427.324 24.7141 427.819C24.7141 428.317 24.648 428.742 24.5157 429.094C24.3834 429.445 24.1924 429.713 23.9427 429.899C23.693 430.084 23.3927 430.176 23.042 430.176ZM23.042 429.58C23.3511 429.58 23.5926 429.43 23.7666 429.128C23.9419 428.826 24.0296 428.39 24.0296 427.819C24.0296 427.44 23.9895 427.12 23.9092 426.858C23.8305 426.595 23.7168 426.396 23.5681 426.261C23.421 426.124 23.2456 426.055 23.042 426.055C22.7343 426.055 22.4927 426.207 22.3173 426.51C22.142 426.813 22.0535 427.25 22.052 427.819C22.052 428.2 22.0914 428.521 22.1702 428.784C22.2505 429.046 22.3642 429.244 22.5113 429.38C22.6585 429.513 22.8353 429.58 23.042 429.58Z" fill="#CACACA"/>
<path opacity="0.1" d="M52.983 351.964L18.0455 358.592V411.613H881.955V166.39L847.017 192.9L773.966 111.159L700.915 354.173L631.04 321.035L557.989 316.617L488.114 358.592L415.063 100.113L342.011 268.014L268.96 261.386L199.085 301.152L126.034 290.106L52.983 351.964Z" fill="url(#paint0_linear_9_4691)"/>
<path d="M18.0455 358.591L52.983 351.963L126.034 290.105L199.085 301.151L268.96 261.385L342.011 268.013L415.063 100.112L488.114 358.591L557.989 316.616L631.04 321.034L700.915 354.172L773.966 111.158L847.017 192.899L881.955 166.389" stroke="#0E33F2" stroke-width="1.07282"/>
</g>
</g>
<defs>
<filter id="filter0_d_9_4691" x="0" y="0" width="900" height="452.977" filterUnits="userSpaceOnUse" color-interpolation-filters="sRGB">
<feFlood flood-opacity="0" result="BackgroundImageFix"/>
<feColorMatrix in="SourceAlpha" type="matrix" values="0 0 0 0 0 0 0 0 0 0 0 0 0 0 0 0 0 0 127 0" result="hardAlpha"/>
<feOffset dy="2"/>
<feGaussianBlur stdDeviation="4"/>
<feComposite in2="hardAlpha" operator="out"/>
<feColorMatrix type="matrix" values="0 0 0 0 0 0 0 0 0 0 0 0 0 0 0 0 0 0 0.12 0"/>
<feBlend mode="normal" in2="BackgroundImageFix" result="effect1_dropShadow_9_4691"/>
<feBlend mode="normal" in="SourceGraphic" in2="effect1_dropShadow_9_4691" result="shape"/>
</filter>
<linearGradient id="paint0_linear_9_4691" x1="450" y1="100.113" x2="450" y2="411.613" gradientUnits="userSpaceOnUse">
<stop stop-color="#0E33F2"/>
<stop offset="1" stop-color="#0E33F2" stop-opacity="0"/>
</linearGradient>
<clipPath id="clip0_9_4691">
<rect x="8" y="6" width="884" height="436.977" rx="10.0455" fill="white"/>
</clipPath>
</defs>
</svg>
