<svg width="19" height="18" viewBox="0 0 19 18" fill="none" xmlns="http://www.w3.org/2000/svg">
<path d="M2.34049 5.95463C2.55146 5.74372 2.83756 5.62524 3.13587 5.62524C3.43418 5.62524 3.72027 5.74372 3.93124 5.95463L9.49999 11.5234L15.0687 5.95463C15.2809 5.7497 15.5651 5.63631 15.8601 5.63887C16.155 5.64143 16.4372 5.75975 16.6458 5.96833C16.8544 6.17692 16.9727 6.45908 16.9753 6.75405C16.9778 7.04902 16.8644 7.3332 16.6595 7.54538L10.2954 13.9095C10.0844 14.1204 9.7983 14.2389 9.49999 14.2389C9.20168 14.2389 8.91559 14.1204 8.70462 13.9095L2.34049 7.54538C2.12959 7.33441 2.01111 7.04831 2.01111 6.75C2.01111 6.45169 2.12959 6.1656 2.34049 5.95463Z" fill="#232D42"/>
</svg>
