<svg width="13" height="13" viewBox="0 0 13 13" fill="none" xmlns="http://www.w3.org/2000/svg">
<path d="M6.5 9.40469C6.39167 9.40469 6.2901 9.38762 6.19531 9.3535C6.10052 9.31992 6.0125 9.2625 5.93125 9.18125L3.00625 6.25625C2.85729 6.10729 2.78281 5.91771 2.78281 5.6875C2.78281 5.45729 2.85729 5.26771 3.00625 5.11875C3.15521 4.96979 3.34804 4.89179 3.58475 4.88475C3.822 4.87825 4.0151 4.94948 4.16406 5.09844L5.6875 6.62187V0.8125C5.6875 0.582292 5.7655 0.389188 5.9215 0.233188C6.07696 0.0777293 6.26979 0 6.5 0C6.73021 0 6.92331 0.0777293 7.07931 0.233188C7.23477 0.389188 7.3125 0.582292 7.3125 0.8125V6.62187L8.83594 5.09844C8.9849 4.94948 9.178 4.87825 9.41525 4.88475C9.65196 4.89179 9.84479 4.96979 9.99375 5.11875C10.1427 5.26771 10.2172 5.45729 10.2172 5.6875C10.2172 5.91771 10.1427 6.10729 9.99375 6.25625L7.06875 9.18125C6.9875 9.2625 6.89948 9.31992 6.80469 9.3535C6.7099 9.38762 6.60833 9.40469 6.5 9.40469ZM1.625 13C1.17813 13 0.795708 12.841 0.47775 12.5231C0.15925 12.2046 0 11.8219 0 11.375V9.75C0 9.51979 0.0777293 9.32669 0.233188 9.17069C0.389188 9.01523 0.582292 8.9375 0.8125 8.9375C1.04271 8.9375 1.23581 9.01523 1.39181 9.17069C1.54727 9.32669 1.625 9.51979 1.625 9.75V11.375H11.375V9.75C11.375 9.51979 11.453 9.32669 11.609 9.17069C11.7645 9.01523 11.9573 8.9375 12.1875 8.9375C12.4177 8.9375 12.6105 9.01523 12.766 9.17069C12.922 9.32669 13 9.51979 13 9.75V11.375C13 11.8219 12.841 12.2046 12.5231 12.5231C12.2046 12.841 11.8219 13 11.375 13H1.625Z" fill="white"/>
</svg>
