<svg width="20" height="21" viewBox="0 0 20 21" fill="none" xmlns="http://www.w3.org/2000/svg">
<rect x="11.6667" y="2.16675" width="7.08333" height="7.08333" rx="1.5" fill="#4C4B84"/>
<path fill-rule="evenodd" clip-rule="evenodd" d="M1.66666 3.66675C1.66666 2.83832 2.33823 2.16675 3.16666 2.16675H7.24999C8.07842 2.16675 8.74999 2.83832 8.74999 3.66675V7.75008C8.74999 8.57851 8.07842 9.25008 7.24999 9.25008H3.16666C2.33823 9.25008 1.66666 8.57851 1.66666 7.75008V3.66675ZM1.66666 12.8334C1.66666 12.005 2.33823 11.3334 3.16666 11.3334H7.24999C8.07842 11.3334 8.74999 12.005 8.74999 12.8334V16.9167C8.74999 17.7452 8.07842 18.4167 7.24999 18.4167H3.16666C2.33823 18.4167 1.66666 17.7452 1.66666 16.9167V12.8334ZM13.1667 11.3334C12.3382 11.3334 11.6667 12.005 11.6667 12.8334V16.9167C11.6667 17.7452 12.3382 18.4167 13.1667 18.4167H17.25C18.0784 18.4167 18.75 17.7452 18.75 16.9167V12.8334C18.75 12.005 18.0784 11.3334 17.25 11.3334H13.1667Z" fill="#4C4B84"/>
</svg>
