<svg width="24" height="24" viewBox="0 0 24 24" fill="none" xmlns="http://www.w3.org/2000/svg">
<path d="M10.1952 0.521205C10.6109 0.184021 11.1298 0 11.665 0C12.2002 0 12.7192 0.184021 13.1348 0.521205L22.0329 7.73019C22.4375 8.05784 22.7639 8.47165 22.9883 8.94144C23.2127 9.41123 23.3295 9.92518 23.3301 10.4458V21.0003C23.3301 21.6191 23.0843 22.2125 22.6467 22.65C22.2092 23.0875 21.6158 23.3333 20.997 23.3333H17.4975C16.8788 23.3333 16.2854 23.0875 15.8479 22.65C15.4103 22.2125 15.1645 21.6191 15.1645 21.0003V15.1678C15.1645 14.8584 15.0416 14.5617 14.8229 14.343C14.6041 14.1242 14.3074 14.0013 13.998 14.0013H9.33202C9.02265 14.0013 8.72594 14.1242 8.50718 14.343C8.28842 14.5617 8.16552 14.8584 8.16552 15.1678V21.0003C8.16552 21.6191 7.91972 22.2125 7.4822 22.65C7.04467 23.0875 6.45127 23.3333 5.83251 23.3333H2.33301C1.71425 23.3333 1.12084 23.0875 0.683321 22.65C0.245798 22.2125 6.84946e-08 21.6191 6.84946e-08 21.0003V10.4481C-0.000103088 9.92672 0.116314 9.41187 0.340742 8.94121C0.56517 8.47056 0.891935 8.05601 1.29715 7.72786L10.1952 0.521205Z" fill="white"/>
</svg>
