<svg width="18" height="15" viewBox="0 0 18 15" fill="none" xmlns="http://www.w3.org/2000/svg">
<path d="M13.5061 0.614502C11.91 0.614502 10.191 0.941575 9.00409 1.84103C7.81719 0.941575 6.09823 0.614502 4.50205 0.614502C3.31514 0.614502 2.05457 0.794392 0.998636 1.26047C0.401091 1.53031 0 2.11086 0 2.77318V11.9966C0 13.0596 0.998636 13.8446 2.03001 13.5829C2.8322 13.3785 3.68349 13.2886 4.50205 13.2886C5.77899 13.2886 7.13779 13.5012 8.23465 14.0408C8.72579 14.2861 9.2824 14.2861 9.76535 14.0408C10.8622 13.493 12.221 13.2886 13.498 13.2886C14.3165 13.2886 15.1678 13.3785 15.97 13.5829C17.0014 13.8528 18 13.0678 18 11.9966V2.77318C18 2.11086 17.5989 1.53031 17.0014 1.26047C15.9536 0.794392 14.693 0.614502 13.5061 0.614502ZM16.3711 11.0236C16.3711 11.5387 15.8963 11.9149 15.3888 11.8249C14.7749 11.7104 14.1364 11.6614 13.5061 11.6614C12.1146 11.6614 10.1091 12.1929 9.00409 12.8879V3.47639C10.1091 2.78136 12.1146 2.24987 13.5061 2.24987C14.2592 2.24987 15.0041 2.32346 15.7162 2.47882C16.0928 2.56059 16.3711 2.89584 16.3711 3.28015V11.0236Z" fill="white"/>
<path d="M10.6248 5.93768C10.3629 5.93768 10.1255 5.77415 10.0437 5.51249C9.93725 5.19359 10.1173 4.84199 10.4366 4.74387C11.6971 4.33503 13.3261 4.2042 14.824 4.37591C15.1596 4.41679 15.4052 4.71934 15.3643 5.05459C15.3233 5.38984 15.0205 5.63514 14.6849 5.59426C13.3588 5.4389 11.91 5.56155 10.8131 5.91315C10.7476 5.92133 10.6821 5.93768 10.6248 5.93768ZM10.6248 8.11272C10.3629 8.11272 10.1255 7.94918 10.0437 7.68752C9.93725 7.36863 10.1173 7.01702 10.4366 6.9189C11.689 6.51006 13.3261 6.37923 14.824 6.55095C15.1596 6.59183 15.4052 6.89437 15.3643 7.22962C15.3233 7.56487 15.0205 7.81018 14.6849 7.76929C13.3588 7.61393 11.91 7.73658 10.8131 8.08819C10.7516 8.10386 10.6883 8.11209 10.6248 8.11272ZM10.6248 10.2878C10.3629 10.2878 10.1255 10.1242 10.0437 9.86256C9.93725 9.54366 10.1173 9.19206 10.4366 9.09394C11.689 8.6851 13.3261 8.55427 14.824 8.72598C15.1596 8.76686 15.4052 9.06941 15.3643 9.40466C15.3233 9.73991 15.0205 9.97703 14.6849 9.94433C13.3588 9.78897 11.91 9.91162 10.8131 10.2632C10.7516 10.2789 10.6883 10.2871 10.6248 10.2878Z" fill="white"/>
</svg>
