<svg width="32" height="33" viewBox="0 0 32 33" fill="none" xmlns="http://www.w3.org/2000/svg">
<path d="M26.3593 16.0272C25.3853 14.8898 24.9427 13.9042 24.9427 12.2296V11.6603C24.9427 9.47813 24.4405 8.07217 23.3486 6.66621C21.6656 4.48274 18.8325 3.16675 16.0589 3.16675H15.941C13.2258 3.16675 10.4814 4.42231 8.76929 6.51715C7.61773 7.95131 7.05719 9.4177 7.05719 11.6603V12.2296C7.05719 13.9042 6.64375 14.8898 5.64061 16.0272C4.9025 16.8651 4.66663 17.9421 4.66663 19.1077C4.66663 20.2746 5.04959 21.3798 5.81818 22.2781C6.82132 23.3551 8.2379 24.0426 9.68496 24.1622C11.78 24.4012 13.8751 24.4912 16.0006 24.4912C18.1248 24.4912 20.2199 24.3408 22.3163 24.1622C23.762 24.0426 25.1786 23.3551 26.1817 22.2781C26.949 21.3798 27.3333 20.2746 27.3333 19.1077C27.3333 17.9421 27.0974 16.8651 26.3593 16.0272Z" fill="#605DAA"/>
<path d="M12 26.0645C12 25.7667 12.2638 25.5379 12.5586 25.58C14.5096 25.8588 16.4904 25.8588 18.4414 25.58C18.7362 25.5379 19 25.7667 19 26.0645V26.145C19 27.9981 17.4978 29.5002 15.6448 29.5002H15.3552C13.5022 29.5002 12 27.9981 12 26.145V26.0645Z" fill="#605DAA"/>
</svg>
