<svg width="97" height="11" viewBox="0 0 97 11" fill="none" xmlns="http://www.w3.org/2000/svg">
<path d="M7.354 3.60654C7.354 4.1012 7.23733 4.56787 7.004 5.00654C6.77067 5.4452 6.39733 5.80454 5.884 6.08454C5.37067 6.3552 4.71267 6.49054 3.91 6.49054H2.146V10.4385H0.55V0.708537H3.91C4.65667 0.708537 5.28667 0.839204 5.8 1.10054C6.32267 1.35254 6.71 1.69787 6.962 2.13654C7.22333 2.5752 7.354 3.0652 7.354 3.60654ZM3.91 5.18854C4.51667 5.18854 4.96933 5.0532 5.268 4.78254C5.56667 4.50254 5.716 4.11054 5.716 3.60654C5.716 2.54254 5.114 2.01054 3.91 2.01054H2.146V5.18854H3.91ZM8.62417 6.54654C8.62417 5.77187 8.78284 5.08587 9.10017 4.48854C9.42684 3.8912 9.86551 3.4292 10.4162 3.10254C10.9762 2.76654 11.5922 2.59854 12.2642 2.59854C12.8708 2.59854 13.3982 2.71987 13.8462 2.96254C14.3035 3.19587 14.6675 3.48987 14.9382 3.84454V2.72454H16.5482V10.4385H14.9382V9.29054C14.6675 9.65454 14.2988 9.95787 13.8322 10.2005C13.3655 10.4432 12.8335 10.5645 12.2362 10.5645C11.5735 10.5645 10.9668 10.3965 10.4162 10.0605C9.86551 9.7152 9.42684 9.2392 9.10017 8.63254C8.78284 8.01654 8.62417 7.3212 8.62417 6.54654ZM14.9382 6.57454C14.9382 6.04254 14.8262 5.58054 14.6022 5.18854C14.3875 4.79654 14.1028 4.49787 13.7482 4.29254C13.3935 4.0872 13.0108 3.98454 12.6002 3.98454C12.1895 3.98454 11.8068 4.0872 11.4522 4.29254C11.0975 4.48854 10.8082 4.78254 10.5842 5.17454C10.3695 5.5572 10.2622 6.01454 10.2622 6.54654C10.2622 7.07854 10.3695 7.5452 10.5842 7.94654C10.8082 8.34787 11.0975 8.65587 11.4522 8.87054C11.8162 9.07587 12.1988 9.17854 12.6002 9.17854C13.0108 9.17854 13.3935 9.07587 13.7482 8.87054C14.1028 8.6652 14.3875 8.36654 14.6022 7.97454C14.8262 7.5732 14.9382 7.10654 14.9382 6.57454ZM20.5205 3.84454C20.7538 3.45254 21.0618 3.1492 21.4445 2.93454C21.8365 2.71054 22.2985 2.59854 22.8305 2.59854V4.25054H22.4245C21.7991 4.25054 21.3231 4.4092 20.9965 4.72654C20.6791 5.04387 20.5205 5.59454 20.5205 6.37854V10.4385H18.9245V2.72454H20.5205V3.84454ZM26.4395 4.02654V8.29654C26.4395 8.58587 26.5048 8.79587 26.6355 8.92654C26.7755 9.04787 27.0088 9.10854 27.3355 9.10854H28.3155V10.4385H27.0555C26.3368 10.4385 25.7862 10.2705 25.4035 9.93454C25.0208 9.59854 24.8295 9.05254 24.8295 8.29654V4.02654H23.9195V2.72454H24.8295V0.806537H26.4395V2.72454H28.3155V4.02654H26.4395ZM33.9585 2.59854C34.5652 2.59854 35.1065 2.72454 35.5825 2.97654C36.0678 3.22854 36.4458 3.60187 36.7165 4.09654C36.9872 4.5912 37.1225 5.18854 37.1225 5.88854V10.4385H35.5405V6.12654C35.5405 5.43587 35.3678 4.90854 35.0225 4.54454C34.6772 4.1712 34.2058 3.98454 33.6085 3.98454C33.0112 3.98454 32.5352 4.1712 32.1805 4.54454C31.8352 4.90854 31.6625 5.43587 31.6625 6.12654V10.4385H30.0665V2.72454H31.6625V3.60654C31.9238 3.2892 32.2552 3.04187 32.6565 2.86454C33.0672 2.6872 33.5012 2.59854 33.9585 2.59854ZM46.5083 6.39254C46.5083 6.68187 46.4896 6.9432 46.4523 7.17654H40.5583C40.6049 7.79254 40.8336 8.2872 41.2443 8.66054C41.6549 9.03387 42.1589 9.22054 42.7563 9.22054C43.6149 9.22054 44.2216 8.8612 44.5763 8.14254H46.2983C46.0649 8.85187 45.6403 9.4352 45.0243 9.89254C44.4176 10.3405 43.6616 10.5645 42.7563 10.5645C42.0189 10.5645 41.3563 10.4012 40.7683 10.0745C40.1896 9.73854 39.7323 9.27187 39.3963 8.67454C39.0696 8.06787 38.9063 7.36787 38.9063 6.57454C38.9063 5.7812 39.0649 5.08587 39.3823 4.48854C39.7089 3.88187 40.1616 3.4152 40.7403 3.08854C41.3283 2.76187 42.0003 2.59854 42.7563 2.59854C43.4843 2.59854 44.1329 2.7572 44.7023 3.07454C45.2716 3.39187 45.7149 3.83987 46.0323 4.41854C46.3496 4.98787 46.5083 5.64587 46.5083 6.39254ZM44.8423 5.88854C44.8329 5.30054 44.6229 4.8292 44.2123 4.47454C43.8016 4.11987 43.2929 3.94254 42.6863 3.94254C42.1356 3.94254 41.6643 4.11987 41.2723 4.47454C40.8803 4.81987 40.6469 5.2912 40.5723 5.88854H44.8423ZM49.9549 3.84454C50.1882 3.45254 50.4962 3.1492 50.8789 2.93454C51.2709 2.71054 51.7329 2.59854 52.2649 2.59854V4.25054H51.8589C51.2336 4.25054 50.7576 4.4092 50.4309 4.72654C50.1136 5.04387 49.9549 5.59454 49.9549 6.37854V10.4385H48.3589V2.72454H49.9549V3.84454ZM64.7327 3.60654C64.7327 4.1012 64.616 4.56787 64.3827 5.00654C64.1493 5.4452 63.776 5.80454 63.2627 6.08454C62.7493 6.3552 62.0913 6.49054 61.2887 6.49054H59.5247V10.4385H57.9287V0.708537H61.2887C62.0353 0.708537 62.6653 0.839204 63.1787 1.10054C63.7013 1.35254 64.0887 1.69787 64.3407 2.13654C64.602 2.5752 64.7327 3.0652 64.7327 3.60654ZM61.2887 5.18854C61.8953 5.18854 62.348 5.0532 62.6467 4.78254C62.9453 4.50254 63.0947 4.11054 63.0947 3.60654C63.0947 2.54254 62.4927 2.01054 61.2887 2.01054H59.5247V5.18854H61.2887ZM66.0028 6.54654C66.0028 5.77187 66.1615 5.08587 66.4788 4.48854C66.8055 3.8912 67.2442 3.4292 67.7948 3.10254C68.3548 2.76654 68.9708 2.59854 69.6428 2.59854C70.2495 2.59854 70.7768 2.71987 71.2248 2.96254C71.6822 3.19587 72.0462 3.48987 72.3168 3.84454V2.72454H73.9268V10.4385H72.3168V9.29054C72.0462 9.65454 71.6775 9.95787 71.2108 10.2005C70.7442 10.4432 70.2122 10.5645 69.6148 10.5645C68.9522 10.5645 68.3455 10.3965 67.7948 10.0605C67.2442 9.7152 66.8055 9.2392 66.4788 8.63254C66.1615 8.01654 66.0028 7.3212 66.0028 6.54654ZM72.3168 6.57454C72.3168 6.04254 72.2048 5.58054 71.9808 5.18854C71.7662 4.79654 71.4815 4.49787 71.1268 4.29254C70.7722 4.0872 70.3895 3.98454 69.9788 3.98454C69.5682 3.98454 69.1855 4.0872 68.8308 4.29254C68.4762 4.48854 68.1868 4.78254 67.9628 5.17454C67.7482 5.5572 67.6408 6.01454 67.6408 6.54654C67.6408 7.07854 67.7482 7.5452 67.9628 7.94654C68.1868 8.34787 68.4762 8.65587 68.8308 8.87054C69.1948 9.07587 69.5775 9.17854 69.9788 9.17854C70.3895 9.17854 70.7722 9.07587 71.1268 8.87054C71.4815 8.6652 71.7662 8.36654 71.9808 7.97454C72.2048 7.5732 72.3168 7.10654 72.3168 6.57454ZM80.1951 2.59854C80.8018 2.59854 81.3431 2.72454 81.8191 2.97654C82.3045 3.22854 82.6825 3.60187 82.9531 4.09654C83.2238 4.5912 83.3591 5.18854 83.3591 5.88854V10.4385H81.7771V6.12654C81.7771 5.43587 81.6045 4.90854 81.2591 4.54454C80.9138 4.1712 80.4425 3.98454 79.8451 3.98454C79.2478 3.98454 78.7718 4.1712 78.4171 4.54454C78.0718 4.90854 77.8991 5.43587 77.8991 6.12654V10.4385H76.3031V2.72454H77.8991V3.60654C78.1605 3.2892 78.4918 3.04187 78.8931 2.86454C79.3038 2.6872 79.7378 2.59854 80.1951 2.59854ZM92.7449 6.39254C92.7449 6.68187 92.7263 6.9432 92.6889 7.17654H86.7949C86.8416 7.79254 87.0703 8.2872 87.4809 8.66054C87.8916 9.03387 88.3956 9.22054 88.9929 9.22054C89.8516 9.22054 90.4583 8.8612 90.8129 8.14254H92.5349C92.3016 8.85187 91.8769 9.4352 91.2609 9.89254C90.6543 10.3405 89.8983 10.5645 88.9929 10.5645C88.2556 10.5645 87.5929 10.4012 87.0049 10.0745C86.4263 9.73854 85.9689 9.27187 85.6329 8.67454C85.3063 8.06787 85.1429 7.36787 85.1429 6.57454C85.1429 5.7812 85.3016 5.08587 85.6189 4.48854C85.9456 3.88187 86.3983 3.4152 86.9769 3.08854C87.5649 2.76187 88.2369 2.59854 88.9929 2.59854C89.7209 2.59854 90.3696 2.7572 90.9389 3.07454C91.5083 3.39187 91.9516 3.83987 92.2689 4.41854C92.5863 4.98787 92.7449 5.64587 92.7449 6.39254ZM91.0789 5.88854C91.0696 5.30054 90.8596 4.8292 90.4489 4.47454C90.0383 4.11987 89.5296 3.94254 88.9229 3.94254C88.3723 3.94254 87.9009 4.11987 87.5089 4.47454C87.1169 4.81987 86.8836 5.2912 86.8089 5.88854H91.0789ZM96.1915 0.0785375V10.4385H94.5955V0.0785375H96.1915Z" fill="#605DAA"/>
</svg>
