<svg width="161" height="22" viewBox="0 0 161 22" fill="none" xmlns="http://www.w3.org/2000/svg">
<path d="M0.234829 16.4329V4.1961H3.93932V6.44269H4.07475C4.32968 5.69914 4.75988 5.11226 5.36535 4.68207C5.97081 4.25187 6.69312 4.03677 7.53227 4.03677C8.38205 4.03677 9.10967 4.25452 9.71513 4.69003C10.3206 5.12554 10.7057 5.70976 10.8703 6.44269H10.9978C11.2261 5.71507 11.6723 5.13351 12.3362 4.698C13 4.25718 13.7834 4.03677 14.6863 4.03677C15.8441 4.03677 16.7842 4.40855 17.5065 5.1521C18.2288 5.89034 18.59 6.90476 18.59 8.19536V16.4329H14.6943V9.08762C14.6943 8.47684 14.5376 8.01212 14.2243 7.69346C13.9109 7.36948 13.5046 7.20749 13.0054 7.20749C12.4689 7.20749 12.0467 7.38276 11.7387 7.73329C11.4359 8.07851 11.2846 8.54323 11.2846 9.12745V16.4329H7.54024V9.04779C7.54024 8.4795 7.38622 8.03071 7.07817 7.70142C6.77013 7.37214 6.36383 7.20749 5.85928 7.20749C5.51937 7.20749 5.21929 7.28981 4.95905 7.45446C4.6988 7.61379 4.49433 7.84217 4.34562 8.13959C4.20222 8.43701 4.13052 8.78754 4.13052 9.19118V16.4329H0.234829ZM24.4534 16.64C23.6727 16.64 22.9796 16.5099 22.3741 16.2496C21.774 15.9841 21.2986 15.5857 20.9481 15.0546C20.6029 14.5182 20.4303 13.8464 20.4303 13.0391C20.4303 12.3593 20.5498 11.7857 20.7888 11.3183C21.0278 10.8509 21.357 10.4712 21.7766 10.179C22.1962 9.88694 22.6795 9.66653 23.2266 9.51782C23.7736 9.3638 24.3578 9.26023 24.9792 9.20712C25.675 9.14339 26.2353 9.077 26.6602 9.00795C27.0851 8.9336 27.3931 8.83003 27.5843 8.69725C27.7808 8.55916 27.8791 8.36531 27.8791 8.11569V8.07586C27.8791 7.6669 27.7383 7.35089 27.4568 7.12782C27.1754 6.90476 26.7956 6.79323 26.3176 6.79323C25.8024 6.79323 25.3882 6.90476 25.0748 7.12782C24.7615 7.35089 24.5623 7.65893 24.4773 8.05196L20.8844 7.92449C20.9906 7.18094 21.2641 6.51705 21.7049 5.93283C22.1511 5.3433 22.7618 4.88123 23.5373 4.54663C24.318 4.20672 25.2554 4.03677 26.3495 4.03677C27.1302 4.03677 27.8499 4.12971 28.5084 4.3156C29.167 4.49618 29.7406 4.76173 30.2292 5.11226C30.7179 5.45749 31.0949 5.88237 31.3605 6.38693C31.6314 6.89148 31.7668 7.46774 31.7668 8.11569V16.4329H28.1021V14.728H28.0065C27.7888 15.1423 27.51 15.4928 27.17 15.7796C26.8354 16.0664 26.4398 16.2815 25.983 16.4249C25.5316 16.5683 25.0217 16.64 24.4534 16.64ZM25.6564 14.0907C26.076 14.0907 26.453 14.0057 26.7876 13.8357C27.1276 13.6658 27.3984 13.4321 27.6002 13.1347C27.8021 12.8319 27.903 12.4814 27.903 12.0831V10.9199C27.7914 10.9784 27.656 11.0315 27.4967 11.0793C27.3427 11.1271 27.1727 11.1722 26.9868 11.2147C26.8009 11.2572 26.6097 11.2944 26.4132 11.3262C26.2167 11.3581 26.0282 11.3873 25.8476 11.4139C25.4811 11.4723 25.1678 11.5626 24.9075 11.6847C24.6526 11.8069 24.4561 11.9662 24.318 12.1627C24.1852 12.3539 24.1188 12.5823 24.1188 12.8479C24.1188 13.2515 24.2622 13.5596 24.549 13.772C24.8411 13.9844 25.2102 14.0907 25.6564 14.0907ZM37.6621 13.2223L37.678 8.57775H38.2198L41.6614 4.1961H46.0749L40.9603 10.4738H39.9326L37.6621 13.2223ZM34.1488 16.4329V0.117181H38.0445V16.4329H34.1488ZM41.749 16.4329L38.5464 11.3501L41.1117 8.58572L46.2501 16.4329H41.749ZM52.6852 16.6639C51.4052 16.6639 50.3005 16.4116 49.3711 15.9071C48.4469 15.3972 47.7353 14.6722 47.236 13.7322C46.7421 12.7868 46.4951 11.6635 46.4951 10.3623C46.4951 9.09824 46.7447 7.99353 47.244 7.04816C47.7432 6.09747 48.4469 5.35923 49.3551 4.83343C50.2633 4.30232 51.3335 4.03677 52.5657 4.03677C53.4367 4.03677 54.2334 4.1722 54.9557 4.44307C55.678 4.71393 56.3021 5.11492 56.8279 5.64603C57.3536 6.17714 57.7626 6.83306 58.0547 7.61379C58.3468 8.38921 58.4929 9.27882 58.4929 10.2826V11.2545H47.8574V8.99202H54.8681C54.8627 8.57775 54.7645 8.20863 54.5733 7.88466C54.3821 7.56068 54.1192 7.3084 53.7846 7.12782C53.4553 6.94194 53.0756 6.84899 52.6454 6.84899C52.2099 6.84899 51.8195 6.94725 51.4743 7.14376C51.129 7.33496 50.8555 7.59786 50.6537 7.93246C50.4519 8.26174 50.3457 8.63618 50.335 9.05575V11.3581C50.335 11.8574 50.4333 12.2955 50.6298 12.6726C50.8263 13.0444 51.1051 13.3338 51.4663 13.541C51.8275 13.7481 52.2577 13.8517 52.7569 13.8517C53.1021 13.8517 53.4155 13.8039 53.697 13.7083C53.9784 13.6127 54.2201 13.4719 54.4219 13.286C54.6237 13.1001 54.7751 12.8718 54.876 12.6009L58.453 12.7045C58.3043 13.5064 57.9777 14.2049 57.4731 14.7997C56.9739 15.3892 56.318 15.8486 55.5054 16.1779C54.6928 16.5019 53.7527 16.6639 52.6852 16.6639ZM60.4825 16.4329V4.1961H64.187V6.44269H64.3225C64.5774 5.69914 65.0076 5.11226 65.6131 4.68207C66.2185 4.25187 66.9408 4.03677 67.78 4.03677C68.6298 4.03677 69.3574 4.25452 69.9629 4.69003C70.5683 5.12554 70.9534 5.70976 71.118 6.44269H71.2455C71.4739 5.71507 71.92 5.13351 72.5839 4.698C73.2478 4.25718 74.0311 4.03677 74.934 4.03677C76.0919 4.03677 77.0319 4.40855 77.7542 5.1521C78.4765 5.89034 78.8377 6.90476 78.8377 8.19536V16.4329H74.942V9.08762C74.942 8.47684 74.7853 8.01212 74.472 7.69346C74.1586 7.36948 73.7523 7.20749 73.2531 7.20749C72.7167 7.20749 72.2944 7.38276 71.9864 7.73329C71.6836 8.07851 71.5323 8.54323 71.5323 9.12745V16.4329H67.788V9.04779C67.788 8.4795 67.6339 8.03071 67.3259 7.70142C67.0178 7.37214 66.6116 7.20749 66.107 7.20749C65.7671 7.20749 65.467 7.28981 65.2068 7.45446C64.9465 7.61379 64.742 7.84217 64.5933 8.13959C64.4499 8.43701 64.3782 8.78754 64.3782 9.19118V16.4329H60.4825ZM83.1954 21.0216C82.7281 21.0216 82.2872 20.9845 81.873 20.9101C81.4587 20.8411 81.1029 20.7481 80.8054 20.6313L81.6658 17.8031C82.0482 17.9306 82.3935 18.0049 82.7015 18.0262C83.0149 18.0474 83.2831 17.997 83.5061 17.8748C83.7345 17.758 83.9098 17.5482 84.0319 17.2455L84.1833 16.879L79.8335 4.1961H83.9124L86.167 12.9275H86.2945L88.5809 4.1961H92.6837L88.071 17.604C87.848 18.2732 87.5319 18.8627 87.123 19.3726C86.7193 19.8877 86.1962 20.2914 85.5536 20.5835C84.9162 20.8756 84.1302 21.0216 83.1954 21.0216ZM94.1775 16.4329V0.117181H98.0731V6.29133H98.1528C98.3121 5.91955 98.5379 5.56105 98.83 5.21583C99.1274 4.87061 99.5045 4.58912 99.9612 4.37137C100.423 4.1483 100.976 4.03677 101.618 4.03677C102.468 4.03677 103.262 4.25983 104 4.70597C104.744 5.1521 105.344 5.83988 105.801 6.76933C106.258 7.69877 106.486 8.88314 106.486 10.3224C106.486 11.7086 106.266 12.8691 105.825 13.8039C105.389 14.7386 104.8 15.4397 104.056 15.9071C103.318 16.3744 102.497 16.6081 101.594 16.6081C100.978 16.6081 100.445 16.5072 99.9931 16.3054C99.5417 16.1036 99.1619 15.838 98.8539 15.5087C98.5511 15.1794 98.3175 14.8263 98.1528 14.4492H98.0333V16.4329H94.1775ZM97.9935 10.3145C97.9935 10.9731 98.0811 11.5467 98.2564 12.0353C98.437 12.5239 98.6945 12.9036 99.0291 13.1745C99.3691 13.4401 99.7753 13.5728 100.248 13.5728C100.726 13.5728 101.132 13.4401 101.467 13.1745C101.802 12.9036 102.054 12.5239 102.224 12.0353C102.399 11.5467 102.487 10.9731 102.487 10.3145C102.487 9.65591 102.399 9.08496 102.224 8.60165C102.054 8.11834 101.802 7.74391 101.467 7.47836C101.138 7.2128 100.731 7.08002 100.248 7.08002C99.77 7.08002 99.3637 7.21015 99.0291 7.47039C98.6945 7.73063 98.437 8.10241 98.2564 8.58572C98.0811 9.06903 97.9935 9.64528 97.9935 10.3145ZM116.422 11.151V4.1961H120.31V16.4329H116.598V14.1544H116.47C116.199 14.9033 115.737 15.4981 115.084 15.9389C114.436 16.3744 113.653 16.5922 112.734 16.5922C111.9 16.5922 111.167 16.401 110.535 16.0186C109.903 15.6362 109.412 15.1024 109.061 14.4173C108.711 13.7269 108.533 12.9196 108.527 11.9954V4.1961H112.423V11.2306C112.428 11.8945 112.604 12.4177 112.949 12.8001C113.294 13.1825 113.764 13.3737 114.359 13.3737C114.747 13.3737 115.095 13.2887 115.403 13.1187C115.716 12.9435 115.963 12.6912 116.143 12.3619C116.329 12.0273 116.422 11.6237 116.422 11.151ZM128.502 16.6639C127.211 16.6639 126.104 16.3983 125.18 15.8672C124.261 15.3361 123.554 14.5979 123.061 13.6525C122.567 12.7018 122.32 11.6024 122.32 10.3543C122.32 9.1009 122.567 8.0015 123.061 7.05613C123.56 6.10544 124.269 5.36454 125.188 4.83343C126.112 4.30232 127.214 4.03677 128.494 4.03677C129.625 4.03677 130.61 4.24125 131.449 4.6502C132.294 5.05915 132.952 5.63806 133.425 6.38693C133.903 7.13048 134.155 8.00416 134.182 9.00795H130.541C130.467 8.38124 130.254 7.88997 129.904 7.53412C129.559 7.17828 129.107 7.00036 128.55 7.00036C128.098 7.00036 127.702 7.12783 127.362 7.38276C127.023 7.63238 126.757 8.00416 126.566 8.49809C126.38 8.98671 126.287 9.59217 126.287 10.3145C126.287 11.0368 126.38 11.6476 126.566 12.1468C126.757 12.6407 127.023 13.0152 127.362 13.2701C127.702 13.5197 128.098 13.6445 128.55 13.6445C128.911 13.6445 129.229 13.5675 129.506 13.4135C129.787 13.2595 130.018 13.0338 130.199 12.7363C130.379 12.4336 130.493 12.0671 130.541 11.6369H134.182C134.145 12.6461 133.892 13.5277 133.425 14.2819C132.963 15.036 132.312 15.6229 131.473 16.0425C130.639 16.4568 129.649 16.6639 128.502 16.6639ZM139.689 13.2223L139.705 8.57775H140.247L143.688 4.1961H148.102L142.987 10.4738H141.959L139.689 13.2223ZM136.176 16.4329V0.117181H140.071V16.4329H136.176ZM143.776 16.4329L140.573 11.3501L143.138 8.58572L148.277 16.4329H143.776ZM160.179 7.93246L156.602 8.02806C156.565 7.77312 156.464 7.5474 156.299 7.35089C156.135 7.14907 155.92 6.99239 155.654 6.88086C155.394 6.76402 155.091 6.70559 154.746 6.70559C154.294 6.70559 153.909 6.79588 153.591 6.97646C153.277 7.15704 153.123 7.40135 153.129 7.70939C153.123 7.94839 153.219 8.15552 153.415 8.33079C153.617 8.50605 153.976 8.6468 154.491 8.75302L156.849 9.19915C158.071 9.43284 158.979 9.82055 159.574 10.3623C160.174 10.904 160.477 11.621 160.482 12.5133C160.477 13.3524 160.227 14.0827 159.733 14.7041C159.244 15.3255 158.575 15.8088 157.725 16.154C156.876 16.4939 155.904 16.6639 154.81 16.6639C153.062 16.6639 151.684 16.3054 150.675 15.5884C149.671 14.8661 149.097 13.8995 148.954 12.6885L152.802 12.5929C152.887 13.0391 153.107 13.379 153.463 13.6127C153.819 13.8464 154.273 13.9632 154.825 13.9632C155.325 13.9632 155.731 13.8703 156.044 13.6844C156.358 13.4985 156.517 13.2515 156.522 12.9435C156.517 12.6673 156.395 12.4469 156.156 12.2822C155.917 12.1123 155.542 11.9795 155.033 11.8839L152.898 11.4776C151.671 11.2545 150.757 10.8429 150.157 10.2428C149.557 9.63732 149.259 8.86721 149.265 7.93246C149.259 7.11455 149.477 6.41614 149.918 5.83723C150.359 5.25301 150.986 4.80688 151.798 4.49883C152.611 4.19079 153.569 4.03677 154.674 4.03677C156.331 4.03677 157.638 4.38465 158.594 5.0804C159.55 5.77084 160.078 6.72153 160.179 7.93246Z" fill="white"/>
</svg>
