<svg width="23" height="23" viewBox="0 0 23 23" fill="none" xmlns="http://www.w3.org/2000/svg">
<path d="M1.26707 23C1.09197 22.9997 0.918854 22.9629 0.758722 22.8921C0.598591 22.8212 0.454951 22.7178 0.336936 22.5884C0.216786 22.4602 0.125104 22.3079 0.0679018 22.1417C0.0106995 21.9755 -0.0107309 21.7991 0.00501554 21.624L0.314219 18.2231L14.5981 3.94031L19.062 8.40414L4.78189 22.6857L1.38192 22.9949C1.34374 22.9985 1.30541 23.0001 1.26707 23ZM19.953 7.51163L15.4904 3.04779L18.1672 0.370245C18.2844 0.252871 18.4236 0.159758 18.5768 0.0962287C18.7301 0.0326995 18.8943 0 19.0601 0C19.226 0 19.3902 0.0326995 19.5434 0.0962287C19.6966 0.159758 19.8358 0.252871 19.953 0.370245L22.6299 3.04779C22.7472 3.16503 22.8403 3.30426 22.9038 3.45751C22.9673 3.61077 23 3.77504 23 3.94094C23 4.10684 22.9673 4.27111 22.9038 4.42436C22.8403 4.57761 22.7472 4.71684 22.6299 4.83408L19.9543 7.51037L19.953 7.51163Z" fill="#232D42"/>
</svg>
