<svg width="18" height="19" viewBox="0 0 18 19" fill="none" xmlns="http://www.w3.org/2000/svg">
<path d="M7.46341 2.50787C7.63807 2.50787 7.80557 2.57725 7.92907 2.70075C8.05257 2.82425 8.12195 2.99175 8.12195 3.1664V10.1908H15.1463C15.3055 10.1908 15.4592 10.2484 15.5792 10.353C15.6991 10.4576 15.7771 10.6021 15.7987 10.7598L15.8049 10.8493C15.8049 15.2132 12.2663 18.3127 7.90244 18.3127C5.80658 18.3127 3.79657 17.4802 2.31457 15.9982C0.832576 14.5162 0 12.5062 0 10.4103C0 6.0464 3.09951 2.50787 7.46341 2.50787ZM10.0976 0.312744C12.1934 0.312744 14.2034 1.14532 15.6854 2.62731C17.1674 4.10931 18 6.11933 18 8.21518C18 8.38984 17.9306 8.55734 17.8071 8.68084C17.6836 8.80434 17.5161 8.87372 17.3415 8.87372H10.0976C9.92291 8.87372 9.75541 8.80434 9.63191 8.68084C9.50841 8.55734 9.43902 8.38984 9.43902 8.21518V0.971281C9.43902 0.796626 9.50841 0.629125 9.63191 0.505625C9.75541 0.382125 9.92291 0.312744 10.0976 0.312744Z" fill="white"/>
</svg>
