<svg width="10" height="16" viewBox="0 0 10 16" fill="none" xmlns="http://www.w3.org/2000/svg">
<path d="M1.01312 15.0847C0.802211 14.8737 0.683731 14.5876 0.683731 14.2893C0.683731 13.991 0.802211 13.7049 1.01312 13.4939L6.58187 7.92518L1.01312 2.35643C0.808188 2.14425 0.694794 1.86007 0.697357 1.5651C0.69992 1.27013 0.818236 0.987965 1.02682 0.779381C1.2354 0.570797 1.51757 0.452483 1.81254 0.44992C2.10751 0.447356 2.39169 0.56075 2.60387 0.765678L8.96799 7.1298C9.1789 7.34077 9.29738 7.62687 9.29738 7.92518C9.29738 8.22349 9.1789 8.50958 8.96799 8.72055L2.60387 15.0847C2.3929 15.2956 2.1068 15.4141 1.80849 15.4141C1.51018 15.4141 1.22408 15.2956 1.01312 15.0847Z" fill="#8A92A6"/>
</svg>
