<svg width="30" height="30" viewBox="0 0 30 30" fill="none" xmlns="http://www.w3.org/2000/svg">
<path d="M15 14.1562L17.9688 17.125C18.1979 17.3542 18.4846 17.4688 18.8288 17.4688C19.1729 17.4688 19.4696 17.3542 19.7188 17.125C19.9688 16.875 20.0938 16.5783 20.0938 16.235C20.0938 15.8917 19.9688 15.5946 19.7188 15.3438L15.875 11.5C15.625 11.25 15.3333 11.125 15 11.125C14.6667 11.125 14.375 11.25 14.125 11.5L10.25 15.375C10 15.625 9.88042 15.9167 9.89125 16.25C9.90208 16.5833 10.0321 16.875 10.2813 17.125C10.5313 17.3542 10.8229 17.4742 11.1562 17.485C11.4896 17.4958 11.7812 17.3758 12.0312 17.125L15 14.1562ZM15 27.5C13.2708 27.5 11.6458 27.1717 10.125 26.515C8.60417 25.8583 7.28125 24.9679 6.15625 23.8438C5.03125 22.7188 4.14083 21.3958 3.485 19.875C2.82917 18.3542 2.50083 16.7292 2.5 15C2.5 13.2708 2.82833 11.6458 3.485 10.125C4.14167 8.60417 5.03208 7.28125 6.15625 6.15625C7.28125 5.03125 8.60417 4.14083 10.125 3.485C11.6458 2.82917 13.2708 2.50083 15 2.5C16.7292 2.5 18.3542 2.82833 19.875 3.485C21.3958 4.14167 22.7188 5.03208 23.8438 6.15625C24.9688 7.28125 25.8596 8.60417 26.5162 10.125C27.1729 11.6458 27.5008 13.2708 27.5 15C27.5 16.7292 27.1717 18.3542 26.515 19.875C25.8583 21.3958 24.9679 22.7188 23.8438 23.8438C22.7188 24.9688 21.3958 25.8596 19.875 26.5162C18.3542 27.1729 16.7292 27.5008 15 27.5Z" fill="#605DAA"/>
</svg>
