<svg width="30" height="30" viewBox="0 0 30 30" fill="none" xmlns="http://www.w3.org/2000/svg">
<path d="M15 15.8437L12.0313 12.875C11.8021 12.6458 11.5154 12.5312 11.1712 12.5312C10.8271 12.5312 10.5304 12.6458 10.2813 12.875C10.0312 13.125 9.90625 13.4217 9.90625 13.765C9.90625 14.1083 10.0312 14.4054 10.2812 14.6562L14.125 18.5C14.375 18.75 14.6667 18.875 15 18.875C15.3333 18.875 15.625 18.75 15.875 18.5L19.75 14.625C20 14.375 20.1196 14.0833 20.1087 13.75C20.0979 13.4167 19.9679 13.125 19.7187 12.875C19.4687 12.6458 19.1771 12.5258 18.8438 12.515C18.5104 12.5042 18.2188 12.6242 17.9688 12.875L15 15.8437ZM15 2.5C16.7292 2.5 18.3542 2.82833 19.875 3.485C21.3958 4.14167 22.7188 5.03208 23.8437 6.15625C24.9687 7.28125 25.8592 8.60417 26.515 10.125C27.1708 11.6458 27.4992 13.2708 27.5 15C27.5 16.7292 27.1717 18.3542 26.515 19.875C25.8583 21.3958 24.9679 22.7188 23.8437 23.8437C22.7188 24.9687 21.3958 25.8592 19.875 26.515C18.3542 27.1708 16.7292 27.4992 15 27.5C13.2708 27.5 11.6458 27.1717 10.125 26.515C8.60417 25.8583 7.28125 24.9679 6.15625 23.8437C5.03125 22.7187 4.14042 21.3958 3.48375 19.875C2.82708 18.3542 2.49917 16.7292 2.5 15C2.5 13.2708 2.82833 11.6458 3.485 10.125C4.14167 8.60417 5.03208 7.28125 6.15625 6.15625C7.28125 5.03125 8.60417 4.14042 10.125 3.48375C11.6458 2.82708 13.2708 2.49917 15 2.5Z" fill="#605DAA"/>
</svg>
