<svg width="18" height="19" viewBox="0 0 18 19" fill="none" xmlns="http://www.w3.org/2000/svg">
<path d="M10.6886 18.1914H7.31201C7.10045 18.1914 6.89523 18.1213 6.73039 17.9926C6.56555 17.864 6.451 17.6845 6.40572 17.484L6.02818 15.7884C5.52453 15.5743 5.04697 15.3066 4.60428 14.9901L2.90023 15.5166C2.69853 15.579 2.4809 15.5726 2.28348 15.4984C2.08605 15.4243 1.92071 15.2868 1.81491 15.1089L0.12293 12.273C0.018243 12.0949 -0.0210537 11.8876 0.0114686 11.6851C0.0439909 11.4825 0.146407 11.2967 0.301961 11.1579L1.62382 9.98791C1.56371 9.45791 1.56371 8.92311 1.62382 8.39311L0.301961 7.22581C0.146186 7.087 0.0436313 6.90097 0.0111037 6.69821C-0.021424 6.49545 0.0180055 6.28798 0.12293 6.10981L1.8112 3.27211C1.917 3.09419 2.08234 2.95674 2.27977 2.88258C2.47719 2.80841 2.69482 2.802 2.89652 2.86441L4.60057 3.39091C4.82691 3.22891 5.06252 3.07771 5.30556 2.94091C5.54025 2.81311 5.78143 2.69701 6.02818 2.59351L6.40665 0.899706C6.45171 0.699184 6.56605 0.519625 6.73071 0.3908C6.89538 0.261975 7.10048 0.191622 7.31201 0.191406H10.6886C10.9001 0.191622 11.1052 0.261975 11.2699 0.3908C11.4345 0.519625 11.5489 0.699184 11.5939 0.899706L11.9761 2.59441C12.4791 2.80975 12.9565 3.07741 13.4 3.39271L15.105 2.86621C15.3065 2.80403 15.524 2.81056 15.7212 2.88471C15.9184 2.95886 16.0836 3.09618 16.1894 3.27391L17.8776 6.11161C18.0928 6.47791 18.0186 6.94141 17.6986 7.22671L16.3767 8.39671C16.4369 8.92671 16.4369 9.46151 16.3767 9.99151L17.6986 11.1615C18.0186 11.4477 18.0928 11.9103 17.8776 12.2766L16.1894 15.1143C16.0836 15.2922 15.9182 15.4297 15.7208 15.5038C15.5234 15.578 15.3057 15.5844 15.104 15.522L13.4 14.9955C12.9576 15.3117 12.4804 15.5792 11.977 15.7929L11.5939 17.484C11.5487 17.6844 11.4343 17.8637 11.2696 17.9924C11.105 18.121 10.9 18.1912 10.6886 18.1914ZM8.99657 5.59141C8.01249 5.59141 7.06871 5.97069 6.37286 6.64582C5.67701 7.32095 5.28608 8.23663 5.28608 9.19141C5.28608 10.1462 5.67701 11.0619 6.37286 11.737C7.06871 12.4121 8.01249 12.7914 8.99657 12.7914C9.98066 12.7914 10.9244 12.4121 11.6203 11.737C12.3161 11.0619 12.7071 10.1462 12.7071 9.19141C12.7071 8.23663 12.3161 7.32095 11.6203 6.64582C10.9244 5.97069 9.98066 5.59141 8.99657 5.59141Z" fill="white"/>
</svg>
