<svg width="19" height="19" viewBox="0 0 19 19" fill="none" xmlns="http://www.w3.org/2000/svg">
<path fill-rule="evenodd" clip-rule="evenodd" d="M3.6519 0.769805C3.2814 1.1403 3.07326 1.64281 3.07326 2.16677V7.65282C4.13433 7.21259 5.30318 7.10124 6.42828 7.33321C6.53541 7.25946 6.66448 7.21555 6.80497 7.21555H11.6342C11.8089 7.21555 11.9764 7.28493 12.0999 7.40843C12.2234 7.53193 12.2928 7.69943 12.2928 7.87409C12.2928 8.04874 12.2234 8.21625 12.0999 8.33974C11.9764 8.46324 11.8089 8.53263 11.6342 8.53263H8.9158C10.174 9.57926 10.9757 11.158 10.9757 12.9229C10.9774 14.0121 10.6659 15.0789 10.0783 15.996H16.0245C16.3992 15.996 16.7703 15.9222 17.1165 15.7788C17.4627 15.6354 17.7773 15.4252 18.0423 15.1602C18.3073 14.8952 18.5175 14.5807 18.6609 14.2344C18.8043 13.8882 18.8781 13.5171 18.8781 13.1424V9.8497H15.3659V2.16677C15.3659 1.64281 15.1578 1.1403 14.7873 0.769805C14.4168 0.399306 13.9143 0.191162 13.3903 0.191162H5.04887C4.5249 0.191162 4.0224 0.399306 3.6519 0.769805ZM16.0245 14.679H15.3659V11.1668H17.5611V13.1424C17.5611 13.5499 17.3992 13.9407 17.111 14.2289C16.8228 14.5171 16.432 14.679 16.0245 14.679ZM6.80497 5.02043C6.44145 5.02043 6.14643 4.72541 6.14643 4.36189C6.14643 4.18724 6.21581 4.01974 6.33931 3.89624C6.46281 3.77274 6.63031 3.70336 6.80497 3.70336H11.6342C11.8089 3.70336 11.9764 3.77274 12.0999 3.89624C12.2234 4.01974 12.2928 4.18724 12.2928 4.36189C12.2928 4.53655 12.2234 4.70405 12.0999 4.82755C11.9764 4.95105 11.8089 5.02043 11.6342 5.02043H6.80497ZM0 13.1426C0 10.3543 2.26042 8.09385 5.04878 8.09385C7.83715 8.09385 10.0976 10.3543 10.0976 13.1426C10.0976 15.931 7.83715 18.1914 5.04878 18.1914C2.26042 18.1914 0 15.931 0 13.1426ZM2.58011 10.7955C2.58011 10.5636 2.76809 10.3757 2.99997 10.3757H4.12084H7.10982C7.3417 10.3757 7.52967 10.5636 7.52967 10.7955C7.52967 11.0274 7.3417 11.2154 7.10982 11.2154H5.70511C5.83987 11.414 5.936 11.6362 5.98858 11.8701H7.10982C7.3417 11.8701 7.52967 12.0581 7.52967 12.29C7.52967 12.5219 7.3417 12.7099 7.10982 12.7099H5.98858C5.90969 13.0607 5.73282 13.3853 5.47448 13.6436C5.11547 14.0027 4.62855 14.2043 4.12084 14.2043H4.01359L5.53859 15.7293C5.70255 15.8933 5.70255 16.1591 5.53859 16.3231C5.37462 16.4871 5.10878 16.4871 4.94482 16.3231L2.70309 14.0814C2.58301 13.9613 2.54709 13.7807 2.61207 13.6238C2.67706 13.4669 2.83015 13.3646 2.99997 13.3646H4.12084C4.40585 13.3646 4.67918 13.2514 4.88072 13.0499C4.97924 12.9514 5.05666 12.8357 5.11006 12.7099H2.99997C2.76809 12.7099 2.58011 12.5219 2.58011 12.29C2.58011 12.0581 2.76809 11.8701 2.99997 11.8701H5.11006C5.05666 11.7443 4.97924 11.6286 4.88072 11.5301C4.67918 11.3286 4.40585 11.2154 4.12084 11.2154H2.99997C2.76809 11.2154 2.58011 11.0274 2.58011 10.7955Z" fill="white"/>
</svg>
