<svg width="30" height="30" viewBox="0 0 30 30" fill="none" xmlns="http://www.w3.org/2000/svg">
<path d="M7.42635 9.37804C7.25856 9.21084 7.12544 9.01216 7.0346 8.7934C6.94376 8.57464 6.89701 8.3401 6.89701 8.10323C6.89701 7.86636 6.94376 7.63182 7.0346 7.41305C7.12544 7.19429 7.25856 6.99562 7.42635 6.82841L13.7254 0.529341C13.8926 0.361558 14.0913 0.228432 14.3101 0.137595C14.5288 0.0467589 14.7634 0 15.0002 0C15.2371 0 15.4716 0.0467589 15.6904 0.137595C15.9092 0.228432 16.1078 0.361558 16.275 0.529341L22.5741 6.82841C22.7419 6.99562 22.875 7.19429 22.9659 7.41305C23.0567 7.63182 23.1035 7.86636 23.1035 8.10323C23.1035 8.3401 23.0567 8.57464 22.9659 8.7934C22.875 9.01216 22.7419 9.21084 22.5741 9.37804C22.2345 9.71326 21.7765 9.90122 21.2993 9.90122C20.8221 9.90122 20.3641 9.71326 20.0245 9.37804L16.8 6.15351V18.6017C16.8 19.079 16.6103 19.5368 16.2728 19.8743C15.9353 20.2118 15.4776 20.4014 15.0002 20.4014C14.5229 20.4014 14.0651 20.2118 13.7276 19.8743C13.3901 19.5368 13.2005 19.079 13.2005 18.6017V6.15351L9.97597 9.37804C9.80877 9.54582 9.61009 9.67895 9.39133 9.76978C9.17257 9.86062 8.93803 9.90738 8.70116 9.90738C8.46429 9.90738 8.22975 9.86062 8.01099 9.76978C7.79223 9.67895 7.59355 9.54582 7.42635 9.37804ZM28.1983 16.8019C27.721 16.8019 27.2632 16.9916 26.9257 17.3291C26.5882 17.6666 26.3986 18.1244 26.3986 18.6017V26.4005H3.60191V18.6017C3.60191 18.1244 3.4123 17.6666 3.07478 17.3291C2.73727 16.9916 2.2795 16.8019 1.80218 16.8019C1.32486 16.8019 0.867087 16.9916 0.529572 17.3291C0.192056 17.6666 0.00244141 18.1244 0.00244141 18.6017V27.0004C0.0063835 27.7948 0.323673 28.5554 0.885347 29.1171C1.44702 29.6788 2.20768 29.9961 3.002 30H26.9985C27.7928 29.9961 28.5534 29.6788 29.1151 29.1171C29.6768 28.5554 29.9941 27.7948 29.998 27.0004V18.6017C29.998 18.1244 29.8084 17.6666 29.4709 17.3291C29.1334 16.9916 28.6756 16.8019 28.1983 16.8019Z" fill="#605DAA"/>
</svg>
