<svg width="28" height="26" viewBox="0 0 28 26" fill="none" xmlns="http://www.w3.org/2000/svg">
<path d="M27.8656 23.75L14.8656 1.25C14.6719 0.915625 14.3375 0.75 14 0.75C13.6625 0.75 13.325 0.915625 13.1344 1.25L0.134373 23.75C-0.250002 24.4188 0.231248 25.25 0.999998 25.25H27C27.7687 25.25 28.25 24.4188 27.8656 23.75ZM13 10C13 9.8625 13.1125 9.75 13.25 9.75H14.75C14.8875 9.75 15 9.8625 15 10V15.75C15 15.8875 14.8875 16 14.75 16H13.25C13.1125 16 13 15.8875 13 15.75V10ZM14 21C13.6075 20.992 13.2337 20.8304 12.959 20.55C12.6842 20.2696 12.5303 19.8926 12.5303 19.5C12.5303 19.1074 12.6842 18.7304 12.959 18.45C13.2337 18.1696 13.6075 18.008 14 18C14.3925 18.008 14.7663 18.1696 15.041 18.45C15.3158 18.7304 15.4697 19.1074 15.4697 19.5C15.4697 19.8926 15.3158 20.2696 15.041 20.55C14.7663 20.8304 14.3925 20.992 14 21Z" fill="#FF2A2A"/>
</svg>
