<svg width="505" height="219" viewBox="0 0 505 219" fill="none" xmlns="http://www.w3.org/2000/svg">
<path d="M203.397 71.6691L203.398 9.32538L241.293 46.8542L275.28 13.5518L287.76 26.4369L241.475 71.6691L222.222 53.0888L203.397 71.6691Z" fill="white"/>
<path d="M254.372 72.1587H279.554L279.555 47.099L254.372 72.1587Z" fill="white"/>
<path d="M301.602 28.9455L273.347 0.158691H301.603L301.602 28.9455Z" fill="white"/>
<path d="M3.84402 160.089V121.996H15.3761V128.989H15.7977C16.5913 126.675 17.9305 124.848 19.8153 123.509C21.7001 122.169 23.9487 121.5 26.561 121.5C29.2063 121.5 31.4714 122.178 33.3562 123.533C35.241 124.889 36.4397 126.708 36.9522 128.989H37.349C38.06 126.724 39.4488 124.914 41.5154 123.558C43.5821 122.186 46.0208 121.5 48.8315 121.5C52.4358 121.5 55.3622 122.657 57.6107 124.972C59.8593 127.27 60.9836 130.428 60.9836 134.446V160.089H48.8563V137.223C48.8563 135.322 48.3686 133.875 47.3931 132.883C46.4176 131.875 45.1528 131.37 43.5987 131.37C41.9288 131.37 40.6144 131.916 39.6554 133.007C38.713 134.082 38.2418 135.528 38.2418 137.347V160.089H26.5858V137.099C26.5858 135.33 26.1063 133.933 25.1473 132.908C24.1884 131.883 22.9236 131.37 21.3529 131.37C20.2948 131.37 19.3606 131.627 18.5505 132.139C17.7404 132.635 17.1038 133.346 16.6409 134.272C16.1945 135.198 15.9713 136.289 15.9713 137.546V160.089H3.84402ZM79.2365 160.734C76.8061 160.734 74.6484 160.329 72.7636 159.518C70.8954 158.692 69.4156 157.452 68.3244 155.798C67.2497 154.129 66.7124 152.037 66.7124 149.524C66.7124 147.408 67.0844 145.622 67.8284 144.167C68.5724 142.712 69.5975 141.53 70.9036 140.621C72.2098 139.711 73.7143 139.025 75.4172 138.562C77.1202 138.083 78.9389 137.76 80.8733 137.595C83.0392 137.397 84.7834 137.19 86.1061 136.975C87.4288 136.744 88.3877 136.421 88.9829 136.008C89.5947 135.578 89.9005 134.975 89.9005 134.198V134.074C89.9005 132.8 89.4624 131.817 88.5861 131.122C87.7099 130.428 86.5277 130.081 85.0397 130.081C83.436 130.081 82.1464 130.428 81.1709 131.122C80.1954 131.817 79.5754 132.776 79.3109 133.999L68.126 133.602C68.4567 131.288 69.3081 129.221 70.6804 127.402C72.0692 125.567 73.9706 124.129 76.3845 123.087C78.8149 122.029 81.733 121.5 85.1389 121.5C87.5693 121.5 89.8096 121.789 91.8597 122.368C93.9099 122.93 95.6955 123.757 97.2166 124.848C98.7377 125.923 99.9115 127.245 100.738 128.816C101.581 130.387 102.003 132.18 102.003 134.198V160.089H90.5949V154.782H90.2973C89.6195 156.071 88.7515 157.162 87.6933 158.055C86.6517 158.948 85.42 159.618 83.9981 160.064C82.5928 160.51 81.0055 160.734 79.2365 160.734ZM82.9813 152.798C84.2874 152.798 85.4613 152.533 86.5029 152.004C87.5611 151.475 88.4043 150.747 89.0325 149.822C89.6608 148.879 89.9749 147.788 89.9749 146.548V142.927C89.6277 143.109 89.2061 143.274 88.7101 143.423C88.2307 143.572 87.7016 143.713 87.1229 143.845C86.5442 143.977 85.949 144.093 85.3373 144.192C84.7256 144.291 84.1386 144.382 83.5765 144.465C82.4357 144.647 81.4602 144.928 80.6501 145.308C79.8565 145.688 79.2447 146.184 78.8149 146.796C78.4015 147.391 78.1949 148.102 78.1949 148.929C78.1949 150.185 78.6413 151.144 79.5341 151.806C80.4434 152.467 81.5925 152.798 82.9813 152.798ZM120.355 150.094L120.405 135.636H122.091L132.805 121.996H146.544L130.622 141.538H127.423L120.355 150.094ZM109.418 160.089V109.298H121.546V160.089H109.418ZM133.078 160.089L123.108 144.266L131.094 135.661L147.09 160.089H133.078ZM167.122 160.808C163.137 160.808 159.698 160.023 156.805 158.452C153.928 156.865 151.713 154.608 150.159 151.682C148.621 148.739 147.852 145.242 147.852 141.191C147.852 137.256 148.629 133.817 150.183 130.874C151.738 127.915 153.928 125.617 156.756 123.98C159.583 122.327 162.914 121.5 166.75 121.5C169.461 121.5 171.941 121.921 174.19 122.765C176.439 123.608 178.381 124.856 180.018 126.509C181.655 128.163 182.928 130.205 183.837 132.635C184.747 135.049 185.201 137.818 185.201 140.943V143.969H152.093V136.926H173.917C173.901 135.636 173.595 134.487 173 133.478C172.404 132.47 171.586 131.684 170.544 131.122C169.519 130.544 168.337 130.254 166.998 130.254C165.642 130.254 164.427 130.56 163.352 131.172C162.278 131.767 161.426 132.586 160.798 133.627C160.17 134.652 159.839 135.818 159.806 137.124V144.291C159.806 145.845 160.112 147.209 160.724 148.383C161.335 149.541 162.203 150.442 163.328 151.086C164.452 151.731 165.791 152.054 167.345 152.054C168.42 152.054 169.395 151.905 170.272 151.607C171.148 151.31 171.9 150.871 172.528 150.293C173.157 149.714 173.628 149.003 173.942 148.16L185.077 148.482C184.614 150.979 183.598 153.153 182.027 155.005C180.473 156.84 178.431 158.27 175.901 159.295C173.372 160.304 170.445 160.808 167.122 160.808ZM191.395 160.089V121.996H202.927V128.989H203.349C204.142 126.675 205.482 124.848 207.366 123.509C209.251 122.169 211.5 121.5 214.112 121.5C216.757 121.5 219.023 122.178 220.907 123.533C222.792 124.889 223.991 126.708 224.503 128.989H224.9C225.611 126.724 227 124.914 229.067 123.558C231.133 122.186 233.572 121.5 236.383 121.5C239.987 121.5 242.913 122.657 245.162 124.972C247.41 127.27 248.535 130.428 248.535 134.446V160.089H236.407V137.223C236.407 135.322 235.92 133.875 234.944 132.883C233.969 131.875 232.704 131.37 231.15 131.37C229.48 131.37 228.165 131.916 227.207 133.007C226.264 134.082 225.793 135.528 225.793 137.347V160.089H214.137V137.099C214.137 135.33 213.657 133.933 212.698 132.908C211.74 131.883 210.475 131.37 208.904 131.37C207.846 131.37 206.912 131.627 206.102 132.139C205.291 132.635 204.655 133.346 204.192 134.272C203.746 135.198 203.522 136.289 203.522 137.546V160.089H191.395ZM262.1 174.374C260.645 174.374 259.273 174.258 257.984 174.027C256.694 173.812 255.586 173.522 254.66 173.159L257.339 164.354C258.529 164.751 259.604 164.983 260.563 165.049C261.538 165.115 262.373 164.958 263.068 164.578C263.778 164.214 264.324 163.561 264.704 162.618L265.176 161.478L251.635 121.996H264.332L271.351 149.177H271.748L278.865 121.996H291.637L277.278 163.734C276.584 165.818 275.6 167.653 274.327 169.24C273.07 170.844 271.442 172.1 269.441 173.01C267.457 173.919 265.01 174.374 262.1 174.374ZM296.287 160.089V109.298H308.415V128.518H308.663C309.159 127.361 309.861 126.245 310.771 125.17C311.697 124.096 312.87 123.219 314.292 122.541C315.731 121.847 317.45 121.5 319.451 121.5C322.096 121.5 324.568 122.194 326.866 123.583C329.181 124.972 331.049 127.113 332.471 130.006C333.893 132.9 334.604 136.587 334.604 141.067C334.604 145.382 333.917 148.995 332.545 151.905C331.189 154.815 329.354 156.997 327.04 158.452C324.741 159.907 322.187 160.634 319.376 160.634C317.458 160.634 315.797 160.32 314.391 159.692C312.986 159.064 311.804 158.237 310.845 157.212C309.903 156.187 309.175 155.088 308.663 153.914H308.291V160.089H296.287ZM308.167 141.042C308.167 143.092 308.439 144.878 308.985 146.399C309.547 147.92 310.349 149.102 311.391 149.946C312.449 150.772 313.714 151.186 315.185 151.186C316.673 151.186 317.938 150.772 318.979 149.946C320.021 149.102 320.806 147.92 321.336 146.399C321.881 144.878 322.154 143.092 322.154 141.042C322.154 138.992 321.881 137.215 321.336 135.71C320.806 134.206 320.021 133.04 318.979 132.214C317.954 131.387 316.69 130.973 315.185 130.973C313.697 130.973 312.432 131.379 311.391 132.189C310.349 132.999 309.547 134.156 308.985 135.661C308.439 137.165 308.167 138.959 308.167 141.042ZM365.536 143.646V121.996H377.638V160.089H366.081V152.996H365.684C364.841 155.327 363.403 157.179 361.369 158.551C359.352 159.907 356.913 160.585 354.053 160.585C351.457 160.585 349.176 159.99 347.208 158.799C345.241 157.609 343.711 155.947 342.62 153.814C341.529 151.665 340.975 149.152 340.959 146.275V121.996H353.086V143.894C353.102 145.961 353.648 147.59 354.723 148.78C355.797 149.97 357.261 150.566 359.112 150.566C360.319 150.566 361.402 150.301 362.361 149.772C363.337 149.226 364.105 148.441 364.668 147.416C365.246 146.374 365.536 145.118 365.536 143.646ZM403.139 160.808C399.121 160.808 395.674 159.981 392.797 158.328C389.937 156.675 387.738 154.377 386.2 151.434C384.663 148.474 383.894 145.052 383.894 141.166C383.894 137.264 384.663 133.842 386.2 130.899C387.754 127.94 389.962 125.633 392.822 123.98C395.699 122.327 399.129 121.5 403.114 121.5C406.636 121.5 409.703 122.136 412.315 123.409C414.944 124.683 416.994 126.485 418.465 128.816C419.953 131.131 420.739 133.85 420.821 136.975H409.488C409.256 135.024 408.595 133.495 407.504 132.387C406.429 131.279 405.024 130.725 403.288 130.725C401.882 130.725 400.651 131.122 399.592 131.916C398.534 132.693 397.708 133.85 397.112 135.388C396.534 136.909 396.244 138.794 396.244 141.042C396.244 143.291 396.534 145.192 397.112 146.746C397.708 148.284 398.534 149.45 399.592 150.243C400.651 151.02 401.882 151.409 403.288 151.409C404.412 151.409 405.404 151.169 406.264 150.69C407.14 150.21 407.859 149.507 408.421 148.582C408.983 147.639 409.339 146.498 409.488 145.159H420.821C420.706 148.301 419.92 151.045 418.465 153.393C417.027 155.741 415.002 157.568 412.389 158.874C409.793 160.163 406.71 160.808 403.139 160.808ZM437.964 150.094L438.014 135.636H439.7L450.414 121.996H464.153L448.232 141.538H445.032L437.964 150.094ZM427.028 160.089V109.298H439.155V160.089H427.028ZM450.687 160.089L440.717 144.266L448.703 135.661L464.699 160.089H450.687ZM501.75 133.627L490.615 133.925C490.499 133.131 490.185 132.428 489.673 131.817C489.16 131.188 488.491 130.701 487.664 130.353C486.854 129.99 485.911 129.808 484.837 129.808C483.431 129.808 482.233 130.089 481.241 130.651C480.265 131.213 479.786 131.974 479.802 132.933C479.786 133.677 480.083 134.322 480.695 134.867C481.323 135.413 482.439 135.851 484.043 136.182L491.384 137.57C495.187 138.298 498.014 139.505 499.866 141.191C501.734 142.878 502.676 145.11 502.693 147.887C502.676 150.499 501.899 152.773 500.362 154.707C498.84 156.642 496.757 158.146 494.112 159.221C491.467 160.279 488.441 160.808 485.035 160.808C479.596 160.808 475.305 159.692 472.164 157.46C469.039 155.212 467.253 152.202 466.807 148.433L478.785 148.135C479.05 149.524 479.736 150.582 480.844 151.31C481.952 152.037 483.365 152.401 485.085 152.401C486.639 152.401 487.904 152.111 488.879 151.533C489.855 150.954 490.351 150.185 490.367 149.226C490.351 148.367 489.97 147.681 489.226 147.168C488.482 146.639 487.317 146.226 485.729 145.928L479.083 144.663C475.264 143.969 472.42 142.687 470.552 140.819C468.684 138.934 467.758 136.537 467.774 133.627C467.758 131.081 468.436 128.907 469.808 127.105C471.18 125.286 473.131 123.897 475.661 122.938C478.19 121.979 481.175 121.5 484.613 121.5C489.772 121.5 493.839 122.583 496.815 124.749C499.791 126.898 501.436 129.857 501.75 133.627Z" fill="white"/>
<path d="M144.073 208.089L140.01 201.029H137.8V208.089H134.905V190.438H141C142.354 190.438 143.497 190.675 144.429 191.149C145.377 191.623 146.079 192.258 146.537 193.054C147.011 193.85 147.248 194.739 147.248 195.721C147.248 196.872 146.909 197.922 146.232 198.87C145.571 199.801 144.547 200.436 143.159 200.775L147.527 208.089H144.073ZM137.8 198.717H141C142.084 198.717 142.896 198.447 143.438 197.905C143.997 197.363 144.276 196.635 144.276 195.721C144.276 194.806 144.005 194.095 143.463 193.587C142.922 193.062 142.101 192.8 141 192.8H137.8V198.717ZM164.285 200.749C164.285 201.274 164.251 201.748 164.183 202.171H153.491C153.576 203.289 153.991 204.186 154.736 204.863C155.48 205.541 156.395 205.879 157.478 205.879C159.036 205.879 160.137 205.227 160.78 203.924H163.904C163.48 205.211 162.71 206.269 161.593 207.098C160.492 207.911 159.121 208.317 157.478 208.317C156.141 208.317 154.939 208.021 153.872 207.429C152.822 206.819 151.993 205.972 151.383 204.889C150.791 203.788 150.494 202.518 150.494 201.079C150.494 199.64 150.782 198.379 151.358 197.295C151.95 196.195 152.771 195.348 153.821 194.756C154.888 194.163 156.107 193.867 157.478 193.867C158.799 193.867 159.976 194.154 161.009 194.73C162.041 195.306 162.846 196.118 163.421 197.168C163.997 198.201 164.285 199.395 164.285 200.749ZM161.263 199.835C161.246 198.768 160.865 197.913 160.12 197.27C159.375 196.626 158.452 196.305 157.351 196.305C156.352 196.305 155.497 196.626 154.786 197.27C154.075 197.896 153.652 198.751 153.516 199.835H161.263ZM172.721 208.317C171.621 208.317 170.63 208.123 169.75 207.733C168.886 207.327 168.201 206.785 167.693 206.108C167.185 205.414 166.914 204.643 166.88 203.797H169.877C169.928 204.389 170.207 204.889 170.715 205.295C171.24 205.685 171.892 205.879 172.67 205.879C173.483 205.879 174.11 205.727 174.55 205.422C175.007 205.101 175.236 204.694 175.236 204.203C175.236 203.678 174.982 203.289 174.474 203.035C173.983 202.781 173.195 202.502 172.112 202.197C171.062 201.909 170.207 201.63 169.547 201.359C168.886 201.088 168.311 200.673 167.82 200.114C167.346 199.556 167.109 198.819 167.109 197.905C167.109 197.16 167.329 196.483 167.769 195.873C168.209 195.247 168.836 194.756 169.648 194.4C170.478 194.044 171.426 193.867 172.493 193.867C174.084 193.867 175.362 194.273 176.328 195.086C177.31 195.881 177.834 196.974 177.902 198.362H175.007C174.956 197.735 174.702 197.236 174.245 196.863C173.788 196.491 173.17 196.305 172.391 196.305C171.629 196.305 171.045 196.449 170.639 196.736C170.232 197.024 170.029 197.405 170.029 197.879C170.029 198.252 170.165 198.565 170.436 198.819C170.706 199.073 171.037 199.276 171.426 199.429C171.815 199.564 172.391 199.742 173.153 199.962C174.169 200.233 174.998 200.512 175.642 200.8C176.302 201.071 176.869 201.477 177.343 202.019C177.818 202.561 178.063 203.28 178.08 204.178C178.08 204.974 177.86 205.685 177.42 206.311C176.979 206.938 176.353 207.429 175.54 207.784C174.745 208.14 173.805 208.317 172.721 208.317ZM185.094 196.457V204.203C185.094 204.728 185.213 205.109 185.45 205.346C185.704 205.566 186.127 205.676 186.719 205.676H188.497V208.089H186.212C184.908 208.089 183.909 207.784 183.215 207.175C182.521 206.565 182.173 205.575 182.173 204.203V196.457H180.523V194.095H182.173V190.616H185.094V194.095H188.497V196.457H185.094ZM190.709 201.029C190.709 199.623 190.996 198.379 191.572 197.295C192.165 196.212 192.96 195.374 193.959 194.781C194.975 194.171 196.093 193.867 197.312 193.867C198.412 193.867 199.369 194.087 200.182 194.527C201.011 194.95 201.671 195.484 202.163 196.127V194.095H205.083V208.089H202.163V206.006C201.671 206.667 201.003 207.217 200.156 207.657C199.31 208.097 198.345 208.317 197.261 208.317C196.059 208.317 194.958 208.013 193.959 207.403C192.96 206.777 192.165 205.913 191.572 204.813C190.996 203.695 190.709 202.434 190.709 201.029ZM202.163 201.079C202.163 200.114 201.959 199.276 201.553 198.565C201.164 197.854 200.647 197.312 200.004 196.94C199.36 196.567 198.666 196.381 197.921 196.381C197.176 196.381 196.482 196.567 195.839 196.94C195.195 197.295 194.67 197.829 194.264 198.54C193.875 199.234 193.68 200.063 193.68 201.029C193.68 201.994 193.875 202.84 194.264 203.568C194.67 204.296 195.195 204.855 195.839 205.244C196.499 205.617 197.193 205.803 197.921 205.803C198.666 205.803 199.36 205.617 200.004 205.244C200.647 204.872 201.164 204.33 201.553 203.619C201.959 202.891 202.163 202.044 202.163 201.079ZM222.067 194.095V208.089H219.172V206.438C218.714 207.014 218.113 207.471 217.368 207.81C216.64 208.131 215.862 208.292 215.032 208.292C213.931 208.292 212.941 208.063 212.061 207.606C211.197 207.149 210.511 206.472 210.003 205.575C209.512 204.677 209.267 203.594 209.267 202.324V194.095H212.137V201.892C212.137 203.145 212.45 204.11 213.076 204.787C213.703 205.448 214.558 205.778 215.641 205.778C216.725 205.778 217.58 205.448 218.207 204.787C218.85 204.11 219.172 203.145 219.172 201.892V194.095H222.067ZM229.29 196.127C229.713 195.416 230.272 194.866 230.966 194.476C231.677 194.07 232.515 193.867 233.481 193.867V196.863H232.744C231.61 196.863 230.746 197.151 230.154 197.727C229.578 198.303 229.29 199.302 229.29 200.724V208.089H226.395V194.095H229.29V196.127ZM235.685 201.029C235.685 199.623 235.973 198.379 236.548 197.295C237.141 196.212 237.937 195.374 238.936 194.781C239.951 194.171 241.069 193.867 242.288 193.867C243.388 193.867 244.345 194.087 245.158 194.527C245.987 194.95 246.648 195.484 247.139 196.127V194.095H250.059V208.089H247.139V206.006C246.648 206.667 245.979 207.217 245.132 207.657C244.286 208.097 243.321 208.317 242.237 208.317C241.035 208.317 239.934 208.013 238.936 207.403C237.937 206.777 237.141 205.913 236.548 204.813C235.973 203.695 235.685 202.434 235.685 201.029ZM247.139 201.079C247.139 200.114 246.936 199.276 246.529 198.565C246.14 197.854 245.623 197.312 244.98 196.94C244.337 196.567 243.642 196.381 242.897 196.381C242.152 196.381 241.458 196.567 240.815 196.94C240.171 197.295 239.647 197.829 239.24 198.54C238.851 199.234 238.656 200.063 238.656 201.029C238.656 201.994 238.851 202.84 239.24 203.568C239.647 204.296 240.171 204.855 240.815 205.244C241.475 205.617 242.169 205.803 242.897 205.803C243.642 205.803 244.337 205.617 244.98 205.244C245.623 204.872 246.14 204.33 246.529 203.619C246.936 202.891 247.139 202.044 247.139 201.079ZM261.43 193.867C262.531 193.867 263.513 194.095 264.376 194.552C265.257 195.01 265.943 195.687 266.434 196.584C266.925 197.481 267.17 198.565 267.17 199.835V208.089H264.3V200.267C264.3 199.014 263.987 198.057 263.361 197.397C262.734 196.72 261.879 196.381 260.795 196.381C259.712 196.381 258.848 196.72 258.205 197.397C257.579 198.057 257.265 199.014 257.265 200.267V208.089H254.37V194.095H257.265V195.695C257.739 195.12 258.34 194.671 259.068 194.349C259.813 194.027 260.601 193.867 261.43 193.867ZM274.749 196.457V204.203C274.749 204.728 274.867 205.109 275.104 205.346C275.358 205.566 275.782 205.676 276.374 205.676H278.152V208.089H275.866C274.563 208.089 273.564 207.784 272.869 207.175C272.175 206.565 271.828 205.575 271.828 204.203V196.457H270.177V194.095H271.828V190.616H274.749V194.095H278.152V196.457H274.749ZM296.484 208.267C294.842 208.267 293.327 207.886 291.938 207.124C290.567 206.345 289.475 205.27 288.662 203.898C287.866 202.51 287.468 200.952 287.468 199.225C287.468 197.498 287.866 195.949 288.662 194.578C289.475 193.206 290.567 192.14 291.938 191.378C293.327 190.599 294.842 190.21 296.484 190.21C298.144 190.21 299.659 190.599 301.03 191.378C302.419 192.14 303.511 193.206 304.307 194.578C305.102 195.949 305.5 197.498 305.5 199.225C305.5 200.952 305.102 202.51 304.307 203.898C303.511 205.27 302.419 206.345 301.03 207.124C299.659 207.886 298.144 208.267 296.484 208.267ZM296.484 205.752C297.653 205.752 298.694 205.49 299.608 204.965C300.522 204.423 301.234 203.661 301.741 202.679C302.266 201.68 302.529 200.529 302.529 199.225C302.529 197.922 302.266 196.779 301.741 195.797C301.234 194.815 300.522 194.061 299.608 193.536C298.694 193.012 297.653 192.749 296.484 192.749C295.316 192.749 294.275 193.012 293.361 193.536C292.446 194.061 291.727 194.815 291.202 195.797C290.694 196.779 290.44 197.922 290.44 199.225C290.44 200.529 290.694 201.68 291.202 202.679C291.727 203.661 292.446 204.423 293.361 204.965C294.275 205.49 295.316 205.752 296.484 205.752ZM327.651 194.095L323.308 208.089H320.26L317.441 197.752L314.622 208.089H311.575L307.206 194.095H310.152L313.073 205.346L316.044 194.095H319.067L321.911 205.295L324.806 194.095H327.651ZM337.383 193.867C338.483 193.867 339.465 194.095 340.329 194.552C341.209 195.01 341.895 195.687 342.386 196.584C342.877 197.481 343.122 198.565 343.122 199.835V208.089H340.253V200.267C340.253 199.014 339.939 198.057 339.313 197.397C338.686 196.72 337.831 196.381 336.748 196.381C335.664 196.381 334.801 196.72 334.157 197.397C333.531 198.057 333.218 199.014 333.218 200.267V208.089H330.322V194.095H333.218V195.695C333.692 195.12 334.293 194.671 335.021 194.349C335.766 194.027 336.553 193.867 337.383 193.867ZM360.149 200.749C360.149 201.274 360.115 201.748 360.047 202.171H349.355C349.44 203.289 349.855 204.186 350.6 204.863C351.345 205.541 352.259 205.879 353.342 205.879C354.9 205.879 356.001 205.227 356.644 203.924H359.768C359.345 205.211 358.574 206.269 357.457 207.098C356.356 207.911 354.985 208.317 353.342 208.317C352.005 208.317 350.803 208.021 349.736 207.429C348.686 206.819 347.857 205.972 347.247 204.889C346.655 203.788 346.358 202.518 346.358 201.079C346.358 199.64 346.646 198.379 347.222 197.295C347.814 196.195 348.636 195.348 349.685 194.756C350.752 194.163 351.971 193.867 353.342 193.867C354.663 193.867 355.84 194.154 356.873 194.73C357.905 195.306 358.71 196.118 359.285 197.168C359.861 198.201 360.149 199.395 360.149 200.749ZM357.127 199.835C357.11 198.768 356.729 197.913 355.984 197.27C355.239 196.626 354.316 196.305 353.215 196.305C352.217 196.305 351.362 196.626 350.65 197.27C349.939 197.896 349.516 198.751 349.381 199.835H357.127ZM366.401 196.127C366.824 195.416 367.383 194.866 368.077 194.476C368.788 194.07 369.627 193.867 370.592 193.867V196.863H369.855C368.721 196.863 367.857 197.151 367.265 197.727C366.689 198.303 366.401 199.302 366.401 200.724V208.089H363.506V194.095H366.401V196.127Z" fill="white"/>
</svg>
